<svg xmlns="http://www.w3.org/2000/svg" width="309" height="309" viewBox="0 0 309 309">
  <g id="vignette_mm" transform="translate(-0.188 -0.125)">
    <circle id="Oval" cx="154.5" cy="154.5" r="154.5" transform="translate(0.188 0.125)" fill="#76dfff"/>
    <path id="Fill_1" data-name="Fill 1" d="M106.485,230.652a71.747,71.747,0,0,1-11.795-1.034,117.959,117.959,0,0,1-11.9-2.671c-3-.822-5.956-1.752-8.775-2.763-2.857-1.025-5.659-2.162-8.328-3.385-2.7-1.237-5.35-2.593-7.864-4.031-2.546-1.457-5.03-3.04-7.384-4.7-2.382-1.685-4.7-3.5-6.887-5.4a88.029,88.029,0,0,1-6.374-6.126c-2.039-2.167-4.005-4.481-5.844-6.876-1.859-2.421-3.641-4.995-5.3-7.651-1.9-3.048-3.7-6.195-5.348-9.352-1.658-3.179-3.208-6.458-4.607-9.746-1.41-3.311-2.7-6.724-3.851-10.146-1.155-3.445-2.191-6.995-3.08-10.552A190.053,190.053,0,0,1,5.3,126c-.846-6.126-1.506-12.614-2.076-20.416A8.232,8.232,0,0,0,2,102.4,10.7,10.7,0,0,1,.829,99.719l-.034-.153C.25,97.15-.366,94.408.267,92.178c1.4-4.931,2.687-9.251,3.943-13.207C5.7,74.262,7.169,70,8.687,65.953a14.14,14.14,0,0,1,3.365-5.664,6.637,6.637,0,0,1,4.732-1.695,18.454,18.454,0,0,1,4.526.69c.4-.829.762-1.6,1.112-2.349v0c.713-1.523,1.329-2.838,2.034-4.14a83.855,83.855,0,0,1,4.372-7.165c1.469-2.169,3.081-4.362,4.926-6.7,3.428-4.349,7.165-8.561,10.78-12.635,2.816-3.174,5.727-6.456,8.474-9.782a10.617,10.617,0,0,1,3.858-2.476l.012-.006c.2-.094.415-.191.617-.286,1.667-.785,3.353-1.616,4.983-2.42A113.972,113.972,0,0,1,76.28,5.26,107.454,107.454,0,0,1,95.295,1.179c2.7-.385,5.373-.678,7.948-.873,2.672-.2,5.329-.306,7.9-.306,2.338,0,4.674.085,6.943.252,2.328.172,4.66.436,6.929.785,2.323.358,4.654.815,6.928,1.361,2.323.557,4.658,1.222,6.939,1.978a103.876,103.876,0,0,0,11.2,2.952c3.789.8,7.685,1.477,11.453,2.131,4.63.8,9.417,1.632,14.055,2.7a36.5,36.5,0,0,1,6.332,2.09,31.947,31.947,0,0,1,5.819,3.262c1.683,1.2,3.419,2.409,5.1,3.575l0,0c3.5,2.433,7.125,4.949,10.516,7.606,1.826,1.431,3.438,2.786,4.927,4.14a60.732,60.732,0,0,1,4.508,4.53c6.243,7,11.556,13.362,16.243,19.443,2.667,3.46,5.186,6.907,7.49,10.243,2.462,3.568,4.769,7.145,6.857,10.633a95.555,95.555,0,0,1,6.486,12.965,91.561,91.561,0,0,1,6.553,28.048,96.616,96.616,0,0,1-.087,14.876,22.985,22.985,0,0,1-.711,4.065,29.216,29.216,0,0,1-1.3,3.776,72.246,72.246,0,0,1-3.589,7.073c-1.085,1.957-2.207,3.98-3.144,6.051a12.133,12.133,0,0,1-.794,1.4,9.327,9.327,0,0,0-.953,1.8,55.03,55.03,0,0,1-11.362,18.843,79.369,79.369,0,0,1-7.81,7.508c-2.547,2.154-5.4,4.348-8.725,6.706-2.165,1.536-4.273,3.246-6.312,4.9a90.573,90.573,0,0,1-8.726,6.515,93.856,93.856,0,0,1-17.565,8.43c-5.737,2.118-11.583,3.838-18.6,5.769-5.011,1.379-10.171,2.493-15.16,3.568-4.291.925-8.727,1.88-13.052,3a108.825,108.825,0,0,0-12.825,4.1,49.886,49.886,0,0,1-9.586,2.726,54.84,54.84,0,0,1-9.63.832ZM18.1,73.717c-.7,1.437-1.4,2.909-2.068,4.332l0,0c-1.486,3.148-3.022,6.4-4.723,9.492-5.55,10.078-6.125,19.688-1.758,29.382a73.114,73.114,0,0,1,2.951,8.289v0c.485,1.559.987,3.171,1.539,4.73,1.152,3.257,2.267,6.6,3.345,9.825a244.336,244.336,0,0,0,8.632,23.207c6.581,14.562,15.6,25.474,26.815,32.433a87.657,87.657,0,0,0,13.362,6.629c4.53,1.837,9.074,3.4,14.118,5.1,11.05,3.732,20.268,5.471,29.01,5.471,1.96,0,3.917-.091,5.824-.27,1.974-.186,3.951-.473,5.879-.852,3.141-.618,6.36-1.128,9.472-1.62,4.779-.756,9.72-1.538,14.481-2.73,6.4-1.6,12.718-3.281,18.775-4.99,6.341-1.789,12.6-3.67,18.615-5.59a63.515,63.515,0,0,0,9.408-3.884,86.85,86.85,0,0,0,8.712-5.1c5.627-3.715,11.028-8.037,16.252-12.217l0,0c1.477-1.182,3-2.4,4.513-3.593,5.968-4.705,7.664-9.787,5.5-16.478a40.141,40.141,0,0,1-1.42-9.623c-.1-1.5-.2-3.052-.38-4.552-.1-.861-.239-1.72-.4-2.715l0-.011c-.084-.524-.171-1.066-.264-1.677-5.077,1.549-8.242,4.633-10.26,10-.253.673-.516,1.374-.747,1.991-1.818,4.857-3.7,9.88-5.966,14.607a12.5,12.5,0,0,1-2.248,3.082,8.527,8.527,0,0,1-1.379,1.16,2.382,2.382,0,0,1-1.214.46.93.93,0,0,1-.2-.021,9.226,9.226,0,0,1-3.639-1.9,7.15,7.15,0,0,1-2.406-3.188,73.047,73.047,0,0,1-2.24-11.976v-.008c-.181-1.387-.367-2.82-.578-4.223-.234-1.556-.39-3.138-.554-4.813-.078-.8-.159-1.62-.253-2.487-5.5,2.684-8.121,5.691-9.034,10.38a84.121,84.121,0,0,1-3.81,13.279,16.355,16.355,0,0,1-2.836,5.234,4.668,4.668,0,0,1-3.579,1.69c-1.7,0-3.787-.836-6.574-2.632-.233-.151-.482-.282-.826-.462-.2-.107-.434-.228-.718-.382-.167.291-.31.548-.435.774v0c-.239.431-.428.772-.645,1.091-.358.526-.763,1.213-1.155,1.877-.871,1.477-1.771,3-2.281,3a.238.238,0,0,1-.061-.008,14.439,14.439,0,0,1-3.689-1.6,19.3,19.3,0,0,1-3.271-2.478,5.547,5.547,0,0,1-1.328-2.283,14.988,14.988,0,0,1-.623-2.789c-.667-4.915-1.209-9.931-1.734-14.782V149.3c-.174-1.608-.354-3.271-.536-4.906-.129-1.17-.24-2.332-.368-3.679V140.7c-.063-.658-.127-1.34-.2-2.088-5.374,1.955-7.845,5.707-9.9,10.741-.366.894-.735,1.806-1.093,2.687l-.01.025c-1.905,4.7-3.876,9.554-6.152,14.152-1.271,2.567-2.818,3.924-4.472,3.924a3.867,3.867,0,0,1-2.444-.994,10.391,10.391,0,0,1-2.328-2.956c-.562-1-1.1-2.027-1.729-3.219-.327-.622-.664-1.265-1.052-1.994-.369.913-.673,1.761-.942,2.509v0a17.519,17.519,0,0,1-1.713,3.855c-.111.166-.222.335-.34.514l-.007.01c-1.229,1.864-2.758,4.185-4.311,4.331-.047,0-.1.007-.145.007a2.907,2.907,0,0,1-1.321-.393,7.478,7.478,0,0,1-1.41-1,9.454,9.454,0,0,1-2.192-2.787c-2.252-4.713-4.219-9.577-6.122-14.281v0c-.729-1.8-1.417-3.5-2.125-5.211-.013.048-.043.131-.084.246A8.3,8.3,0,0,0,98.469,151c-.34,5.476-.684,11.305-.846,17.068a7.534,7.534,0,0,1-.561,3.167,1.78,1.78,0,0,1-1.738,1,7.847,7.847,0,0,1-2.592-.6,9.265,9.265,0,0,1-2.046-1.025,6.049,6.049,0,0,1-1.477-1.407,6.448,6.448,0,0,1-.948-1.883,10.777,10.777,0,0,1-.459-2.452c-.424-5.171-1.2-10.4-1.948-15.454v0c-.309-2.082-.627-4.234-.918-6.353h-.059l-2.05.023c-.3,2.171-.6,4.378-.9,6.512l-.005.04c-.688,4.967-1.4,10.1-2.037,15.165a8.766,8.766,0,0,1-1.043,3.5,2.253,2.253,0,0,1-1.946,1.2,5.6,5.6,0,0,1-3.364-1.7c-1.707-1.49-2.369-4.548-2.574-5.794-.642-3.9-1.081-7.9-1.506-11.762v-.014c-.169-1.537-.345-3.127-.529-4.689l-.649-.054-.689-.057c-.422.98-.844,1.974-1.251,2.939v0c-.978,2.312-1.99,4.7-3.077,7.009a21.454,21.454,0,0,1-3.263,5.4c-.458.5-1.417.53-2.344.559a11.033,11.033,0,0,0-1.235.083,11.278,11.278,0,0,0-.117-1.132,4.207,4.207,0,0,1,.073-2.28c.411-.842.827-1.7,1.228-2.535l.006-.013a118.22,118.22,0,0,1,7.1-13.249c1.018-1.56,2.823-2.611,4.568-3.628.793-.462,1.613-.94,2.348-1.458l2.245,3.623L75,142.573a31.394,31.394,0,0,0,2.432-2.395A32.293,32.293,0,0,1,80.4,137.3a4.933,4.933,0,0,1,2.928-1.348c.076,0,.152,0,.226.011,2.256.217,4.336,2.582,6.345,4.868.849.966,1.726,1.965,2.59,2.762.151-.276.308-.65.491-1.083a10.2,10.2,0,0,1,2.359-3.823,16.748,16.748,0,0,1,3.411-2.288,8.684,8.684,0,0,1,3.727-1.019h0c.251,0,.542.216.864.643a8.954,8.954,0,0,1,.9,1.588,21.981,21.981,0,0,1,1.368,3.965c.769,3.358,1.389,6.811,1.988,10.15v.005c.495,2.758,1.006,5.61,1.6,8.395a12.433,12.433,0,0,0,1.563,3.41c.4.7.861,1.5,1.341,2.446.491-2.263.95-4.353,1.394-6.374l0-.014c.98-4.458,1.826-8.307,2.616-12.222.341-1.686.612-3.416.875-5.09.275-1.748.558-3.554.92-5.313a11.954,11.954,0,0,1,1.044-2.7c.191-.4.388-.805.56-1.213a14.563,14.563,0,0,0,1.442.741c1.1.517,2.243,1.052,2.467,1.846a21.877,21.877,0,0,1,.459,6.351c-.011.448-.022.912-.026,1.365q-.006.525-.012,1.051v.058a78.045,78.045,0,0,0,.333,10.358,29.786,29.786,0,0,0,1.027,5.014,22.877,22.877,0,0,0,2.061,4.82l.851.266.055.017.668.209c2.173-5.133,4.393-10.373,6.539-15.439l.178-.421.306-.721c-.755-.433-1.433-.815-2.03-1.151l0,0h0c-1.176-.662-2.1-1.184-3.021-1.759a7.35,7.35,0,0,1-1.64-1.405,8.327,8.327,0,0,1-1.186-1.8,10.2,10.2,0,0,1-1.008-4.264,10.349,10.349,0,0,1,.85-4.381,8.547,8.547,0,0,1,1.136-1.884,7.524,7.524,0,0,1,1.613-1.5,6.47,6.47,0,0,1,3.614-1.242,4.638,4.638,0,0,1,3.087,1.163,6.759,6.759,0,0,1,1.965,3.339c.24.868.456,1.727.705,2.722.119.475.242.965.379,1.5.652-.3,1.272-.59,1.872-.872h0c1.25-.588,2.432-1.143,3.629-1.63a12.562,12.562,0,0,1,4.544-1.125,4,4,0,0,1,3.2,1.4,10.078,10.078,0,0,1,1.88,4.443c.979,4.442,1.607,9.045,2.215,13.5.313,2.294.636,4.666,1,6.989.185,1.17.485,2.34.831,3.695v0c.175.685.374,1.462.576,2.312A9.074,9.074,0,0,0,162,164.386a6.178,6.178,0,0,0,.789-2.174,12.289,12.289,0,0,0-.308-4.268l-.022-.113a45.421,45.421,0,0,1-.71-14.437,30.218,30.218,0,0,1,1.713-6.863,29.257,29.257,0,0,1,3.524-6.54,12.77,12.77,0,0,1,2.78-2.99,4.851,4.851,0,0,1,2.9-1,5.88,5.88,0,0,1,2.172.454,12.574,12.574,0,0,1,2.478,1.369,50.516,50.516,0,0,1,6.414,5.584c.966.938,1.964,1.909,3.011,2.863a43.668,43.668,0,0,1,4.178-1.878,8.881,8.881,0,0,1,2.957-.667,2.843,2.843,0,0,1,1.835.586,4.371,4.371,0,0,1,1.252,1.845,16.886,16.886,0,0,1,.862,3.236c.223,1.213.434,2.726.664,4.759.457,4.035,1.128,8.113,1.778,12.056v.005c.294,1.783.6,3.626.877,5.44l.8.049.727.045c.591-1.5,1.191-3.034,1.77-4.513l.007-.018c1.431-3.656,2.911-7.436,4.4-11.143a5.446,5.446,0,0,0,.486-3.237,3.4,3.4,0,0,0-.667-1.367,6.01,6.01,0,0,0-1.423-1.262,8.636,8.636,0,0,1-2.335-2.244,7.742,7.742,0,0,1-1.174-2.676,10.505,10.505,0,0,1-.222-2.992,17.325,17.325,0,0,1,.521-3.192,6.689,6.689,0,0,1,1.95-3.489,5,5,0,0,1,3.407-1.205,7.734,7.734,0,0,1,1.35.125,6.4,6.4,0,0,1,4.058,2.088,5.742,5.742,0,0,1,.849,4.721,11.955,11.955,0,0,0-.07,2.581c.018.425.037.865.037,1.313,1.929-.454,3.422-.764,4.7-.975a22.579,22.579,0,0,1,3.63-.352c2.754,0,4.476.846,5.759,2.833a15.358,15.358,0,0,1,1.675,3.931c.45,1.495.885,3.331,1.41,5.954.318,1.592.644,3.176,1.022,5.011l.008.041.022.106c.194.944.4,1.92.618,3.007,1.165-2.059,2.258-4.033,3.315-5.941l.005-.009c2.251-4.066,4.377-7.907,6.668-11.584a34.8,34.8,0,0,0,2.626-5.081,30.468,30.468,0,0,0,1.643-5.27,29.674,29.674,0,0,0,.64-5.477,32.362,32.362,0,0,0-.385-5.7q-.069-.441-.136-.884a48.761,48.761,0,0,0-1.7-8.034c-.533-1.6-1.054-3.24-1.557-4.828l0-.013c-.863-2.726-1.755-5.544-2.752-8.254a61.344,61.344,0,0,0-3.454-7.862c-3.713-6.922-8.74-13.239-13.6-19.348l-.182-.228c-.835-1.049-1.677-2.113-2.491-3.142-2.878-3.635-5.854-7.4-8.89-10.988-3.407-4.031-6.522-7.407-9.521-10.322A48.036,48.036,0,0,0,191.6,32.484a36.8,36.8,0,0,0-7.506-2.587,37.9,37.9,0,0,0-8.317-.907c-.937,0-1.9.033-2.857.1-2.574.175-5.132.263-7.6.263-2.805,0-5.581-.114-8.251-.339-2.793-.236-5.551-.6-8.2-1.081a77.173,77.173,0,0,1-8.073-1.918,70.755,70.755,0,0,1-7.88-2.85,57.78,57.78,0,0,0-23.331-4.8c-.635,0-1.282.01-1.925.029-3.155.094-6.362.157-9.466.221h-.005c-4.308.087-8.762.177-13.141.345-8.461.324-15.826,3.14-21.293,8.142-7.42,6.789-14.659,14.044-21.659,21.06-4.656,4.666-9.469,9.491-14.292,14.134-3.2,3.077-2.259,5.918-1.266,8.926.154.47.313.953.458,1.439a58.677,58.677,0,0,0,3.6-6.565l0-.008c.246-.5.5-1.017.755-1.523a9.456,9.456,0,0,1,2.806-3.469,6.413,6.413,0,0,1,3.848-1.264,7.684,7.684,0,0,1,1.825.229A6.111,6.111,0,0,1,43.7,62.814a10.686,10.686,0,0,1,1.4,4.907c.188,2.582.5,5.122.853,8.063.167,1.379.341,2.806.517,4.37.509-1.906.945-3.686,1.367-5.408a86.983,86.983,0,0,1,2.848-9.974,6.746,6.746,0,0,1,2.256-3.1,5.339,5.339,0,0,1,3.183-1.057,6.267,6.267,0,0,1,4.708,2.328,11.21,11.21,0,0,1,1.747,2.838,15.317,15.317,0,0,1,1.01,3.246c1.413,7.379,2.678,14.729,4.017,22.51l.009.052c.48,2.789.976,5.67,1.484,8.582.277-.514.525-.927.724-1.259a5.186,5.186,0,0,0,.689-1.417c.383-1.637.778-3.322,1.128-4.806,1.8-7.662,3.66-15.584,5.318-23.415a7.315,7.315,0,0,1,1.248-3.013,2.915,2.915,0,0,1,2.375-1.191,3.941,3.941,0,0,1,.713.068,4.122,4.122,0,0,1,2.094,1.452,5.547,5.547,0,0,1,1.291,2.4c.714,3.868,1.243,7.839,1.755,11.679.365,2.742.743,5.578,1.186,8.353A46.776,46.776,0,0,0,89,94.639c.241.83.49,1.688.712,2.536l1.218-.3c.4-1.455.8-2.939,1.179-4.375l0-.008c.9-3.373,1.823-6.86,2.932-10.222a10.279,10.279,0,0,0,.551-4.551,12.915,12.915,0,0,0-1.531-4.475,10.2,10.2,0,0,1-.954-4.653,18.582,18.582,0,0,1,.7-4.961c.215-.756,1.416-1.308,2.386-1.638a17.589,17.589,0,0,1,3.743-.789c.24-.023.474-.035.694-.035a4.105,4.105,0,0,1,1.991.442,3.262,3.262,0,0,1,1.218,1.164,10.923,10.923,0,0,1,1.148,3.532c.125.6.254,1.214.417,1.786l.016.055c.4,1.4.94,3.317,1.978,3.863a13.8,13.8,0,0,1,2.807,1.937,12.412,12.412,0,0,1,2.068,2.413,16.765,16.765,0,0,1,2.333,6.142c.387,2.017.909,4.043,1.41,6,.226.877.458,1.783.677,2.676a16.273,16.273,0,0,0,.617-5.668,30.76,30.76,0,0,1,.4-6.24A29.458,29.458,0,0,1,119.3,73.5a32.164,32.164,0,0,1,2.682-5.323,38.952,38.952,0,0,1,3.66-4.92,10.818,10.818,0,0,1,2.46-2.194,4.478,4.478,0,0,1,2.361-.724c1.529,0,3.1.9,4.947,2.817.884.92,1.517,1.386,1.883,1.386a.333.333,0,0,0,.12-.021,8.109,8.109,0,0,1,2.894-.586,6.753,6.753,0,0,1,4.369,1.7,22.523,22.523,0,0,1,3.408,3.79c3.2-2.516,5.754-3.739,7.813-3.739a4.462,4.462,0,0,1,2.157.533,5.641,5.641,0,0,1,1.786,1.61,17.509,17.509,0,0,1,2.594,6.5,62.138,62.138,0,0,1,1.135,8.5c.136,1.563.276,3.179.481,4.755.363,2.795.791,5.63,1.244,8.631.215,1.426.439,2.9.669,4.47,4.622-4.659,5.439-9.916,6.229-15,.2-1.258.4-2.558.655-3.809a3.177,3.177,0,0,0-1.186-2.3A6.885,6.885,0,0,1,170,77.554a6.958,6.958,0,0,1-.727-2.248,19.1,19.1,0,0,1,.118-4.9l.019-.173a5.233,5.233,0,0,1,1.643-3.645,5.894,5.894,0,0,1,3.77-1.146l.2,0a4.209,4.209,0,0,1,3.187,1.107,5.407,5.407,0,0,1,1.263,3.244,26.862,26.862,0,0,0,.673,3.3v0c.139.564.282,1.146.421,1.772.864-.586,1.692-1.169,2.493-1.732,1.779-1.251,3.459-2.432,5.231-3.452a7.321,7.321,0,0,1,3.541-1.138,3.713,3.713,0,0,1,3.437,2.413c.815,1.687,1.673,3.507,2.413,5.388a31.386,31.386,0,0,1,1.681,5.61c1.41,7.431,2.288,14.706,3.288,23.445.153,1.341-.654,3.889-1.465,4.1a4.09,4.09,0,0,1-1.018.119,6.665,6.665,0,0,1-3.772-1.238c-1.02-.768-1.591-2.662-1.689-4.1-.233-3.416-.389-6.9-.539-10.261v-.01c-.16-3.578-.325-7.277-.584-10.908-.17-2.388-.567-4.718-1.027-7.417-.222-1.3-.451-2.643-.673-4.1-1.187.906-2.234,1.726-3.247,2.519h0c-2.049,1.6-3.818,2.989-5.655,4.212a12.771,12.771,0,0,0-3.225,2.921,11.627,11.627,0,0,0-1.935,4.1,91.687,91.687,0,0,1-6.22,17.077,7,7,0,0,1-2.726,2.623,7.672,7.672,0,0,1-3.65,1.172c-.107,0-.213,0-.313-.013a5.431,5.431,0,0,1-3.054-1.9,8.9,8.9,0,0,1-2.081-3.433,172.789,172.789,0,0,1-3.456-16.975l0-.025c-.157-.929-.319-1.89-.481-2.833-.357-2.073-.53-4.22-.714-6.493v0c-.09-1.114-.183-2.266-.3-3.49a15.145,15.145,0,0,0-4.151,3.738,12.337,12.337,0,0,0-1.977,4.672c-.708,3.163-1.582,6.9-2.7,10.655a68.887,68.887,0,0,1-3.852,10.187,9.23,9.23,0,0,1-4.068,4.113,11.812,11.812,0,0,1-2.8,1.046,12.986,12.986,0,0,1-3.011.352,12.331,12.331,0,0,1-4.184-.711,10.06,10.06,0,0,1-3.564-2.162l-.38-.362h0a18.179,18.179,0,0,0-2.672-2.26,5.662,5.662,0,0,0-3.15-.942,7.7,7.7,0,0,0-1.554.17.934.934,0,0,1-.188.018,3.878,3.878,0,0,1-2.194-1.179,7.016,7.016,0,0,1-1.745-2.283,88.174,88.174,0,0,1-2.835-8.561c-.439-1.493-.892-3.037-1.379-4.539-.463-1.427-1.028-2.845-1.575-4.216v0c-.248-.623-.5-1.266-.749-1.9l-.734-.007h-.005l-.208,0-.58-.005c-.357.951-.731,1.914-1.092,2.845h0c-.8,2.066-1.63,4.2-2.328,6.344-.721,2.218-1.41,4.49-2.074,6.687-1.122,3.709-2.282,7.544-3.642,11.229-.624,1.69-2.7,3.956-3.971,3.956a.67.67,0,0,1-.087,0,5.445,5.445,0,0,1-2.752-1.281,11.514,11.514,0,0,1-2.282-2.442,16.194,16.194,0,0,1-1.955-5.147v0c-.112-.432-.227-.88-.347-1.31-.815-2.923-1.557-5.824-2.417-9.184-.376-1.467-.765-2.985-1.191-4.624q-.987,3.453-1.89,6.661v.007c-1.578,5.585-3.068,10.861-4.673,16.016a11.812,11.812,0,0,1-1.257,2.671c-.6.94-1.185,1.462-1.634,1.468h-.049a6.072,6.072,0,0,1-2.747-.8,17.166,17.166,0,0,1-2.57-1.717,6.512,6.512,0,0,1-1.8-3.627c-1.88-7.866-3.331-14.288-4.564-20.211-.553-2.659-.967-5.395-1.367-8.04-.18-1.188-.365-2.417-.562-3.626a11.443,11.443,0,0,0-1.685,4.147c-.165.649-.32,1.263-.537,1.867a83.72,83.72,0,0,0-4.607,30.21c.02,1.157-.586,3.291-1.242,3.432a3.8,3.8,0,0,1-.8.076,5.962,5.962,0,0,1-1.845-.3,2.085,2.085,0,0,1-1.214-.828,33.019,33.019,0,0,1-3.4-9.248c-1.128-6.706-2.05-13.564-2.942-20.2l0-.019c-.348-2.588-.708-5.265-1.075-7.894-1.213.641-1.8,1.267-1.9,2.03-.434,3.353-.856,6.765-1.265,10.064v0c-.8,6.493-1.635,13.207-2.59,19.789a11.506,11.506,0,0,1-1.661,3.9c-.332.576-.675,1.171-.961,1.765-.6-.48-1.265-.933-1.908-1.372a12.214,12.214,0,0,1-3.86-3.5,4.677,4.677,0,0,1-.552-1.943,19.652,19.652,0,0,1-.031-2.266,17.9,17.9,0,0,0-.06-2.584c-.8-6.3-1.645-12.712-2.462-18.908v0c-.31-2.35-.631-4.783-.944-7.175l-.834-.024h0Zm155.078,62.615a20.688,20.688,0,0,0-3.813,11.8,26.915,26.915,0,0,0,.684,6.476,34.075,34.075,0,0,0,2.229,6.552C179.078,150.645,179.356,142.988,173.179,136.331Zm-36.685-3.763a26.238,26.238,0,0,0-1.883,2.08,8.394,8.394,0,0,0-1.338,2.3,5.753,5.753,0,0,0-.3,2.739,9.192,9.192,0,0,0,1.222,3.388C138.049,139.64,137.482,136.145,136.494,132.569Zm-4.722-63.315c-.265.411-.536.826-.8,1.227-1.018,1.559-1.98,3.031-2.805,4.563a18.33,18.33,0,0,0-1.86,4.72c-1.337,5.952-3,13.359,2.52,19.541,1.552,1.737,2.987,2.618,4.262,2.618,1.314,0,2.469-.938,3.433-2.789A109.3,109.3,0,0,0,141.789,86.5l0-.005c.743-2.011,1.512-4.091,2.358-6.236a16.139,16.139,0,0,1-5.079-1.165,10.527,10.527,0,0,1-3.479-2.364,12.683,12.683,0,0,1-2.294-3.35A25.313,25.313,0,0,1,131.772,69.254Zm8.416-.841-1.151.382-1.151.382c.125.435.249.876.368,1.3.414,1.48.842,3.011,1.4,4.46.014.037.08.056.2.056a8.815,8.815,0,0,0,1.218-.178c.311-.058.632-.118.885-.15l-.927-3.281-.84-2.972Z" transform="translate(25.769 43.689)" fill="#f2f2f2"/>
    <path id="Fill_4" data-name="Fill 4" d="M9.39,6.616C9.229,8.732,9.3,11.742,5.333,11.59,2.138,11.468.123,8.574.006,5.024-.12,1.231,1.624-.142,5.064.011c3.176.141,4.478,1.931,4.325,6.6" transform="translate(214.113 162.149)" fill="#fff"/>
    <path id="Fill_6" data-name="Fill 6" d="M2.686,0c4.3.718,7.895.721,7.643,5.637-.14,2.715-1.37,6.318-3.984,5.081C3.637,9.436,1.874,5.74.007,2.871-.146,2.635,2.068.648,2.686,0" transform="translate(141.094 158.075)" fill="#fff"/>
    <path id="Fill_8" data-name="Fill 8" d="M0,.494C4.663-1.2,11.217,1.762,11.83,4.983c.251,1.323-.114,3.573-.956,4.137-1.08.721-3.541.846-4.32.045C4.22,6.767,2.413,3.792,0,.494" transform="translate(173.06 89.13)" fill="#fff"/>
    <path id="Fill_10" data-name="Fill 10" d="M3.452,0c3.43,1.254,6.979.865,6.54,5.15-.167,1.627-2.48,4.3-3.735,4.252C3.232,9.28.031,7.706,0,3.776-.01,2.527,2.238,1.259,3.452,0" transform="translate(101.294 85.682)" fill="#fff"/>
  </g>
</svg>
