<svg id="logo" xmlns="http://www.w3.org/2000/svg" width="986" height="986" viewBox="0 0 986 986">
  <circle id="Oval" cx="493" cy="493" r="493" transform="translate(0 0)" fill="#76dfff"/>
  <path id="Fill_1" data-name="Fill 1" d="M339.791,736a228.925,228.925,0,0,1-37.636-3.3,376.382,376.382,0,0,1-37.987-8.523c-9.585-2.623-19.006-5.59-28-8.818-9.115-3.271-18.056-6.9-26.574-10.8-8.628-3.946-17.071-8.274-25.094-12.864-8.123-4.648-16.051-9.7-23.562-15.01-7.6-5.377-15-11.177-21.977-17.238A280.923,280.923,0,0,1,118.623,639.9c-6.506-6.915-12.78-14.3-18.648-21.94-5.931-7.724-11.618-15.938-16.9-24.413C77,583.82,71.263,573.78,66.009,563.706c-5.29-10.143-10.236-20.606-14.7-31.1-4.5-10.564-8.63-21.456-12.289-32.374-3.684-10.992-6.99-22.32-9.827-33.671a606.43,606.43,0,0,1-12.264-64.5c-2.7-19.548-4.807-40.249-6.623-65.145-.253-3.483-2.113-6.871-3.911-10.147A34.127,34.127,0,0,1,2.649,318.2l-.11-.488C.8,310-1.165,301.252.854,294.135c4.459-15.734,8.574-29.519,12.582-42.144,4.769-15.023,9.441-28.61,14.285-41.538,3.232-8.623,6.644-14.367,10.738-18.075,4.073-3.689,8.871-5.408,15.1-5.408A58.886,58.886,0,0,1,68,189.173c1.275-2.645,2.43-5.11,3.547-7.494l0-.006c2.276-4.86,4.242-9.057,6.489-13.211A267.573,267.573,0,0,1,91.986,145.6c4.689-6.922,9.831-13.919,15.72-21.389,10.94-13.877,22.864-27.319,34.4-40.318,8.985-10.129,18.275-20.6,27.04-31.213,2.976-3.605,7.721-5.789,12.31-7.9l.038-.018c.651-.3,1.324-.609,1.97-.914,5.319-2.506,10.7-5.157,15.9-7.721,14.226-7.012,28.933-14.262,44.045-19.344,19.861-6.676,40.9-10.2,60.674-13.021,8.612-1.227,17.145-2.164,25.361-2.786C337.969.327,346.448,0,354.642,0c7.46,0,14.913.271,22.154.805,7.43.548,14.869,1.392,22.111,2.506,7.414,1.141,14.852,2.6,22.107,4.342,7.413,1.778,14.862,3.9,22.143,6.313a331.463,331.463,0,0,0,35.724,9.421c12.09,2.557,24.522,4.712,36.546,6.8,14.773,2.56,30.048,5.208,44.85,8.627a116.458,116.458,0,0,1,20.206,6.67,101.942,101.942,0,0,1,18.568,10.41c5.369,3.836,10.911,7.686,16.271,11.408l.007.005c11.178,7.763,22.737,15.791,33.556,24.271,5.828,4.567,10.971,8.889,15.722,13.212a193.786,193.786,0,0,1,14.386,14.456c19.922,22.344,36.876,42.639,51.83,62.043,8.509,11.042,16.549,22.039,23.9,32.686,7.857,11.386,15.218,22.8,21.879,33.928A304.913,304.913,0,0,1,797.3,289.275a292.166,292.166,0,0,1,20.911,89.5,308.284,308.284,0,0,1-.279,47.469,73.352,73.352,0,0,1-2.27,12.97,93.221,93.221,0,0,1-4.155,12.05,230.574,230.574,0,0,1-11.452,22.57c-3.463,6.244-7.043,12.7-10.033,19.31a38.712,38.712,0,0,1-2.534,4.48,29.76,29.76,0,0,0-3.041,5.752c-7.689,21.9-19.548,41.572-36.254,60.126A253.261,253.261,0,0,1,723.27,587.46c-8.126,6.874-17.232,13.874-27.84,21.4-6.91,4.9-13.636,10.359-20.141,15.635-8.889,7.21-18.081,14.666-27.844,20.789-16.2,10.162-34.534,18.962-56.048,26.9-18.308,6.757-36.962,12.246-59.339,18.41-15.991,4.4-32.454,7.954-48.375,11.386-13.692,2.952-27.847,6-41.649,9.586a347.255,347.255,0,0,0-40.924,13.079,159.184,159.184,0,0,1-30.589,8.7A175,175,0,0,1,339.791,736ZM57.763,235.226c-2.236,4.586-4.453,9.283-6.6,13.824l-.006.012c-4.741,10.045-9.643,20.43-15.07,30.29-17.71,32.157-19.545,62.825-5.609,93.757,3.825,8.491,6.668,17.621,9.417,26.451l0,.009c1.549,4.974,3.15,10.118,4.91,15.094,3.675,10.393,7.233,21.048,10.673,31.352,8.231,24.655,16.742,50.149,27.543,74.053,21,46.467,49.784,81.287,85.566,103.492a279.714,279.714,0,0,0,42.639,21.154c14.456,5.862,28.954,10.839,45.049,16.275,35.261,11.91,64.675,17.458,92.568,17.458,6.253,0,12.5-.29,18.584-.863,6.3-.593,12.609-1.508,18.761-2.718,10.022-1.972,20.293-3.6,30.224-5.169,15.25-2.413,31.015-4.909,46.208-8.711,20.427-5.113,40.584-10.471,59.91-15.924,20.234-5.71,40.218-11.711,59.4-17.837a202.68,202.68,0,0,0,30.02-12.395,277.153,277.153,0,0,0,27.8-16.274c17.954-11.853,35.191-25.646,51.86-38.985l.015-.012c4.712-3.771,9.585-7.67,14.4-11.464,19.044-15.014,24.454-31.23,17.539-52.581-3.133-9.677-3.844-20.368-4.531-30.706-.318-4.789-.648-9.739-1.213-14.526-.325-2.746-.764-5.488-1.274-8.663l-.006-.035c-.268-1.673-.546-3.4-.842-5.351-16.2,4.943-26.3,14.785-32.739,31.914-.808,2.149-1.645,4.383-2.383,6.354-5.8,15.5-11.8,31.525-19.037,46.61a39.883,39.883,0,0,1-7.174,9.835,27.21,27.21,0,0,1-4.4,3.7,7.6,7.6,0,0,1-3.875,1.469,2.964,2.964,0,0,1-.635-.066A29.441,29.441,0,0,1,633.844,530c-3.92-3.2-6.646-6.818-7.677-10.174-3.774-12.281-5.489-25.464-7.148-38.214l0-.027c-.576-4.427-1.172-9-1.845-13.475-.748-4.966-1.244-10.013-1.769-15.357-.25-2.543-.508-5.168-.808-7.937-17.561,8.564-25.913,18.16-28.828,33.121a268.439,268.439,0,0,1-12.156,42.372c-2.887,7.718-5.847,13.18-9.051,16.7-3.3,3.629-7.04,5.392-11.421,5.393-5.42,0-12.085-2.668-20.978-8.4-.744-.481-1.538-.9-2.636-1.474-.65-.341-1.384-.726-2.291-1.219-.534.928-.988,1.748-1.389,2.471l0,.006c-.763,1.376-1.366,2.462-2.058,3.48-1.142,1.678-2.435,3.87-3.685,5.99-2.778,4.712-5.65,9.583-7.278,9.583a.758.758,0,0,1-.194-.025,46.072,46.072,0,0,1-11.77-5.107,61.6,61.6,0,0,1-10.439-7.908,17.7,17.7,0,0,1-4.237-7.286,47.821,47.821,0,0,1-1.987-8.9c-2.128-15.682-3.859-31.69-5.534-47.17l0-.039c-.555-5.132-1.129-10.438-1.709-15.655-.413-3.732-.766-7.442-1.174-11.738V449l0-.029c-.2-2.1-.406-4.276-.64-6.662-17.147,6.237-25.034,18.212-31.6,34.275-1.167,2.854-2.346,5.762-3.487,8.574l-.033.081c-6.08,14.988-12.367,30.487-19.631,45.159-4.057,8.191-8.991,12.521-14.271,12.521a12.339,12.339,0,0,1-7.8-3.172,33.16,33.16,0,0,1-7.429-9.432c-1.793-3.18-3.519-6.467-5.518-10.273-1.043-1.986-2.12-4.037-3.358-6.364-1.176,2.914-2.148,5.619-3.006,8.005l0,.006c-1.785,4.968-3.194,8.891-5.467,12.3-.353.529-.709,1.069-1.086,1.641l-.021.031c-3.921,5.949-8.8,13.353-13.756,13.819-.15.014-.307.021-.464.021a9.277,9.277,0,0,1-4.215-1.255,23.852,23.852,0,0,1-4.5-3.2,30.17,30.17,0,0,1-6.995-8.894c-7.187-15.039-13.464-30.561-19.534-45.571l0-.005c-2.326-5.752-4.523-11.184-6.782-16.627-.04.152-.136.417-.269.784a26.484,26.484,0,0,0-1.709,7.109c-1.084,17.474-2.184,36.074-2.7,54.463-.135,4.838-.7,8.049-1.791,10.107a5.681,5.681,0,0,1-5.547,3.177,25.041,25.041,0,0,1-8.271-1.93,29.566,29.566,0,0,1-6.53-3.271,19.3,19.3,0,0,1-4.714-4.49,20.574,20.574,0,0,1-3.026-6.008,34.392,34.392,0,0,1-1.464-7.824c-1.352-16.5-3.825-33.183-6.217-49.314l0-.014c-.985-6.642-2-13.511-2.929-20.272l-.188,0c-2.335.024-4.439.047-6.54.072-.943,6.927-1.918,13.97-2.861,20.78l-.017.127c-2.195,15.851-4.465,32.241-6.5,48.392-.617,4.9-1.736,8.661-3.328,11.182-1.6,2.54-3.693,3.828-6.21,3.828-3,0-6.61-1.823-10.733-5.419-5.446-4.753-7.559-14.513-8.214-18.488-2.047-12.432-3.45-25.193-4.806-37.533V479.4l0-.039c-.539-4.906-1.1-9.979-1.688-14.961l-2.072-.171-2.2-.182c-1.348,3.126-2.692,6.3-3.992,9.378l0,.006c-3.121,7.379-6.349,15.01-9.819,22.365-3,6.356-6.055,12.457-10.413,17.227-1.46,1.6-4.52,1.692-7.479,1.784a35.207,35.207,0,0,0-3.942.266,36,36,0,0,0-.372-3.613c-.356-2.61-.725-5.308.234-7.274,1.313-2.688,2.638-5.433,3.919-8.088l.02-.042c6.874-14.24,13.982-28.966,22.668-42.278,3.248-4.978,9.007-8.332,14.577-11.576,2.53-1.474,5.146-3,7.492-4.653,2.483,4.006,4.965,8.012,7.165,11.562l3.614,5.833a100.157,100.157,0,0,0,7.759-7.641,103.061,103.061,0,0,1,9.466-9.181c3.6-2.9,6.654-4.3,9.342-4.3.241,0,.484.012.721.034,7.2.692,13.836,8.238,20.248,15.535,2.709,3.082,5.509,6.269,8.266,8.815.482-.882.984-2.074,1.566-3.456,1.6-3.793,3.786-8.987,7.529-12.2a53.445,53.445,0,0,1,10.883-7.3A27.71,27.71,0,0,1,327.01,432h.008c.8,0,1.728.69,2.757,2.052a28.572,28.572,0,0,1,2.884,5.067,70.141,70.141,0,0,1,4.364,12.651c2.455,10.714,4.431,21.733,6.342,32.389l0,.016c1.578,8.8,3.211,17.9,5.1,26.787.741,3.467,2.615,6.739,4.988,10.88,1.288,2.247,2.746,4.794,4.278,7.806,1.566-7.22,3.032-13.889,4.449-20.339l.01-.045c3.126-14.224,5.827-26.508,8.349-39,1.087-5.381,1.954-10.9,2.792-16.242.876-5.578,1.781-11.341,2.937-16.952a38.143,38.143,0,0,1,3.33-8.62c.609-1.263,1.238-2.57,1.786-3.87a46.478,46.478,0,0,0,4.6,2.363c3.518,1.65,7.156,3.357,7.871,5.891,1.791,6.357,1.625,13.428,1.464,20.266-.034,1.431-.069,2.91-.084,4.356q-.018,1.676-.039,3.353l0,.184c-.132,10.926-.269,22.225,1.062,33.053a95.044,95.044,0,0,0,3.278,16,73,73,0,0,0,6.575,15.381l2.716.849.177.055,2.132.667c6.935-16.379,14.017-33.1,20.865-49.264l.569-1.342.975-2.3c-2.41-1.383-4.572-2.6-6.479-3.673l-.009-.005,0,0c-3.752-2.111-6.715-3.779-9.64-5.612a23.455,23.455,0,0,1-5.232-4.484,26.567,26.567,0,0,1-3.786-5.733,32.562,32.562,0,0,1-3.215-13.607,33.025,33.025,0,0,1,2.711-13.98,27.27,27.27,0,0,1,3.625-6.012,24.008,24.008,0,0,1,5.146-4.8,20.645,20.645,0,0,1,11.531-3.963,14.8,14.8,0,0,1,9.849,3.71,21.568,21.568,0,0,1,6.269,10.656c.766,2.77,1.454,5.512,2.251,8.687.38,1.515.773,3.08,1.21,4.789,2.08-.952,4.059-1.882,5.973-2.782l.009,0c3.99-1.876,7.759-3.648,11.58-5.2,5.929-2.415,10.671-3.589,14.5-3.589a12.752,12.752,0,0,1,10.211,4.455c2.592,2.987,4.555,7.625,6,14.178,3.125,14.175,5.129,28.863,7.067,43.067,1,7.319,2.031,14.888,3.205,22.3.591,3.733,1.547,7.467,2.653,11.79l0,.014c.56,2.187,1.194,4.665,1.839,7.377a28.958,28.958,0,0,0,6.122-7.127,19.716,19.716,0,0,0,2.518-6.936c.743-4.578-.135-9.174-.984-13.62l-.069-.359c-3.308-17.356-4.049-32.424-2.265-46.067a96.434,96.434,0,0,1,5.466-21.9,93.365,93.365,0,0,1,11.245-20.87,40.749,40.749,0,0,1,8.87-9.54,15.478,15.478,0,0,1,9.244-3.205,18.766,18.766,0,0,1,6.932,1.449,40.122,40.122,0,0,1,7.908,4.368c7.269,4.992,13.679,11.222,20.467,17.817,3.082,2.994,6.268,6.091,9.609,9.137a139.338,139.338,0,0,1,13.331-5.994,28.338,28.338,0,0,1,9.435-2.127,9.072,9.072,0,0,1,5.854,1.869,13.946,13.946,0,0,1,3.994,5.887,53.9,53.9,0,0,1,2.749,10.326c.711,3.871,1.384,8.7,2.118,15.186,1.457,12.877,3.6,25.887,5.673,38.469l0,.016c.937,5.688,1.906,11.569,2.8,17.36l2.551.157,2.319.143c1.887-4.8,3.8-9.682,5.647-14.4l.022-.056c4.566-11.666,9.288-23.729,14.052-35.557,1.7-4.223,2.193-7.505,1.55-10.329a10.854,10.854,0,0,0-2.129-4.362,19.181,19.181,0,0,0-4.54-4.027,27.557,27.557,0,0,1-7.451-7.16,24.706,24.706,0,0,1-3.746-8.538,33.523,33.523,0,0,1-.709-9.546,55.28,55.28,0,0,1,1.662-10.184c1.222-4.837,3.315-8.583,6.222-11.132a15.967,15.967,0,0,1,10.871-3.846,24.684,24.684,0,0,1,4.307.4c5.928,1.055,10.285,3.3,12.948,6.664,2.913,3.682,3.825,8.751,2.71,15.065a38.151,38.151,0,0,0-.224,8.235c.058,1.357.118,2.759.118,4.19,6.156-1.449,10.918-2.437,14.986-3.11a72.059,72.059,0,0,1,11.583-1.122c8.788,0,14.284,2.7,18.378,9.04a49,49,0,0,1,5.346,12.545c1.436,4.769,2.823,10.629,4.5,19,1.015,5.08,2.056,10.135,3.261,15.989l.027.13.07.339c.62,3.012,1.261,6.127,1.971,9.594,3.719-6.57,7.206-12.868,10.578-18.959l.016-.028c7.183-12.975,13.967-25.23,21.276-36.964a111.046,111.046,0,0,0,8.378-16.212,97.224,97.224,0,0,0,5.243-16.815,94.676,94.676,0,0,0,2.042-17.478,103.26,103.26,0,0,0-1.227-18.2q-.219-1.407-.434-2.82c-1.313-8.569-2.67-17.426-5.413-25.636-1.7-5.1-3.363-10.34-4.969-15.407l-.013-.04c-2.755-8.7-5.6-17.691-8.782-26.337a195.742,195.742,0,0,0-11.022-25.086c-11.849-22.088-27.89-42.244-43.4-61.737l-.58-.729c-2.663-3.347-5.351-6.743-7.95-10.026-9.184-11.6-18.68-23.6-28.367-35.063-10.872-12.862-20.81-23.636-30.382-32.937-13.7-13.313-27.354-23.063-41.747-29.806A117.414,117.414,0,0,0,587.429,95.4a120.928,120.928,0,0,0-26.54-2.893c-2.99,0-6.057.105-9.116.312-8.215.557-16.375.839-24.255.839-8.951,0-17.81-.364-26.33-1.082-8.913-.752-17.713-1.912-26.154-3.45a246.252,246.252,0,0,1-25.759-6.12,225.77,225.77,0,0,1-25.146-9.094,184.374,184.374,0,0,0-74.447-15.33c-2.026,0-4.092.031-6.143.092-10.066.3-20.3.5-30.206.705h-.017c-13.746.278-27.96.565-41.932,1.1-27,1.035-50.5,10.019-67.946,25.98-23.677,21.662-46.775,44.813-69.113,67.2-14.856,14.89-30.215,30.284-45.606,45.1-10.2,9.817-7.207,18.884-4.041,28.483.493,1.5,1,3.042,1.462,4.591a187.232,187.232,0,0,0,11.483-20.95l.013-.026c.786-1.6,1.6-3.245,2.41-4.859A30.173,30.173,0,0,1,109,194.927a20.465,20.465,0,0,1,12.28-4.032,24.519,24.519,0,0,1,5.825.731,19.5,19.5,0,0,1,12.329,8.809c2.506,4.009,4.012,9.277,4.477,15.659.6,8.239,1.583,16.345,2.722,25.73.534,4.4,1.087,8.954,1.65,13.945,1.624-6.081,3.016-11.763,4.362-17.257,2.886-11.778,5.377-21.947,9.088-31.825a21.526,21.526,0,0,1,7.2-9.888,17.037,17.037,0,0,1,10.157-3.373c5.527,0,10.862,2.638,15.023,7.429a35.77,35.77,0,0,1,5.576,9.057,48.874,48.874,0,0,1,3.222,10.357c4.509,23.545,8.545,47,12.818,71.828l.029.167c1.531,8.9,3.114,18.093,4.735,27.385.884-1.639,1.674-2.958,2.31-4.018a16.548,16.548,0,0,0,2.2-4.521c1.222-5.225,2.484-10.6,3.6-15.335,5.742-24.448,11.68-49.729,16.969-74.717a23.342,23.342,0,0,1,3.982-9.613,9.3,9.3,0,0,1,7.579-3.8,12.578,12.578,0,0,1,2.274.218c2.021.374,4.457,2.063,6.682,4.634a17.7,17.7,0,0,1,4.12,7.656c2.277,12.343,3.966,25.014,5.6,37.268,1.166,8.75,2.372,17.8,3.783,26.653a149.254,149.254,0,0,0,4.4,17.914c.768,2.649,1.562,5.386,2.272,8.092l3.888-.966c1.286-4.642,2.545-9.378,3.762-13.959l.007-.027c2.859-10.762,5.816-21.89,9.355-32.619a32.8,32.8,0,0,0,1.759-14.523c-.52-4.37-2.072-8.907-4.885-14.28-1.989-3.8-3.042-8.933-3.045-14.849a59.294,59.294,0,0,1,2.235-15.83c.687-2.412,4.518-4.174,7.612-5.228a56.129,56.129,0,0,1,11.943-2.518c.767-.074,1.513-.112,2.216-.112a13.1,13.1,0,0,1,6.352,1.409,10.41,10.41,0,0,1,3.887,3.714c1.952,3.074,2.822,7.24,3.664,11.27.4,1.905.809,3.875,1.33,5.7l.05.175c1.268,4.467,3,10.583,6.311,12.327a44.03,44.03,0,0,1,8.956,6.182,39.606,39.606,0,0,1,6.6,7.7c3.5,5.338,5.94,11.749,7.446,19.6,1.234,6.436,2.9,12.9,4.5,19.147.72,2.8,1.463,5.689,2.159,8.539a51.927,51.927,0,0,0,1.969-18.086,98.152,98.152,0,0,1,1.27-19.911,94,94,0,0,1,5.088-18.39,102.636,102.636,0,0,1,8.558-16.986,124.294,124.294,0,0,1,11.679-15.7,34.519,34.519,0,0,1,7.851-7,14.29,14.29,0,0,1,7.535-2.31c4.88,0,9.9,2.857,15.787,8.99,2.82,2.935,4.841,4.424,6.009,4.424a1.062,1.062,0,0,0,.382-.066,25.875,25.875,0,0,1,9.236-1.869c4.919,0,9.48,1.773,13.941,5.42,4.037,3.3,7.586,7.784,10.876,12.094,10.207-8.028,18.362-11.93,24.931-11.93a14.238,14.238,0,0,1,6.884,1.7,18,18,0,0,1,5.7,5.137c3.4,4.541,6.11,11.331,8.278,20.757,2.034,8.845,2.841,18.143,3.622,27.135.433,4.987.881,10.144,1.534,15.172,1.157,8.918,2.523,17.965,3.97,27.542.687,4.551,1.4,9.258,2.135,14.263,14.75-14.866,17.356-31.64,19.877-47.862.623-4.013,1.268-8.162,2.089-12.154.45-2.184-1.9-5.753-3.783-7.35a21.969,21.969,0,0,1-5.323-6.481,22.2,22.2,0,0,1-2.321-7.174c-.768-4.97-.211-10.154.378-15.643l.059-.553c.573-5.342,2.288-9.147,5.244-11.63,2.781-2.337,6.716-3.533,12.029-3.658.218-.005.437-.008.649-.008,4.536,0,7.862,1.155,10.168,3.532,2.166,2.233,3.485,5.619,4.031,10.353a85.72,85.72,0,0,0,2.147,10.53l0,.007c.443,1.8.9,3.658,1.344,5.655,2.756-1.87,5.4-3.729,7.956-5.527,5.676-3.991,11.037-7.761,16.692-11.014,4.191-2.409,7.992-3.63,11.3-3.63,4.8,0,8.494,2.591,10.966,7.7,2.6,5.383,5.339,11.192,7.7,17.194a100.153,100.153,0,0,1,5.363,17.9c4.5,23.713,7.3,46.927,10.493,74.811.489,4.278-2.088,12.409-4.675,13.074a13.051,13.051,0,0,1-3.247.381A21.268,21.268,0,0,1,626.7,345.82c-3.256-2.451-5.076-8.493-5.388-13.071-.744-10.9-1.24-22.006-1.72-32.744v-.032c-.51-11.416-1.038-23.22-1.863-34.808-.542-7.619-1.81-15.055-3.277-23.666-.707-4.147-1.438-8.435-2.146-13.094-3.789,2.891-7.13,5.507-10.362,8.038l-.005,0c-6.538,5.12-12.182,9.539-18.046,13.439a40.75,40.75,0,0,0-10.291,9.322,37.1,37.1,0,0,0-6.175,13.092c-5.67,21.158-12.163,38.982-19.849,54.491-1.444,2.914-4.616,5.964-8.7,8.369-4.037,2.376-8.282,3.738-11.647,3.739-.343,0-.679-.015-1-.043-2.822-.252-6.374-2.461-9.745-6.06a28.416,28.416,0,0,1-6.64-10.953c-4.87-17.707-8-36.242-11.028-54.167l-.014-.081c-.5-2.965-1.019-6.031-1.536-9.041-1.138-6.614-1.691-13.466-2.277-20.72v-.015c-.287-3.555-.584-7.232-.966-11.136-6.008,3.934-10.217,7.724-13.245,11.927a39.368,39.368,0,0,0-6.307,14.907c-2.258,10.094-5.049,22.028-8.63,34a219.82,219.82,0,0,1-12.293,32.506,29.451,29.451,0,0,1-12.98,13.125,37.691,37.691,0,0,1-8.921,3.339,41.435,41.435,0,0,1-9.609,1.124,39.351,39.351,0,0,1-13.35-2.268,32.1,32.1,0,0,1-11.374-6.9q-.614-.584-1.211-1.156l0,0a58.008,58.008,0,0,0-8.526-7.212,18.066,18.066,0,0,0-10.052-3.005,24.565,24.565,0,0,0-4.96.544,2.983,2.983,0,0,1-.6.059c-1.786,0-4.339-1.371-7-3.763a22.386,22.386,0,0,1-5.569-7.285,281.347,281.347,0,0,1-9.047-27.318c-1.4-4.764-2.845-9.69-4.4-14.484-1.476-4.553-3.28-9.078-5.025-13.454l0-.012c-.792-1.987-1.611-4.041-2.389-6.071l-2.343-.021h-.016l-.664-.006-1.852-.017c-1.138,3.034-2.331,6.107-3.485,9.079l0,0,0,0c-2.558,6.592-5.2,13.408-7.428,20.242-2.3,7.079-4.5,14.328-6.618,21.338-3.581,11.836-7.283,24.071-11.623,35.832-1.991,5.394-8.619,12.622-12.671,12.622-.095,0-.188,0-.279-.012-2.639-.226-5.676-1.64-8.782-4.087a36.742,36.742,0,0,1-7.281-7.791c-3.2-4.639-4.745-10.63-6.239-16.424l0-.007c-.356-1.38-.724-2.807-1.106-4.18-2.6-9.327-4.968-18.585-7.714-29.305-1.2-4.682-2.44-9.524-3.8-14.755q-3.151,11.018-6.03,21.254l0,.014,0,.007c-5.035,17.823-9.79,34.658-14.911,51.106a37.689,37.689,0,0,1-4.012,8.524c-1.93,3-3.781,4.665-5.213,4.683h-.155a19.375,19.375,0,0,1-8.764-2.564,54.773,54.773,0,0,1-8.2-5.478c-2.445-1.918-4.382-5.812-5.758-11.572-6-25.1-10.628-45.593-14.565-64.491-1.766-8.484-3.086-17.214-4.362-25.656-.573-3.792-1.166-7.713-1.793-11.571-3.124,4.345-4.269,8.864-5.376,13.234-.525,2.072-1.021,4.03-1.714,5.956-10.493,29.172-15.3,60.706-14.7,96.4.063,3.691-1.871,10.5-3.963,10.952a12.118,12.118,0,0,1-2.558.244,19.024,19.024,0,0,1-5.887-.955c-1.969-.67-3.345-1.608-3.875-2.642-4.078-7.971-9-18.529-10.842-29.511-3.6-21.4-6.54-43.282-9.387-64.445l-.008-.062c-1.111-8.258-2.259-16.8-3.431-25.188-3.871,2.044-5.737,4.042-6.05,6.479-1.384,10.7-2.731,21.587-4.035,32.113v.006c-2.565,20.719-5.218,42.144-8.265,63.147-.625,4.32-3,8.443-5.3,12.43-1.06,1.837-2.155,3.737-3.066,5.633-1.915-1.531-4.037-2.978-6.089-4.378-4.733-3.228-9.628-6.565-12.318-11.167a14.924,14.924,0,0,1-1.761-6.2,62.707,62.707,0,0,1-.1-7.23,57.123,57.123,0,0,0-.193-8.247C71.4,298.5,68.706,278.053,66.1,258.28v-.006c-.99-7.5-2.014-15.262-3.013-22.894l-2.66-.077h-.012Zm494.846,199.8a66.015,66.015,0,0,0-12.166,37.66,85.882,85.882,0,0,0,2.182,20.666,108.734,108.734,0,0,0,7.112,20.907C571.432,480.7,572.318,456.268,552.609,435.026ZM435.549,423.02a83.729,83.729,0,0,0-6.008,6.637A26.787,26.787,0,0,0,425.271,437a18.358,18.358,0,0,0-.966,8.739,29.332,29.332,0,0,0,3.9,10.812C440.51,445.585,438.7,434.432,435.549,423.02ZM420.481,220.986c-.847,1.313-1.711,2.636-2.546,3.915-3.249,4.975-6.317,9.673-8.952,14.561a58.493,58.493,0,0,0-5.935,15.061c-4.266,18.992-9.575,42.629,8.042,62.355,4.953,5.544,9.53,8.355,13.6,8.355,4.194,0,7.879-2.993,10.954-8.9,6.522-12.522,11.515-26.029,16.8-40.328l.006-.017c2.372-6.417,4.825-13.053,7.523-19.9a51.5,51.5,0,0,1-16.206-3.717,33.591,33.591,0,0,1-11.1-7.542,40.471,40.471,0,0,1-7.319-10.689A80.766,80.766,0,0,1,420.481,220.986Zm26.855-2.683-3.673,1.218-3.673,1.218c.4,1.389.793,2.795,1.174,4.154,1.321,4.723,2.687,9.607,4.467,14.233.046.119.254.178.634.178a28.12,28.12,0,0,0,3.885-.567c.991-.184,2.016-.375,2.825-.48q-1.478-5.235-2.958-10.469-1.34-4.742-2.679-9.483Z" transform="translate(82 139)" fill="#fff"/>
  <path id="Fill_4" data-name="Fill 4" d="M29.962,21.113c-.513,6.75-.3,16.355-12.943,15.87C6.824,36.593.393,27.36.02,16.031-.381,3.929,5.182-.452,16.159.036c10.134.451,14.29,6.163,13.8,21.076" transform="translate(683 517)" fill="#fff"/>
  <path id="Fill_6" data-name="Fill 6" d="M8.571,0C22.3,2.29,33.763,2.3,32.96,17.988,32.514,26.652,28.587,38.15,20.246,34.2,11.606,30.111,5.981,18.315.024,9.161-.466,8.408,6.6,2.069,8.571,0" transform="translate(450 504)" fill="#fff"/>
  <path id="Fill_8" data-name="Fill 8" d="M0,1.577C14.879-3.839,35.793,5.621,37.75,15.9c.8,4.222-.365,11.4-3.052,13.2C31.251,31.4,23.4,31.8,20.914,29.244,13.466,21.593,7.7,12.1,0,1.577" transform="translate(552 284)" fill="#fff"/>
  <path id="Fill_10" data-name="Fill 10" d="M11.014,0C21.958,4,33.283,2.761,31.882,16.433,31.349,21.626,23.968,30.159,19.964,30,10.312,29.611.1,24.59,0,12.049-.031,8.065,7.14,4.017,11.014,0" transform="translate(323 273)" fill="#fff"/>
</svg>
