<svg id="channel_logo" xmlns="http://www.w3.org/2000/svg" xmlns:xlink="http://www.w3.org/1999/xlink" width="2108" height="2112.216" viewBox="0 0 2108 2112.216">
  <defs>
    <clipPath id="clip-path">
      <path id="Fill_1" data-name="Fill 1" d="M2021.637,1466.532c-3.929,48.834-30.959,87.946-52.831,128.944-45.622,85.522-114.664,152.622-175.273,226-38.837,47.025-90.521,81.4-146.58,107.412-46.456,21.553-92.5,44.037-138.3,66.97-92.109,46.129-192.661,62.11-292.785,78.883-70.073,11.736-141.433,18.008-212.439,10.911-93.749-9.371-188.7-14.7-277.1-56.756-47.911-22.791-99.387-38.583-145.037-65.208-73.532-42.89-153.812-75.469-215.307-138.329-8.146-8.324-18.617-12.294-28.75-16.983-19.588-9.066-36.17-21.34-45.986-41.893-3.735-7.822-8.345-16.291-14.822-21.556-33.493-27.219-52-66.81-79.594-99.011-22.042-25.727-34.749-60.585-48.184-92.806-24.6-59.009-52.637-116.061-83.161-172.247-21.535-39.641-31.458-84.325-38.3-128.769C17.321,1188.082,4.139,1123.788,2.57,1059.57,1.053,997.564-6.595,934.582,14.776,872.608a396.942,396.942,0,0,0,20.083-96.456c3.812-47.356,29.456-88.726,50.983-130.268,5.056-9.764,12.872-18.443,15.167-29.383,8.211-39.121,23-75.241,40.622-110.782,24.01-48.423,34.735-78.383,69.2-126.5s59.428-76.623,99.77-118.1,70.736-48.442,107.911-75.853c46.593-34.358,86.868-65.156,142.625-86.711C620.2,75.716,682.9,38.075,743.942,28.2,824.791,15.139,907.521,0,989.317,0c38.011,0,75.838,6.087,113.651,10.394,75.52,8.6,150.586,20.03,222.026,49.668,4.564,1.895,9.7,5.019,14.042,4.366,53.209-8,92.622,29.5,138.19,46.147,46.57,17.009,88.792,42.352,127.92,74.688,21.04,17.388,43.737,34.757,73.453,40.85,22.219,4.558,36.039,28.526,52.367,45.048,31.079,31.45,51.951,70.511,74.552,108.056,57.526,95.564,105.875,195.946,155.386,295.829,33.659,67.9,62.545,136.893,79.078,210.6,12.066,53.783,20.314,108.2,16.8,163.488-2.554,40.223,8.274,79.495,11.357,119.375,3.963,51.264,6.406,101.644-7.38,151.779-8.128,29.564-4.877,62.344-21.3,87.713C2031.035,1428.083,2023.283,1446.044,2021.637,1466.532Z" transform="translate(0 0)" fill="#a02c49"/>
    </clipPath>
  </defs>
  <rect id="_logo_main_background" data-name="🔵 logo/main background" width="2108" height="2108" fill="none"/>
  <g id="Page_1" data-name="Page 1" transform="translate(0 23.568)">
    <path id="Fill_1-2" data-name="Fill 1" d="M2021.637,1466.532c-3.929,48.834-30.959,87.946-52.831,128.944-45.622,85.522-114.664,152.622-175.273,226-38.837,47.025-90.521,81.4-146.58,107.412-46.456,21.553-92.5,44.037-138.3,66.97-92.109,46.129-192.661,62.11-292.785,78.883-70.073,11.736-141.433,18.008-212.439,10.911-93.749-9.371-188.7-14.7-277.1-56.756-47.911-22.791-99.387-38.583-145.037-65.208-73.532-42.89-153.812-75.469-215.307-138.329-8.146-8.324-18.617-12.294-28.75-16.983-19.588-9.066-36.17-21.34-45.986-41.893-3.735-7.822-8.345-16.291-14.822-21.556-33.493-27.219-52-66.81-79.594-99.011-22.042-25.727-34.749-60.585-48.184-92.806-24.6-59.009-52.637-116.061-83.161-172.247-21.535-39.641-31.458-84.325-38.3-128.769C17.321,1188.082,4.139,1123.788,2.57,1059.57,1.053,997.564-6.595,934.582,14.776,872.608a396.942,396.942,0,0,0,20.083-96.456c3.812-47.356,29.456-88.726,50.983-130.268,5.056-9.764,12.872-18.443,15.167-29.383,8.211-39.121,23-75.241,40.622-110.782,24.01-48.423,34.735-78.383,69.2-126.5s59.428-76.623,99.77-118.1,70.736-48.442,107.911-75.853c46.593-34.358,86.868-65.156,142.625-86.711C620.2,75.716,682.9,38.075,743.942,28.2,824.791,15.139,907.521,0,989.317,0c38.011,0,75.838,6.087,113.651,10.394,75.52,8.6,150.586,20.03,222.026,49.668,4.564,1.895,9.7,5.019,14.042,4.366,53.209-8,92.622,29.5,138.19,46.147,46.57,17.009,88.792,42.352,127.92,74.688,21.04,17.388,43.737,34.757,73.453,40.85,22.219,4.558,36.039,28.526,52.367,45.048,31.079,31.45,51.951,70.511,74.552,108.056,57.526,95.564,105.875,195.946,155.386,295.829,33.659,67.9,62.545,136.893,79.078,210.6,12.066,53.783,20.314,108.2,16.8,163.488-2.554,40.223,8.274,79.495,11.357,119.375,3.963,51.264,6.406,101.644-7.38,151.779-8.128,29.564-4.877,62.344-21.3,87.713C2031.035,1428.083,2023.283,1446.044,2021.637,1466.532Z" transform="translate(0 0)" fill="#a02c49"/>
    <g id="Page_1-2" data-name="Page 1" transform="translate(0 0)" clip-path="url(#clip-path)">
      <g id="_color_main_bordeau" data-name="🌈 color/main/bordeau" transform="translate(-73.78 -1553.976)">
        <rect id="_color_main_bordeau_background" data-name="🎨 color/main/bordeau background" width="2221.832" height="4125.356" fill="none"/>
        <g id="_color" data-name="🎨 color">
          <rect id="_color-2" data-name="🎨 color" width="2221.832" height="4125.356" fill="#a02c49"/>
          <rect id="_color-3" data-name="🎨 color" width="2221.832" height="4125.356" fill="none" style="mix-blend-mode: multiply;isolation: isolate"/>
        </g>
      </g>
      <g id="Group" transform="translate(288.401 227.152)">
        <path id="Fill_3" data-name="Fill 3" d="M243.223,136.712c-3.041,3.4-7.417,4.853-12.379,6.241-6.966,1.949-13.289,5.969-19.923,9.027a20.965,20.965,0,0,1-3.691.965c-5.3,1.328-10.737,2.3-15.853,4.094a53.116,53.116,0,0,0-10.79,5.8c-1.115.718-1.761,2.483-2.057,3.88a45.007,45.007,0,0,0-1.023,8.125c-.136,5.043.133,10.1-.024,15.142-.08,2.546-.854,5.067-1.091,7.616-.584,6.343-1.168,12.689-1.512,19.046-.436,7.976-.5,15.972-.975,23.946-.356,5.917-1.266,11.807-1.633,17.726-.169,2.711.6,5.463.551,8.194-.1,6.72.353,13.569-.889,20.113s.836,13.181-1.355,19.541c-1.725,5-3.664,9.937-5.457,14.916a32.836,32.836,0,0,0-1.1,3.926c-.812,3.607.708,8.062-4.343,10.138-.628.258-.563,1.969-.892,2.986-.768,2.365-1.648,4.7-2.345,7.08a5.2,5.2,0,0,0-.293,3.14c2.117,5.023,1.547,7.611-3.012,10.479-1.986,1.251-2.858,2.059-1.4,4.528,1.571,2.67,2.294,5.843,3.074,8.87.889,3.451,1.989,6.954-3.442,8.477-1.7.476-2.97,2.791-4.129,4.454-2.025,2.915-3.815,5.975-5.119,8.048-3.092-.019-5.149-.036-7.206-.041-.288,0-.649.181-.851.072-6.376-3.511-14.205-.069-20.416-3.671a139.933,139.933,0,0,1-17.736-11.633C80.2,365.262,72.233,348.539,69.253,329.4c-1.055-6.789-2.644-13.519-3.332-20.338-.863-8.515-1.038-17.094-1.521-25.642-.293-5.2-1.085-10.421-.824-15.6,1.162-23.041,2.294-46.1,4.115-69.1.928-11.724,3.332-23.338,4.9-35.024a3.528,3.528,0,0,0-1.684-2.967c-6.981-2.4-14.137-4.355-21.083-6.838a69.689,69.689,0,0,1-11.107-5.351c-8.629-4.96-17.261-9.934-25.624-15.285C8.448,130.289,4.346,126.547,0,123.148l.418-1.867q3.406-.355,6.815-.712c.993-.1,2-.143,2.973-.319,9.287-1.683,18.527-3.66,27.865-5,6.391-.916,12.776-3.321,19.464-.709,1.426.558,3.59-.894,5.419-.913,5.315-.06,10.639.3,15.945.1a4.362,4.362,0,0,0,3.068-2.744C86.6,86.91,91.05,62.8,95.574,38.694c1.541-8.218,3.37-16.4,4.684-24.647.376-2.365-.593-4.924-.9-7.042a46.338,46.338,0,0,1,7.455-1.237c1.541-.019,3.2.9,4.624,1.685,3.489,1.927,5.312,1.523,7.171-1.834,2.034-3.673,4.853-4.57,9.533-3.6,1.8.371,3.818-.135,5.727-.324,5.075-.5,10.144-1.042,15.216-1.567a13.885,13.885,0,0,1,9.323,1.848c6.044,3.7,12.5,6.805,18.868,10.011,2.176,1.092,2.256,2.2,1.506,4.311a33.8,33.8,0,0,0-1.782,8.8c-.522,7.141-1.029,14.306-.969,21.457.044,4.922,1.043,9.838,1.633,14.751.05.407.445.874.323,1.182-2,5.021,1.038,9.9.332,14.963-.753,5.411-.631,10.932-.869,16.406-.148,3.357,2.019,3.83,4.847,3.492,8.609-1.031,17.205-2.158,25.831-3.038,26.875-2.739,53.779-3.778,80.474,1.237a286.078,286.078,0,0,1,32.06,8.166c4.725,1.468,8.786,4.869,13.159,7.38,1.473.847,2.947,1.7,4.473,2.453,2.834,1.4,3.394,4.614,1.177,7.064-5.357,5.923-7.479,6.492-15.219,4.141a3.661,3.661,0,0,0-2.051-.294c-8.783,3.514-17.508,1.015-26.3.047-2.526-.278-6.139-.124-7.645,1.336-4.678,4.548-10.4,2.458-15.625,3.283-4.5.709-9.021,1.306-13.515,2.057a2.314,2.314,0,0,0-1.595,1.246c-1.239,4.572-6.252,3.442-9.2,5.444-.848.577-3.041-.641-5.111-1.158" transform="translate(0 865.203)" fill="#e9f1f4"/>
        <path id="Fill_5" data-name="Fill 5" d="M205.556,235.964a9.826,9.826,0,0,1-1.983-.283c-.334-.071-.678-.144-1.011-.2-.773-.123-1.577-.329-2.354-.528a15.509,15.509,0,0,0-3.686-.642,5.22,5.22,0,0,0-1.194.128,20.98,20.98,0,0,1-4.782.6,15.588,15.588,0,0,1-7.61-2,46.067,46.067,0,0,0-8.154-3.158c-1.041-.329-2.113-.668-3.151-1.027-13.5-4.666-25.115-12.789-34.946-20.036a83.109,83.109,0,0,1-8.162-6.729,4.517,4.517,0,0,0-3.109-1.472,6.306,6.306,0,0,0-3.626,1.524c-1.6,1.146-3.245,2.274-4.84,3.364-2.7,1.847-5.494,3.757-8.106,5.809a23.02,23.02,0,0,0-3.466,3.69c-.659.813-1.341,1.654-2.07,2.414l-.222.231a14.566,14.566,0,0,1-3.831,3.192,17.916,17.916,0,0,1-2.838,1.006c-2.212.648-4.5,1.318-5.76,3.866-.186.38-1.086.447-1.88.506-.168.012-.33.024-.476.039-5.48.539-10.427,1.017-15.468,1.417-.165.013-.334.02-.5.02a5.579,5.579,0,0,1-2.387-.494c-5.186-2.543-10.838-2.749-16.3-2.949-1.539-.056-3.129-.114-4.673-.225C30.06,222.676,17.35,212.79,10.1,193.809c-3.708-9.717-5.731-20.718-6.183-33.632-.253-7.2-.541-15.357-3.813-22.823a2.482,2.482,0,0,1-.092-1.114c.012-.23.025-.491.018-.772l1.5.089c.775.046,1.5.09,2.211.131a31.775,31.775,0,0,0,1.01-7.849c.218-4.844.444-9.854,4.773-13.845-3.726-2.917-2.235-6.592-.919-9.835q.153-.377.3-.745c1.511-3.811,3.023-7.7,4.486-11.456,5.06-13,10.289-26.436,16.389-39.193,3.172-6.627,7.562-12.8,11.807-18.777,2.212-3.112,4.5-6.33,6.59-9.577a11.371,11.371,0,0,0,1.262-3.628c.158-.695.322-1.413.546-2.084.07-.208.136-.421.2-.635a7.284,7.284,0,0,1,1.229-2.653c2.842-3.212,5.855-6.339,8.949-9.526.167-.172.33-.347.5-.533a6.572,6.572,0,0,1,2.686-2.08c1.3-.356,2.595-.783,3.844-1.2A30.879,30.879,0,0,1,77.151,0,17.1,17.1,0,0,1,81.38.528a28.193,28.193,0,0,0,6.9.749c2.584,0,5.261-.231,7.849-.455,1.5-.13,3.054-.264,4.56-.35,2.589-.148,4.924-.221,7.138-.221a65.077,65.077,0,0,1,20.753,2.972,57.718,57.718,0,0,0,7.322,1.706,50.606,50.606,0,0,1,8.224,2.023,23.177,23.177,0,0,1,11.542,8.766,27.816,27.816,0,0,1,4.307,13.954c.192,3.109,1.567,5.057,4.745,6.722a100.525,100.525,0,0,1,9.239,5.742q.7.469,1.394.936a3.978,3.978,0,0,1,1.694,2.33c.444,3.063.617,6.154.717,8.505.121,2.85,1.348,4.975,2.77,7.436l.231.4c.491.853,1.029,1.715,1.549,2.548,2.331,3.732,4.74,7.591,4.332,12.692-.133,1.679,1.17,3.5,2.431,5.264a27.39,27.39,0,0,1,1.607,2.419,9.342,9.342,0,0,0,.549.829,4.06,4.06,0,0,1,.857,1.681c.89,6.657,3.83,12.605,6.672,18.357.968,1.959,1.969,3.985,2.877,6.012,1.512,3.377,2.73,6.954,3.907,10.414.508,1.492,1.033,3.035,1.574,4.54.11.3.2.619.287.925.1.348.2.707.333,1.048.763,1.981,1.55,3.992,2.31,5.937l.011.029c1.629,4.167,3.312,8.471,4.873,12.738.7,1.92,1.265,3.93,1.808,5.873.337,1.207.685,2.454,1.065,3.67.281.9.549,1.81.809,2.695a54.225,54.225,0,0,0,2.612,7.516,106.881,106.881,0,0,0,7.035,12.668,4.607,4.607,0,0,0,3.392,1.414,2.839,2.839,0,0,0,.616-.061c10.264-2.3,18.626-6.579,25.565-13.07a7.713,7.713,0,0,1,2.35-1.276c.578-.242,1.234-.517,1.991-.885a15.568,15.568,0,0,0-.672,4.69c-.117,3.05-.218,5.683-4.27,6.8.464.769.853,1.417,1.224,2.035l.041.069.531.885c-5.254,1.923-4.544,6.788-4.075,10.007l0,.013c.024.167.048.33.07.486.577,4.131-1.193,7.029-2.905,9.832a26.752,26.752,0,0,0-2.206,4.141c-1.285,3.3-3.815,4.919-6.494,6.637-.616.4-1.254.8-1.876,1.235a35.509,35.509,0,0,0-6.768,6.879c-.671.817-1.365,1.662-2.064,2.464-3.07,3.527-6.15,5.17-9.692,5.17a12.864,12.864,0,0,1-2.863-.34,4.767,4.767,0,0,0-1.05-.135,1.485,1.485,0,0,0-1.323.553,2.778,2.778,0,0,0,.165,2.478,15.246,15.246,0,0,1,.676,2.435c.1.462.209.94.343,1.47q-1.933.368-3.741.725c-3.148.616-6.118,1.2-9.1,1.665A3.7,3.7,0,0,1,205.556,235.964ZM96.029,72.289h0c-10.684,14.866-15.47,27.512-20.538,40.9-2.449,6.471-4.982,13.163-8.258,20.226.551.221,1.93,2.14,3.264,4s2.7,3.758,3.248,3.979c2.3-3.261,4.575-6.616,6.773-9.861,4.947-7.3,10.063-14.856,15.853-21.83,10.017-12.072,7.3-23.264-.342-37.411Z" transform="translate(209.746 1022.512)" fill="#e9f1f4"/>
        <path id="Fill_7" data-name="Fill 7" d="M259.637,123.8c-2.034-2.184-4.187-4.26-6.076-6.58-2.109-2.589-5.356-2.478-9.946.922a21.03,21.03,0,0,0-3.435-2.766c-.792-.418-2.388-.507-2.872.028-4.7,5.181-9.786,7.313-16.529,4.309-1.709-.764-4.358.888-6.577,1.408-2.907.677-5.817,1.336-8.73,2-.4.093-.911.353-1.207.192-5.605-3.032-9.827.247-14.2,3.294-.563.393-2.043-.207-2.829-.773-2.315-1.661-4.172-2.914-6.734.1-1.166,1.373-3.949,1.046-5.855,1.872-2.13.925-3.891,1.915-5.959-.43-.476-.538-2.756.73-5.051,1.423-1.488-1.377-3.717-1.85-4.947,2.3-5.7-.934-11.289-1.568-16.744-2.861-2.823-.668-5.4-2.524-8.095-3.811-2.588-1.234-5.162-2.518-7.808-3.595a20.128,20.128,0,0,0-4.77-1.253c-1.793-.247-3.65,0-5.434-.285-5.9-.931-11.861,2.766-17.733-.285-.438-.226-1.227-.377-1.523-.127-5.1,4.356-11.292.346-16.793,2.354-.931.34-3.824-2.66-4.4-4.594-1.007-3.4-2.948-3.966-5.623-3.759-3.017.235-6.029.613-9.044.931.241-.538.479-1.077.72-1.615-2.739-2.793-5.368-5.729-8.252-8.337-2.652-2.4-5.951-4.074-8.292-6.741-2.91-3.316-5.185-7.282-7.636-11.044-2.353-3.61-4.01-8.018-7.021-10.777s-7.216-5.086-11.109-5.546c-6.833-.807-8.173-1.661-10.468-8.491C6.189,53.886,2.823,46.854,0,40.04c8.678-1.967,18.256-1.339,27.412-4.751,10.529-3.922,21.389-1.513,32.023-5.129,3.029-1.03,5.527-9.4,9.189-7.5.337.173,1.068-.254,1.494-.585,8.571-6.62,18.8-8.408,28.747-9.871,22.257-3.267,44.635-5.652,66.993-8.1,14.2-1.556,28.437-2.926,42.688-3.74A160.091,160.091,0,0,1,236,.837c6.279.727,11.26,5.154,14.568,11.282,1.085,2.008,2.835,3.591,4.045,5.537,7.724,12.442,15.772,24.685,22.88,37.52,3.148,5.68,4.811,12.463,6.293,18.969,1.375,6.041,1.613,12.377,2.353,18.582.052.439-.044.974.16,1.3,2.516,4.055,3.751,7.539-2.011,9.976-1.187.5-1.221,3.7-2.127,5.448-1.944,3.749-4.108,7.365-6.183,11.037q-8.169,1.657-16.338,3.31" transform="translate(1048.73 655.457)" fill="#e9f1f4"/>
        <path id="Fill_9" data-name="Fill 9" d="M100.145,786.547l0,0c-1.445-1.4-2.76-2.664-4.183-4.036l-2.43-2.343c-.659,1.6-1.217,2.965-1.775,4.327l-.038.093-.692,1.689a1.064,1.064,0,0,0-.632-.144c-.108,0-.22,0-.338.01h-.021c-.112.005-.251.012-.386.012a1.423,1.423,0,0,1-1.122-.383,2.873,2.873,0,0,1-.362-2.186,1.231,1.231,0,0,0-.337-.98,4.355,4.355,0,0,0-3.1-.979,5.76,5.76,0,0,0-3.8,1.237c-2.573,2.351-4.384,3.355-6.055,3.355-1.747,0-3.43-1.116-5.457-3.62a8.574,8.574,0,0,0-7.23-3.311c-.987,0-1.987.091-2.954.179-.744.068-1.514.138-2.252.163-.159.005-.321.008-.481.008-3.562,0-6.19-1.313-9.039-3.284-1.026-.71-2.157-1.363-3.25-1.994-2.425-1.4-4.932-2.848-6.439-5A37.619,37.619,0,0,1,32.106,755.5a262.729,262.729,0,0,1-5.487-54.516A126.111,126.111,0,0,0,25.59,686.39c-.35-3.194-.711-6.49-.9-9.737-.582-10.1-.976-20.393-1.357-30.342v-.023q-.093-2.428-.187-4.855c-.6-15.428-1.219-31.949-1.745-48.233-.172-5.316-.29-10.725-.4-15.955v-.032c-.112-5.136-.227-10.446-.394-15.668-.369-11.506-.845-23.114-1.341-34.984-.121-2.9-.236-5.844-.346-8.694l0-.06c-.351-9.037-.714-18.382-1.343-27.554-.264-3.832-.771-7.718-1.261-11.475a133.052,133.052,0,0,1-1.448-16.3c-.066-11.019-1.116-22.092-2.132-32.8l-.2-2.068c-.711-7.523-1.236-15.189-1.744-22.6v-.021c-.334-4.872-.679-9.909-1.074-14.859-.431-5.385-.976-10.852-1.5-16.139l0-.02c-.226-2.262-.459-4.6-.683-6.933-.271-2.81-.646-5.673-1.008-8.442-.839-6.407-1.706-13.031-1.348-19.476a54.353,54.353,0,0,0-.654-9.942,48.206,48.206,0,0,1-.553-11.086,35.283,35.283,0,0,0-.834-9.618c-.312-1.744-.633-3.546-.8-5.311a25.414,25.414,0,0,1,.1-4.443c.05-.625.1-1.267.132-1.9a1.206,1.206,0,0,1,.1-.349.68.68,0,0,0,.075-.422c-1.18-3.6-1.079-7.353-.982-10.979a51.215,51.215,0,0,0-.124-6.872c-.176-1.622-.4-3.268-.609-4.859a91.5,91.5,0,0,1-1-10.544c-.059-3.581.189-7.225.429-10.75.167-2.458.34-5,.408-7.5C.891,242.9.771,241.222.655,239.6a45.543,45.543,0,0,1-.17-5.469c.2-4.027.521-8.115.828-12.068.28-3.6.57-7.323.771-10.987.124-2.243.1-4.533.069-6.747-.024-1.931-.048-3.925.028-5.882.129-3.3.328-6.655.521-9.9.189-3.17.384-6.448.513-9.683.053-1.327-.021-2.686-.092-4a33.45,33.45,0,0,1-.016-5.093c.335-3.325.9-6.679,1.444-9.922l0-.011c.232-1.379.471-2.8.69-4.209q.154-1,.314-1.99l0-.022,0-.015c.2-1.272.411-2.587.6-3.882.345-2.39.682-4.819,1.009-7.168.117-.839.232-1.67.348-2.5.226-1.624.453-3.325.653-4.826.491-3.682,1-7.49,1.618-11.213a58.965,58.965,0,0,1,1.537-6.314c.16-.566.341-1.206.51-1.827.634-2.323,1.222-4.711,1.791-7.02A122.4,122.4,0,0,1,18.541,92.31a68.272,68.272,0,0,0,2.344-7.355c1.149-4.143,2.338-8.428,4.888-12.31,2.287-3.484,3.559-7.76,4.789-11.894a76.26,76.26,0,0,1,2.62-7.778c1.91-4.543,4.2-9.006,6.406-13.322.9-1.748,1.818-3.55,2.7-5.333a4.479,4.479,0,0,1,.573-.807,2.65,2.65,0,0,0,.679-1.153c1.3-7.87,6.833-12.2,12.18-16.389,1.009-.791,2.053-1.608,3.051-2.437C64.2,9.032,70.642,4.163,78.532,3.35a63.77,63.77,0,0,0,8.229-1.585A49.125,49.125,0,0,1,97.278.049C99.315.016,101.132,0,102.83,0c5.379,0,9.849.16,14.067.5,7.13.581,14.154,1.727,20.084,2.772a24.083,24.083,0,0,1,4.959,1.664c.961.4,1.954.817,2.948,1.145,1.08.357,2.205.65,3.293.933A31.406,31.406,0,0,1,153.61,8.79l.623.292a128.811,128.811,0,0,1,16.352,8.637c2.788,1.828,4.843,5.3,5.838,7.945,2.321,6.166,4.431,12.779,2.556,19.864q-.129.488-.256.976c-.273,1.05-.556,2.135-.875,3.194A78.753,78.753,0,0,0,174.42,66.15c-.539,6.629-3.071,13.278-5.4,18.991q-.535,1.31-1.073,2.612c-2.1,5.092-4.261,10.352-5.909,15.813-2.1,6.947-5.456,13.611-8.7,20.056l-.288.573a147.48,147.48,0,0,1-10.734,18.577c-3.73,5.3-8.305,7.931-13.986,8.052a12.362,12.362,0,0,0,.2-1.267c.1-.855.191-1.592.594-1.905,7.338-5.652,10.03-14.325,11.846-22.855,2.65-12.417,3.661-25.379,4.246-35.284.335-5.663-.461-11.494-1.23-17.134l0-.022c-.174-1.273-.353-2.589-.516-3.878-.819-6.455-4.769-11.319-8.588-16.022l-.087-.108-.571-.7c-.426-.527-.866-1.056-1.291-1.568-.984-1.184-2-2.409-2.913-3.681-1.7-2.371-3.507-3.524-5.531-3.524s-4.235,1.169-6.747,3.573a29.826,29.826,0,0,0-5.214,7.362c-.74,1.318-1.5,2.679-2.383,3.964-2.177,3.188-3.247,6.814-4.282,10.32a48.783,48.783,0,0,1-2.666,7.5,87.306,87.306,0,0,0-5.722,16.02c-2.052,7.893-3.919,15.978-5.725,23.8-.844,3.656-1.716,7.43-2.6,11.145a16.811,16.811,0,0,1-.533,1.7,17.207,17.207,0,0,0-.524,1.659c-.295,1.211-.565,2.45-.826,3.649l0,.013c-.251,1.153-.511,2.345-.793,3.514-.474,1.964-1.008,3.96-1.588,5.932a5.275,5.275,0,0,1-.443.972,4.311,4.311,0,0,0-.486,1.153q-.295,1.451-.6,2.9c-.787,3.807-1.6,7.743-2.183,11.647-.329,2.205-.479,4.475-.625,6.669-.1,1.55-.209,3.142-.375,4.7-.151,1.416-.384,2.844-.61,4.225-.23,1.407-.467,2.86-.618,4.3-.2,1.864-.337,3.767-.473,5.608-.167,2.266-.34,4.605-.618,6.891-.316,2.619-.733,5.267-1.137,7.828-.335,2.122-.68,4.311-.965,6.472a73.075,73.075,0,0,0-.634,8c-.038,1.651.023,3.348.082,4.989a40.656,40.656,0,0,1-.443,9.906c-.16.743-.372,1.479-.577,2.191a12.72,12.72,0,0,0-.71,5.921l.051.281a45.232,45.232,0,0,1,.772,5.532c.278,5,.511,10.1.736,15.02l.007.154c.1,2.243.209,4.563.318,6.842.048,1.009.043,2.052.039,3.06a24.787,24.787,0,0,0,.587,6.805c1.861,6.513,1.5,13.083,1.159,19.436a26.283,26.283,0,0,0,1,7.2c.17.729.345,1.483.5,2.218a14.43,14.43,0,0,0,.628,2.015c.672,1.833,1.365,3.724-.273,5.887-.287.38.045,1.214.4,2.1a8.191,8.191,0,0,1,.6,1.956c.242,2.223.433,4.49.617,6.682.2,2.377.406,4.827.678,7.234a13.6,13.6,0,0,0,.626,2.5,7.463,7.463,0,0,1,.563,3.634c-.688,3.288.217,6.256,1.092,9.126A28.836,28.836,0,0,1,84.8,350.3c.23,2.109.378,4.265.522,6.35.193,2.808.392,5.7.791,8.522.362,2.554.954,5.113,1.526,7.588.431,1.864.877,3.791,1.221,5.7.748,4.137,1.476,5.982,3.816,5.982a11.415,11.415,0,0,0,3.574-.809c12.764-4.483,25.766-6.374,37.916-7.75,3.43-.386,4.957-2.157,4.954-5.741-.007-9.095.134-18.334.271-27.27l.044-2.9q.058-3.892.109-7.785v-.012c.123-9.08.25-18.469.536-27.7l.07-2.269c.5-16.221,1.018-33,1.945-49.473.373-6.639,1.183-13.359,1.966-19.858l0-.02c.36-2.986.732-6.075,1.056-9.115.351-3.278.687-6.613,1.011-9.839l0-.029c.74-7.351,1.505-14.953,2.5-22.4.624-4.645,1.641-9.311,2.624-13.824.41-1.883.833-3.824,1.224-5.744.422-2.083.843-4.2,1.251-6.255l.009-.047c1.141-5.748,2.32-11.688,3.663-17.483.662-2.86,1.5-5.726,2.316-8.5.8-2.74,1.634-5.569,2.292-8.393a41.871,41.871,0,0,0,.8-6.616c.064-.957.131-1.946.227-2.9,1.68-1.1,3.4-2.284,5.07-3.427a137.647,137.647,0,0,1,12.452-7.9c1.047-.563,2.113-1.216,3.143-1.848,3.219-1.973,6.544-4.012,10.255-4.012a10.112,10.112,0,0,1,1.32.087,13.522,13.522,0,0,0,1.762.111c3.394,0,7.23-1.134,10.939-2.23s7.55-2.233,10.956-2.233a13,13,0,0,1,2.362.2,33.971,33.971,0,0,0,5.986.395c1.927,0,4.053-.068,6.109-.134l.091,0c2.093-.068,4.257-.137,6.3-.137a32.543,32.543,0,0,1,7.466.623c1.318.326,2.775,1.953,4,4.465a15.447,15.447,0,0,1,1.71,6.2c-.088,2.981,1.508,5.8,3.052,8.525,1.324,2.337,2.692,4.754,3.012,7.279.551,4.355-1.2,8.922-2.894,13.338-.715,1.863-1.389,3.623-1.885,5.34a49.309,49.309,0,0,0-.961,5.283,44.659,44.659,0,0,1-1.215,6.309c-1.111,3.234-4.237,7.028-6.994,10.375l-.007.009c-1.214,1.473-2.36,2.865-3.16,4.012-1.961,2.809-7.753,6.12-12.863,9.041-2.6,1.487-5.06,2.892-6.613,4.019a7.645,7.645,0,0,0-2.051,3.49c-.222.578-.452,1.175-.712,1.709a8.458,8.458,0,0,0-.413,1.1,3.991,3.991,0,0,1-.863,1.726c-5.235,4.872-5.472,10.99-5.012,16.331a26.434,26.434,0,0,1-.509,6.356c-.15.928-.3,1.886-.411,2.823q-.275,2.4-.544,4.8c-.5,4.446-1.021,9.043-1.6,13.562-.161,1.275-.41,2.563-.651,3.809a39.715,39.715,0,0,0-.815,5.654c-.054,1.166-.208,2.318-.358,3.432a19.542,19.542,0,0,0,.115,8.15c.887,3.262.225,7.04-.415,10.694-.249,1.422-.506,2.89-.666,4.3-.283,2.5-.622,5.042-.95,7.5l-.005.04c-.341,2.548-.693,5.182-.983,7.786a3.544,3.544,0,0,0,.353,1.593,6.427,6.427,0,0,1,.334,1.056c.069.365.14.726.211,1.085.629,3.179,1.223,6.181-.522,9.71-1.018,2.059-.884,4.784-.754,7.419.05,1.017.1,2.067.085,3.06-.066,3.833-.084,7.732-.1,11.5v.023c-.009,1.94-.016,3.557-.028,5.24,0,.107.007.222.016.344.022.328.046.667-.1.833-4.455,4.96-3.041,10.29-1.673,15.445l.007.026c.25.945.509,1.922.729,2.883a8.358,8.358,0,0,1-.109,3.068,13.886,13.886,0,0,0-.219,2.076v.819c-.009,5.588-.019,11.367.223,17.039.042.965,1.456,2.616,2.258,2.637,9.039.234,18.233.3,27.124.365l.442,0,4.034.03h.038c2.027,0,3-1.179,3.047-3.711.054-2.661.115-5.39.17-7.8.109-4.826.221-9.816.291-14.735.03-2.116,0-4.266-.028-6.346a115.13,115.13,0,0,1,.275-12.393,37.887,37.887,0,0,1,2.217-8.543c.388-1.127.789-2.293,1.137-3.447.206-.679.473-1.347.731-1.993.277-.694.562-1.409.772-2.134.648-2.235,1.27-4.511,1.872-6.712,1.09-3.988,2.218-8.113,3.529-12.1,4.669-14.166,11.894-27.3,18.88-40.007,1.283-2.334,2.608-4.743,3.9-7.119a137.6,137.6,0,0,1,8.7-13.444l.006-.009c1.61-2.287,3.275-4.651,4.832-7.026.9-1.377,1.819-2.971,1.753-4.352-.206-4.2,1.8-5.318,5.568-5.9,2.634-.409,5.282-1.052,7.843-1.673a79.7,79.7,0,0,1,9.427-1.888,8.332,8.332,0,0,1,.958-.054,20.432,20.432,0,0,1,4.942.856,28.8,28.8,0,0,0,3.749.791c1.888.218,3.82.3,5.689.369,1.541.061,3.134.124,4.7.266h.016a41.878,41.878,0,0,1,7.786,1.2c7.566,2.178,15.231,4.486,22.643,6.718,3.043.916,6.19,1.864,9.325,2.8a2.7,2.7,0,0,0,.454.08,1.584,1.584,0,0,1,.667.177c1.359.87,2.732,1.769,4.061,2.639l.048.031c2.329,1.525,4.738,3.1,7.151,4.581a32.687,32.687,0,0,0,3.067,1.587,19.1,19.1,0,0,1,4.766,2.847c3.369,3.059,6.218,5.958,6.961,10.473a5.465,5.465,0,0,0,1.615,2.493,14.416,14.416,0,0,1,.955,1.108l-.334.068-.018,0c-.166.034-.333.067-.5.1.343,1.4.649,2.833.945,4.222a61.735,61.735,0,0,0,2.479,9.261c2.409,6.269,2.177,12.784,1.952,19.085l0,.052c-.025.711-.051,1.423-.072,2.134a14.285,14.285,0,0,1-.928,4,15.832,15.832,0,0,0-.916,3.692c-.7,8.816-4.448,16.614-7.906,23.231a16.4,16.4,0,0,1-2.254,3.04,19.082,19.082,0,0,0-2.026,2.627c-1.069,1.784-2.034,3.674-2.967,5.5-.711,1.393-1.444,2.829-2.218,4.208a21.446,21.446,0,0,1-3.111,4.4,13.19,13.19,0,0,1-1.323,1.154c-1.548,1.234-3.009,2.4-1.968,5.135.156.409-.6,1.315-.932,1.685-1.644,1.84-3.3,3.732-4.895,5.563l-.034.039c-4.2,4.81-8.542,9.784-13.157,14.3a39.021,39.021,0,0,1-7.759,5.41c-1.38.805-2.808,1.638-4.147,2.536a28.576,28.576,0,0,0-4.749,3.73c-1.727,1.788-4,2.575-6.19,3.337-2.377.825-4.835,1.679-6.656,3.8-.655.764-1.986.88-3.527,1.015a21.606,21.606,0,0,0-2.346.293c-2.328,4.746-7.206,6.292-11.923,7.787-.863.274-1.756.557-2.624.856-.727.251-1.47.5-2.187.731l-.018.006c-3.874,1.272-7.879,2.588-11.049,5.6a4.3,4.3,0,0,0-1.3,2.719q-.011.546-.025,1.1a33.013,33.013,0,0,0,.4,7.657c.328,1.52.648,3.056.957,4.541a153.6,153.6,0,0,0,5.021,19.7c5.331,15.112,14.118,24.387,26.864,28.356a23.027,23.027,0,0,1,3.5,1.556c1.866.955,3.627,1.855,5.444,1.855h.041a62.807,62.807,0,0,0,16.536-2.353c13.157-3.768,25.749-11.521,39.627-24.4,7.2-6.686,14.047-14.035,20.668-21.142l.027-.028c2.158-2.316,4.389-4.711,6.6-7.046,2-2.116,4.055-4.254,6.041-6.321,6.584-6.856,13.392-13.944,19.494-21.439,3.225-3.962,5.547-8.834,7.793-13.545.809-1.7,1.644-3.449,2.508-5.13a4.067,4.067,0,0,0-.059-2.4c-.11-.591-.234-1.26-.309-2.02l2.347.75c1.626.519,3.114.995,4.5,1.44.438.444.9.876,1.346,1.294a19,19,0,0,1,2.869,3.111,9.975,9.975,0,0,1,1.814,4.931,105.9,105.9,0,0,1-.186,14.992A49.966,49.966,0,0,1,468.7,400.69a77.081,77.081,0,0,1-4.152,9.023l-.018.036q-.359.7-.717,1.4a10.631,10.631,0,0,1-1.329,1.875,12.517,12.517,0,0,0-1.186,1.609c-.434.745-.958,1.507-1.465,2.243-1.3,1.9-2.653,3.855-2.694,5.809-.105,4.931-2.589,8.045-5.218,11.341l-.033.041q-.3.376-.6.755c-.685.865-1.824,2.527-1.766,3.946.238,5.812-3.414,11.031-8.683,12.41a2.936,2.936,0,0,0-1.358,1.287.8.8,0,0,0-.147.551c.869,2.709-.858,4.055-2.381,5.242-.144.112-.282.22-.417.328-3.175,2.534-4.8,5.506-5.432,9.937-.7,4.9-4.5,8.042-8.668,11.091-2.014,1.474-3.09,2.743-3.29,3.882-1.06,6.015-4.85,9.688-8.863,13.578q-.477.462-.953.926c-1.118,1.092-2.2,2.259-3.252,3.387-1.2,1.292-2.441,2.627-3.736,3.852a12.661,12.661,0,0,1-2.515,1.7c-.511.29-1.034.586-1.518.913l-.195.13a4.848,4.848,0,0,0-1.619,1.458l-.126.224c-1.736,3.086-3.235,5.75-7.383,5.751-.271,0-.553-.012-.841-.035-.43-.034-.819-.051-1.188-.051-3.668,0-5.784,1.754-6.467,5.361-.415,2.2-4.917,4.423-7.712,4.931-1.891.344-3.807.8-5.659,1.246a51.155,51.155,0,0,1-11.791,1.866,22.335,22.335,0,0,1-4.895-.518.964.964,0,0,0-.21-.022,3.253,3.253,0,0,0-1.792.845,5.9,5.9,0,0,1-3.918,1.6,8.52,8.52,0,0,1-4.555-1.618c-.165-.105-.335-.22-.5-.331a5,5,0,0,0-2.318-1.081,1.188,1.188,0,0,0-.231.022,9.96,9.96,0,0,1-1.884.181c-2.783,0-5.255-1.186-7.645-2.334a26.389,26.389,0,0,0-4.879-1.957c-6.68-1.68-12.468-5.221-18.066-8.644-1.324-.81-2.692-1.647-4.052-2.447a119.526,119.526,0,0,1-16.452-11.448,122.615,122.615,0,0,1-15.954-15.654A90.968,90.968,0,0,1,248.8,445.607c-1.711-8.191-3.542-16.5-5.313-24.536l-.005-.024-.768-3.486c-.961-4.365-2.753-5.8-7.378-5.914-2.938-.069-5.921-.25-8.806-.426-2.788-.17-5.663-.345-8.493-.418-2.183-.055-4.305-.083-6.308-.083-3.324,0-6.4.073-9.41.224-3.076.153-3.353,2.964-3.25,5.4.154,3.634.42,7.324.678,10.893l0,.023c.256,3.543.52,7.207.675,10.821a10.614,10.614,0,0,1-.523,3.144,11.563,11.563,0,0,0-.532,2.962c.013,4.941.212,9.961.406,14.816l.006.161q.057,1.449.114,2.9c.058,1.507.1,7.849.148,15.878.089,14.212.21,33.676.525,36.4.088.757.18,1.124.283,1.124.322,0,.676-3.668,1.051-7.552l.051-.526c.349-3.6.782-8.078,1.2-8.078.12,0,.236.376.344,1.117.533,3.641,1.1,32.185,1.651,59.789v.018c.527,26.5,1.025,51.527,1.479,54.962.32,2.437.52,4.932.714,7.345.15,1.867.3,3.788.512,5.675.083.75.144,3.606.222,7.222.167,7.793.4,18.454,1.047,19.822,1.111,2.336,1.434,6.244.886,10.721-.505,4.126-1.654,7.918-3,9.9-1.091,1.6-1.647,5.071-.036,6.851a2.568,2.568,0,0,1,.82,2.415,2.855,2.855,0,0,1-2.265,1.669,5.179,5.179,0,0,0-3.711,2.914c-.9,2.044-.551,4.9.945,7.64.384.706.718,1.431,1.179,2.434.259.564.548,1.191.9,1.943-.8-.366-1.479-.661-2.074-.921l-.012-.005c-1.094-.478-1.884-.823-2.641-1.244a5.347,5.347,0,0,0-2.694-.642,16.623,16.623,0,0,0-1.944.153l-.043,0a16.492,16.492,0,0,1-1.887.147c-.154,0-.3,0-.446-.013a74.778,74.778,0,0,1-17.346-2.794c-4.578-1.439-8.067-8.4-10.87-13.992-.944-1.883-1.834-3.659-2.672-5.046-5.272-8.727-8.459-34.925-10.568-52.261-.565-4.644-1.053-8.651-1.471-11.39-1.8-11.778-3.74-43.842-5.451-72.131-1.209-19.993-2.351-38.875-3.253-47.3-1.053-9.821-1.349-36.686-1.586-58.272V436c-.126-11.456-.235-21.35-.432-26.573-.108-2.922-1.063-4.115-3.3-4.115-.186,0-.383.009-.586.026-4.411.37-8.9.7-13.242,1.018-2.613.192-5.308.389-7.992.6a4.408,4.408,0,0,0-1.491.414c-1.265.589-2.593,1.2-3.764,1.736-4.058,1.863-8.255,3.79-12.262,5.923-1.054.562-1.9,2.8-1.768,4.068,1.178,11.122,2.564,22.132,4,33.372A15.287,15.287,0,0,0,99.679,455a13.114,13.114,0,0,1,.664,2.9c.289,4.081.527,8.231.757,12.245.28,4.876.569,9.913.95,14.859a65.871,65.871,0,0,0,1.134,7.339l0,.016c.207,1.069.421,2.176.606,3.265.4,2.334.828,4.7,1.244,7l0,.018c.984,5.42,2,11.024,2.669,16.582a47.9,47.9,0,0,1,.117,7.31,47.546,47.546,0,0,0,.124,7.365c.395,3.236,1.053,6.5,1.691,9.658a88.96,88.96,0,0,1,2.02,13.586,50.824,50.824,0,0,0,.741,5.952c.727,4.417,1.479,8.983-.471,13.624-.531,1.26-.037,2.927.486,4.691a18.616,18.616,0,0,1,.695,2.886c.938,7.66,1.844,15.454,2.719,22.991l.03.258q.475,4.087.952,8.174a1.448,1.448,0,0,0,.027.146.694.694,0,0,1,.026.251c-.8,5.327.2,10.541,1.172,15.582a62.366,62.366,0,0,1,1.453,11.081,49.081,49.081,0,0,0,1.539,11.937,5.3,5.3,0,0,1-.564,2.99,8,8,0,0,0-.674,2.6,57.858,57.858,0,0,0,.471,6.848v.012c.1.888.2,1.805.277,2.708.16,1.781.354,3.583.542,5.326.427,3.956.868,8.046.925,12.075a82.423,82.423,0,0,1-1.334,13.9c-.419,2.685-.985,5.392-1.533,8.01-.528,2.522-1.073,5.127-1.486,7.71a11.634,11.634,0,0,0,.611,5.257,12.03,12.03,0,0,1-2.848,12.256c-.579.532-1.148,1.049-1.807,1.647l-.053.049-.009.009-1.217,1.106c3.191,2.628,3.7,5.448,1.766,9.731a15.361,15.361,0,0,0-.981,4.228,15.4,15.4,0,0,1-.979,4.224c-1.335,2.957-2.941,5.839-4.494,8.627-1.022,1.834-2.078,3.729-3.049,5.632a22.882,22.882,0,0,0-1.386,3.861c-.229.767-.488,1.636-.805,2.593a2.5,2.5,0,0,0-1.51,1.43c-.365.971-.121,2.308.724,3.973.426.841-.252,2.288-.849,3.566a14.242,14.242,0,0,0-.624,1.461ZM293.606,362.071h0l-.005,0a1.306,1.306,0,0,0,.355.161,2.946,2.946,0,0,0,.911.165,1.591,1.591,0,0,0,.565-.094c11.785-4.464,25.353-10.44,36.633-20.911,11.62-10.787,18.674-22.922,21.566-37.1,2.652-13.011.157-24.2-7.416-33.256a78.61,78.61,0,0,0-7.493-7.471c-.957-.872-1.94-1.767-2.887-2.662a4.62,4.62,0,0,0-3.242-1.43c-1.7,0-3.338,1.023-4.861,2.128-1.806,1.315-4.148,3.386-5.054,5.788a57.2,57.2,0,0,1-5.855,10.651c-2.572,3.976-5.23,8.087-6.585,12.869-.711,2.5-1.675,4.962-2.608,7.345l-.005.014c-.632,1.615-1.285,3.285-1.854,4.952-1.019,2.986-1.965,6.056-2.88,9.026l-.017.054c-.374,1.215-.761,2.471-1.148,3.7-.075.239-.153.477-.231.716l0,.014c-.208.637-.422,1.292-.575,1.947-.441,1.883-.864,3.8-1.274,5.657l-.007.032-.042.189q-.2.885-.392,1.77c-.526,2.363-1.076,4.762-1.608,7.083-1.355,5.915-2.755,12.024-3.894,18.082a29.608,29.608,0,0,0-.191,6.759c.053,1.215.108,2.47.11,3.816l-.009,0Z" transform="translate(812.766 52.437)" fill="#e9f1f4"/>
        <path id="Fill_11" data-name="Fill 11" d="M9.293,239.166c1.483-1.651.851-12.419.8-14.961-.16-8.351-1.139-16.7-1.008-25.04.338-21.562.871-43.128,1.769-64.669.761-18.3,2.293-36.562,3.194-54.855.679-13.754,1.014-27.529,1.236-41.3a35.991,35.991,0,0,0-1.6-9.626c-.35-1.308-1.757-2.334-2.716-3.457a76.484,76.484,0,0,1-5.3-6.238C3.736,16.177,2.183,13.072,0,9.263c3.407-2.14,7.5-5.046,11.9-7.311,1.935-1,4.508-.852,6.8-.942C29.027.62,39.515-1.886,49.5,2.85a69.774,69.774,0,0,1,9.8,5.758,5.894,5.894,0,0,1,1.982,3.836c.411,3.794,1.209,7.218,4.292,9.8a6.051,6.051,0,0,1,1.792,3.278c1.944,9.838,7.909,18.278,9.241,28.354.388,2.939,1.958,5.7,2.833,8.586a5.448,5.448,0,0,1,.178,3.293c-1.358,3.338.265,5.919,1.329,8.89,1.41,3.934,1.92,8.2,2.853,12.321.332,1.475.871,2.909,1.142,4.4,1.206,6.625,1.824,13.417,3.663,19.849,2.063,7.224,1.757,14.454,2.215,21.756.4,6.4,2.83,12.654,4.048,19.035q1.9,9.938,3.124,20c.28,2.265-.568,4.652-.557,6.983a45.344,45.344,0,0,0,2.41,13.256c2.159,7.039,1.976,14.854,2.608,22.355.5,5.973.688,11.972,1.137,17.95.309,4.152.88,8.282,1.221,12.434a8.236,8.236,0,0,1-.35,3.752c-2.739,6.4-2.34,13.069-2.183,19.807.067,2.879-1.218,5.767-1.612,8.688-.478,3.552-.586,7.153-1.005,10.714-.239,2.006-.848,3.964-1.166,5.964-.254,1.591-.318,3.213-.525,5.454-.883-.468-1.649-.617-1.973-1.088-1.5-2.185-3.753-3.269-5.659-1.618A9.366,9.366,0,0,0,87.5,302.67c-.137,2.59,1.122,5.227,1.565,7.883.621,3.713-.446,4.348-3.937,3.383a21.114,21.114,0,0,0-7.985-.668c-.743.092-2.818,1.8-2.967,1.237-3.908-.378-7.379-.73-10.852-1.043-2.049-.182-4.115-.2-6.152-.465-6.373-.811-11.779-3.949-16.342-8.267-5.225-4.947-10.855-9.844-14.661-15.855-4.77-7.531-7.9-16.156-11.656-24.346-.991-2.152-3.666-16.073-3.666-16.073" transform="translate(629.238 262.183)" fill="#e9f1f4"/>
        <path id="Fill_13" data-name="Fill 13" d="M22.436,24.377c7.721-.164,15.458.326,23.19.412,4.571.05,9.2-.542,13.705-.125,16.57,1.533,32.613-1.687,48.786-3.475,8.538-.943,16.849-3.2,25.348-4.484,6.523-.984,13.2-1.257,19.772-2.043,6.8-.813,13.509-2.175,20.327-2.737,12.667-1.047,25.389-1.649,38.081-2.516,6.4-.439,12.844-.781,19.168-1.653,12.559-1.728,24.992-4.135,37.59-5.6,8.151-.947,16.5-.736,24.766-1.016C305.486.726,317.8.125,330.124.011,339.04-.071,347.987.3,356.88.861c8.5.54,16.935,1.822,25.436,2.368,14.367.922,27.435,4.541,38.893,11.825,6.893,4.379,8.22,9.3,5.907,16.12-.69,2.033,1.339,4.768,2.368,7.109,1.6,3.623,3.254,7.235,5.162,10.748,1.319,2.43,3.8,4.552,4.532,7.055,1.355,4.616,3.848,9.225,1.943,14.207a2.207,2.207,0,0,0,.524,2.166c2.073,1.685.911,3.427.908,5.322,0,2.778,1.286,5.634,2.512,8.3.861,1.881,1.209,2.951-1.261,4.286-1.623.877-2.437,2.862-3.417,4.434-1.78,2.851-3.257,5.834-5.17,8.619-1.065,1.553-7.478,1.9-10.31.829-.588-.223-1.4-.852-1.67-.713-4.361,2.279-6.553-.633-9.313-2.457a7.116,7.116,0,0,0-7.246-.8c-3.746,1.53-5.755-1.489-7.378-3.286-3.185-3.527-3.928-4.012-9.134-2.833-3.379.767-6.8,1.446-10.238,1.981a6.8,6.8,0,0,1-2.992-.622c-4.025-1.43-6.042-1.032-7.423,2.245-.98,2.327-2.7,2.887-5.281,3.072-4.682.335-9.352,1.186-14.014,1.132-2.664-.03-5.275-1.507-7.966-2.175-2.5-.622-5.394-.581-7.544-1.628-4.262-2.077-9.175-1.307-13.321-2.539-3.942-1.17-7.147-4.249-10.373-6.754-2.291-1.776-6.688-2.79-9.126-1-3.619,2.662-8.01,3.334-12.372,4.283-4.524.986-9.09,1.87-13.528,3.067-1.883.508-3.39,1.911-5.25,2.534a27.46,27.46,0,0,1-6.247,1.248c-4.1.364-8.187,2.956-12.386.068-.483-.332-1.739.1-2.636.169-1.041.075-2.476.526-3.053.132-3.771-2.582-7.227-.383-10.945-.009-5.181.519-10.514-.014-15.781-.011-5.8,0-11.6.1-17.4.153a6.21,6.21,0,0,1-2.341-.1c-5.223-2.459-9.763-.216-14.47,1.234a7.945,7.945,0,0,1-2.559-.244c-.856-.077-2.263-.412-2.493-.125-2.217,2.787-4.428.963-6.76.225a15.377,15.377,0,0,0-4.524-.731c-5.518,0-11.505,1.318-16.443-.032-7.566-2.072-14.315.157-21.426.294-2.567.048-5.739-1.594-7.646-3.243-2.076-1.8-3.075-2.846-6.683-2.015-3.641.838-8.4,1.708-11.563-1.92a3.473,3.473,0,0,0-2.755-.43C95.6,95,89.338,93.411,82.973,90.61c-2.642-1.161-5.932-1.517-8.988-1.81-5.653-.54-11.447-.364-17-1.252C52.689,86.86,48.162,86.418,44.6,83.4c-2.912-2.471-6.928-4.072-10.528-5.966-3.911-2.061-8.118-3.782-11.792-6.091-2.567-1.614-4.292-4.11-6.672-5.968C7.721,59.213,7.826,50.184,3.445,42.779c-.461-.774-.936-1.544-1.391-2.318C.516,37.844-.847,35.489.643,32.2,1.7,29.876.472,26.882.5,24.186a21.36,21.36,0,0,1,.839-4.14l1.2-.148C8.08,24.914,15.188,24.53,22.436,24.377Z" transform="translate(262.182 655.457)" fill="#e9f1f4"/>
        <path id="Fill_15" data-name="Fill 15" d="M78.655,23.053c-.406,1.925-1.339,3.862-1.1,5.637.914,6.8-3.573,11.942-4.825,17.978-1.645,7.924-4.415,15.3-10.251,20.572-3.566,3.222-7.806,5.624-11.012,9.506-3.261,3.945-7,.793-10.075-.753C37.1,73.837,32.7,71.435,29.2,68.176a171.721,171.721,0,0,1-18.135-19.3c-2.425-3.092-3.4-7.881-3.758-12.012-.419-4.917-2.585-8.488-5.478-12C1.2,24.088.508,22.725.758,21.942c.933-2.917,1.58-5.634-.758-8.219a10.549,10.549,0,0,1,2.113-2.137c1.323-.849,3.82-1.208,4.044-2.2,1.044-4.609,3.4-2.309,6.1-2.266A18.54,18.54,0,0,0,22.882,3.961c5.6-4.075,11.424-2.89,17.358-2.482,1.073.076,2.39.713,3.167.282,7.123-3.939,13.921-.173,20.82.76,1.014.136,2.419.471,2.877,1.211,3.866,6.231,7.556,12.579,11.551,19.321" transform="translate(629.238 183.528)" fill="#e9f1f4"/>
        <path id="Fill_17" data-name="Fill 17" d="M156.625,165.841c-3.205,8.5-1.467,17.018-.553,25.554.107.981.837,2.246.437,2.885-4.07,6.464,1.241,11.875,1.965,17.775.3,2.483,1.25,5.069.822,7.424-1.451,8.007,1.665,15.162,3.789,22.524.156.538.712,1.312.519,1.546-2.518,3.065.361,6.029.079,8.914-.684,7,3.872,12.505,5.1,18.939.706,3.706,2.738,7.158,3.768,10.829.422,1.5-.318,3.29-.376,4.951a13.325,13.325,0,0,0,.214,4.611c.978,2.926.694,4.767-3.487,4.359.529,1.528.871,2.524,1.345,3.91l3.227-2.2c.413.2.822.4,1.231.609-.587,1.3-.843,3.372-1.824,3.768-3.572,1.436-3.621,4-3.37,7a17.571,17.571,0,0,1-.238,5.477c-.241,1.02-1.467,1.821-1.672,2.678a69.356,69.356,0,0,1-2.824,7.847c-.883,1.8-1.919,2.855-.532,5.252.978,1.691-.409,4.661-.74,7.058q-.756.226-1.51.446c-1.2-1.472-2.4-2.947-4.095-5.033,1.849.254,2.79.384,4.929.677-1.265-1.587-1.953-2.45-2.643-3.313-2.836,2.264-5.381-.426-8.055-.4-3.306.027-4.3,2.353-3.477,8.069a36.216,36.216,0,0,0-3.679.269c-2.17.375-4.639.384-6.4,1.448-3.175,1.915-5.8,1.1-8.584-.4-2.937-1.578-6.145-2.834-8.73-4.835-2.548-1.971-4.467-4.7-6.7-7.144-2.83,2.2-4.523,2.226-4.987-1.587-.229-1.88-1.015-3.355-3.85-2.589-2.374.638-6.882-3.538-6.976-5.669-6.093-2.332-12.1-4.634-18.114-6.934a9.764,9.764,0,0,0-1.913-.721c-3.532-.541-3.535-.517-2.845-4.061-5.54-2.565-10.845-6.281-16.654-7.3-4.425-.78-5.992-4.936-10.093-5.305-.776-.071-1.717-1.15-2.115-1.974-1.809-3.762-2.952-7.865-7.685-9.591-.776-.284-1.256-2.837-.947-4.135,2.044-8.6,4.312-17.057,4.373-26.074.055-7.764,1.913-15.508,2.7-23.287a29.159,29.159,0,0,0-.691-7.176c-1.488-9.712-3.242-19.391-4.513-29.133-1.427-10.912-2.108-21.919-3.719-32.8a276.034,276.034,0,0,0-6-30.36c-.914-3.449-4.727-6.151-7.077-9.289-1.149-1.54-1.983-3.3-3.37-5.66,2.063.1,3.12.145,4.3.2-.9-1.224-1.962-2.982-2.872-2.917-5.833.423-8.086-3.233-10.7-7.318-2-3.136-5.326-5.465-7.979-8.228-2.674-2.781-3.942-6.015-1.589-9.44A5.66,5.66,0,0,1,5.393,83.78c5.323.343,10.6,1.552,15.914,1.717,3.884.121,7.838-.73,11.682-1.5,1.07-.216,2.127-1.558,2.723-2.627.929-1.667.92-4.38,2.255-5.19C44.876,71.993,52,68.006,60.772,69.847c1.247.263,3.022.878,3.746.331,4.871-3.683,6.93.556,9.778,2.885a15.233,15.233,0,0,0,4.079,2.353c4.034,1.561,8.137,2.959,12.217,4.407a88.785,88.785,0,0,0,8.95,3.027c.92.222,2.472-.73,3.285-1.555,8.892-9.044,17.662-18.2,26.548-27.25,2.011-2.048,4.309-3.839,6.518-5.7,13.885-11.66,27.847-23.328,44.29-31.495,14.988-7.442,30.628-13.708,47.526-15.765A169.1,169.1,0,0,1,253.577.113c4.44.148,8.816,2.2,13.219,3.4,7.166.337,11.872,5.772,17.711,7.111,6.335,1.451,8.959,5.681,13.164,9.056,4.743,3.8,9.308,7.451,12.214,12.691,1.6,2.888,3.737,6.021-.3,9.017-.5.375.043,2.4.455,3.541.865,2.4,2.24,4.652,2.9,7.093a69.784,69.784,0,0,1,1.241,8.2c-2.154,8.766,1.442,17.125.147,25.453-.354,2.273-1.785,4.374-2.573,6.6-1.763,4.98-3.435,9.99-5.14,14.988-.138.4-.11,1.008-.391,1.2-5.641,3.813-3.45,10.182-5.332,15.212-1.109,2.961-2.056,5.305-5.986,6.39-3.884,1.07-6.68,4.5-7.951,8.586-.859,2.755-.956,5.772-4.6,7.117-4.312,1.593-5.283,1.463-5.751-2.858-.911-8.435-1.29-16.93-2.362-25.341-1.766-13.868-3.927-27.688-5.885-41.532-1.137-8.007-4.272-15.342-8.027-22.453-2.976-5.63-6.432-5.757-10.827-1.428a20.374,20.374,0,0,1-8.562,4.557c-3.646,1.031-6.68,1.726-8.645,5.636-2.393,4.756-7.117,7.726-12.382,9.162-3.016.825-4.351,2.648-5.9,4.945-2.64,3.913-5.785,7.513-8.724,11.237-.62.783-1.766,1.507-1.83,2.317-.486,6.272-6.362,7.67-10.105,11.083-2.677,2.441-4.342,5.92-6.487,8.914-2.906,4.058-6.111,7.942-8.694,12.186-3.126,5.137-8.767,8.861-8.8,15.866-.012,2.317-2.536,4.623-3.914,6.931-2.469,4.144-4.944,8.287-7.077,11.864C157.716,160.418,157.59,163.279,156.625,165.841Z" transform="translate(498.147 943.857)" fill="#e9f1f4"/>
        <path id="Fill_19" data-name="Fill 19" d="M1318.669,36.868c2.012,3.98,2.94,8.393,6.552,12.256,3.952,4.223,1.308,9.269,6.477,13.456,4.732,3.834,3.444,9.1,4.784,13.733a6.627,6.627,0,0,1,.606,3.007,33.588,33.588,0,0,1-1.832,5.773c-.374.959-1.7,2-1.647,2.9.113,2.031-1.16,3.348-6.564,5.356-4.5,1.673-5.1,5.093-6,7.666-1.319,3.781-1.052,7.476-2.169,11.252-.264.884-2.911,2.279-5.233,2.847-6.149,1.5-12.612,2.984-19.153,3.913-9.571,1.362-11.728,4.095-14.285,6.838-12.079,1.15-12.833,1.452-13.476,4.881-12.244.973-24.456,2.031-36.61,2.839-2.279.154-4.221-.75-6.483-1.06-4.152-.573-8.13-1.508-12.728-1.48-5.346.031-11.934,1.717-15.422-.411a5.843,5.843,0,0,0-2.351-.017c-11.3,3-20.849.822-31.336,1.726-17.028,1.466-34.084,3.25-51.127,4.83a123.613,123.613,0,0,1-13.427.808c-17.054-.386-33.9-1-50.892-1.466a25.594,25.594,0,0,0-5.8.624c-11.907,2.744-21.487,2.772-29.448-.165a265.729,265.729,0,0,1-46.3,4.85c-16.146.361-32.545,1.144-48.883,1.866-8.365.369-15.1-1.779-24.868.461-1.728.394-4.952-1.06-7.75-.917-6.048.31-12.3,1.259-18.4,1.647-4.648.3-9.208.185-13.737.157-2.128-.011-4-.422-6.138-.35-9.145.31-18.417.864-27.509,1.088-23.9.587-47.682.94-71.643,1.639-5.97.173-12.65,1.712-18.614,1.88-7.28.207-14.149-.369-21.5-.618-3.836.436-8.5,1.155-13.038,1.443-15.227.957-30.414,1.768-45.612,2.618-6.2.35-12.458.78-18.541.912-2.143.048-5.364-.5-5.471-1.088-.359-2.028-3.853-2.274-8.512-2.114-14.981.515-29.985,1.066-44.94,1.53a59.606,59.606,0,0,1-6.022-.448c-5.39-.355-10.751-1.466-16.112,1.72-.681.406-3.644.663-5.326.666-9.745.02-18.141-1.44-29.973,1.348-5.894,1.39-14.517.554-21.893.7-1.429.031-3.215-.266-4.152,0-9.922,2.783-15.662.54-22.093-.436-12.957-1.966-27.889-3.286-37.4-6.623-7.817-2.741-17.561-4.4-26.245-6.483-6.239-1.5-13.363-4.875-26.967-1.163-4.535,1.239-10.96,1.024-17.071.71-9.968-.509-14.36-2.886-20.672-4.763-3.749-1.116-9.4-1.424-14.039-2.184-2.276-.375-4.053-1.038-6.332-1.41a69.3,69.3,0,0,0-7.68-.839c-6.077-.3-12.485-.313-18.4-.747-6.045-.445-11.545-1.337-17.486-1.877-8.141-.738-17.353-.839-24.531-2.095-11.826-2.072-25.187-.277-38.428.607-3.186.213-6.149-.434-9.252-.657-5.587-.4-10.974-1.077-16.848-1.1-14.563-.053-29.266.045-44.081.378-10.875.246-20.658-.475-30.794-.811-9.591-.316-18.715-1.1-28.274-1.429a75.391,75.391,0,0,1-7.811-1c-2.4-.322-5.054-1.2-7.156-.878-14.34,2.2-19.533-1.233-26.59-3.555-.745-.243-1.253-.775-2.108-.758-14.178.313-13.844-4.43-18.463-7.437-2.609-1.7-5.126-3.421-7.625-5.146C.486,99.806,3.232,91.469.176,84.043c-1.1-2.674,3.166-6.363,6.909-9.442,2.073-1.7,7.3-3.784,13.9-2.565,2.476.456,6.608.126,10.052-.078,35.21-2.095,70.639-4.727,105.588-6.212,28.471-1.208,56.621-5.35,84.9-7.876,20.687-1.846,41.4-4.1,62.1-5.988,16.248-1.485,32.557-2.962,48.706-3.958,20.469-1.264,38.4.4,56.186,2.1a70.856,70.856,0,0,0,11.16.545c24.714-1.51,49.437-2.886,74.235-4.889,46.459-3.753,92.982-7.979,139.461-11.845,16.625-1.382,33.821-3.163,49.625-3.177,18.689-.02,37.491-2.928,56.044-3.6,18.382-.663,37.126-2.123,55.679-3.13,42.31-2.3,84.681-4.735,126.878-6.726,35.647-1.681,71.115-2.878,106.609-4.173,47.584-1.737,94.974-3.116,143.436-7.082,29.1-2.383,58.288-4.475,87.079-5.792a172.81,172.81,0,0,1,34.722,2.086c18.727,3.088,36.349,6.883,53.037,11.031,4.343,1.08,5.349,4.43,4.677,6.942-1.055,3.932-4.674,8.035-7.564,12.066-1.055,1.477-3.128,2.951-4.911,4.587" transform="translate(104.873 1337.131)" fill="#e9f1f4"/>
        <path id="Fill_21" data-name="Fill 21" d="M83.066,340.837h0c-.2,0-.408-.006-.606-.019a99.828,99.828,0,0,1-16.168-2.451,168.252,168.252,0,0,1-16.906-5.107,41.313,41.313,0,0,1-9.071-4.322,89.34,89.34,0,0,1-9.9-7.854c-8.1-7.148-12.211-16.772-15.159-25.242a176.254,176.254,0,0,1-6.1-22.992c-.9-4.433-1.421-9.02-1.926-13.455-.293-2.57-.6-5.223-.967-7.818-.549-3.826-1.157-7.709-1.745-11.464-.99-6.323-2.013-12.857-2.784-19.314-.16-1.339-.339-2.706-.513-4.029C.376,210.305-.5,203.622.34,197.289l.113-.858c1.1-8.359,2.237-17,8.4-23.68a10.423,10.423,0,0,0,1.53-2.483c.222-.447.45-.909.7-1.34.11-.188.217-.413.321-.63.273-.574.554-1.163.958-1.28,5.008-1.469,6.422-5.785,7.788-9.959l.161-.491q.276-.84.548-1.681a69.542,69.542,0,0,1,4.415-11.258c.192.643.38,1.285.576,1.952.19.646.386,1.316.6,2.034a4.2,4.2,0,0,1,.461-.071c.4-.048.811-.1.886-.288.334-.851.68-1.716,1.014-2.552l.006-.014a101.835,101.835,0,0,0,3.469-9.58c.777-2.7,1.368-5.508,1.94-8.221.422-2,.857-4.068,1.364-6.08a36.137,36.137,0,0,1,1.42-4.165c1.373-3.549,2.793-7.219.957-11.36-.1-.211,0-.584.3-1.14,1.732-3.227,3.462-6.506,5.136-9.678,4.107-7.784,8.354-15.832,12.861-23.55,2.915-4.99,6.173-9.886,9.324-14.621,2.478-3.723,5.037-7.569,7.419-11.443a13.947,13.947,0,0,0,1.458-4.539,22.461,22.461,0,0,1,.805-3.186,7.452,7.452,0,0,1,2.43-3.263,13.733,13.733,0,0,1,8.574-2.572,47.53,47.53,0,0,1,5.836.487c1.524.19,3.094.387,4.6.449A192.692,192.692,0,0,1,119.362,35l.016,0c2.8.455,5.7.926,8.554,1.34l1.065.153.068.01a70.294,70.294,0,0,1,9.365,1.774c3.263.932,6.549,1.993,9.727,3.019l.013,0c3.835,1.239,7.8,2.519,11.754,3.583a48.284,48.284,0,0,0,11.061,1.324c4.228.125,5.3,2.007,5.974,5.914a43.07,43.07,0,0,0,3.611,10.1c.654,1.442,1.328,2.929,1.914,4.4.161.4.3.831.429,1.242a10.212,10.212,0,0,0,.871,2.153,6.844,6.844,0,0,0,1.4,1.51c.268.236.543.48.792.736.53.546,1.094,1.085,1.64,1.605a24.709,24.709,0,0,1,3.624,4,28.24,28.24,0,0,1,4.2,8.416c1.9,7.578,3.49,15.244,4.715,22.784.48,2.95.678,6,.87,8.944.16,2.464.326,5.01.655,7.489.483,3.651,1.125,7.341,1.746,10.909.5,2.856,1.009,5.8,1.438,8.712a46.078,46.078,0,0,1,.381,7.957c-.043,1.736-.175,3.5-.3,5.208-.178,2.382-.362,4.842-.307,7.258.1,4.311.514,8.686.92,12.918q.108,1.129.215,2.258c.171,1.841.334,3.715.491,5.527.5,5.813,1.026,11.815,1.9,17.663.344,2.3.525,4.659.7,6.944.381,4.979.775,10.128,2.878,14.923a6.817,6.817,0,0,1,.065,4.439c-1.059,3.277-1.626,6.138,2.182,7.978.395.191.638.88.787,1.381.942,3.172,1.865,6.359,2.934,10.049l.125.43c.324,1.119.663,2.289,1.022,3.524,1.114-1.565,2.2-3.08,3.257-4.559,3.116-4.354,6.059-8.466,8.879-12.613.49-.722.305-2.034.157-3.089l-.017-.118a217.172,217.172,0,0,1-1.714-38.192c.4-11.149,1.455-22.9,3.406-38.107a235.708,235.708,0,0,1,9.042-40.488c2.978-9.549,6.857-18.981,10.609-28.1l.6-1.458c1.052-2.565,2.375-5.076,3.654-7.5a62.616,62.616,0,0,0,4.718-10.46c2.624-8.49,7.245-15.955,11.714-23.175,2.225-3.595,4.526-7.311,6.551-11.108,1.373-2.571,2.556-5.3,3.7-7.945,1.216-2.807,2.473-5.707,3.958-8.42a26.171,26.171,0,0,1,5.668-6.374q.394-.357.782-.712a.1.1,0,0,1,.069-.019c.482,0,2.831,1.435,3.215,2.51.664,1.852,1.612,2.677,3.075,2.677a9.083,9.083,0,0,0,2.341-.421,39.209,39.209,0,0,1,4.491-.9c1.161-.186,2.361-.377,3.525-.65.838-.2,2.13-1.066,2.095-1.529-.265-3.441,1.718-3.716,3.818-4.007a15.137,15.137,0,0,0,1.5-.258c1.6-.389,3.221-.749,4.792-1.1l.03-.007c5.273-1.168,10.725-2.375,15.94-4.867A26.6,26.6,0,0,1,350.278,0a31.278,31.278,0,0,1,9,1.369A25.625,25.625,0,0,0,366.647,2.5a18.449,18.449,0,0,0,7.414-1.462,5.083,5.083,0,0,1,1.819-.368,1.223,1.223,0,0,1,.879.247A3.928,3.928,0,0,0,379.9,2.6a8.869,8.869,0,0,0,2.717-.6,8.812,8.812,0,0,1,2.711-.6h.1a90.569,90.569,0,0,1,12.53,1.481l.024,0c2.091.346,4.253.7,6.384.978,4.739.609,8.547,3.191,12.23,5.688,1.09.739,2.215,1.5,3.35,2.2a2.935,2.935,0,0,0,1.569.339c.371,0,.767-.03,1.149-.058l.053,0c.364-.027.741-.055,1.1-.055q.108,0,.213,0c.457.555.239,1.485.028,2.384-.2.872-.416,1.773.005,2.3a1.847,1.847,0,0,0,1.521.5,7.572,7.572,0,0,0,1-.076c.437,1.221.883,2.451,1.314,3.641,1.16,3.2,2.359,6.513,3.446,9.784a9.269,9.269,0,0,1,.3,3.639c-.139,1.628-.337,3.281-.529,4.88a81.708,81.708,0,0,0-.725,8.619,13.348,13.348,0,0,1-5.079,10.674c-2.667,2.2-5.372,4.454-7.989,6.63l-.035.029-.009.008c-7.51,6.245-15.276,12.7-23.053,18.868-6.946,5.5-14.129,11.194-21.85,15.859-1.4.847-2.809,1.78-4.171,2.683-5.56,3.686-11.309,7.5-19.356,7.569,1.127-1.136,2.173-2.187,3.169-3.189l.024-.024c1.557-1.566,3.028-3.045,4.474-4.509,1.23-1.248,2.469-2.528,3.667-3.766l.009-.009c2.751-2.842,5.593-5.778,8.517-8.525a39.633,39.633,0,0,1,3.961-3.125A36.717,36.717,0,0,0,376.9,83.44a70.657,70.657,0,0,0,5.618-6.49c.621-.78,1.263-1.585,1.91-2.372a8.709,8.709,0,0,0,.785-1.2,8.9,8.9,0,0,1,.769-1.186c4.342-5.336,4.292-9.185-.184-14.2-1-1.127-1.931-2.087-2.831-2.935-.638-.6-1.32-1.378-1.979-2.132-1.464-1.672-2.975-3.4-4.187-3.4a1.223,1.223,0,0,0-.2.016c-3.835.633-7.637,3.27-10.693,5.388a46.556,46.556,0,0,0-5.92,5.206c-.763.752-1.55,1.526-2.341,2.262l-.016.015a3.3,3.3,0,0,0-.994,1.266c-1.144,3.683-3.327,6.832-5.438,9.877a41.917,41.917,0,0,0-5.013,8.63,26.826,26.826,0,0,1-3.292,5.575c-.464.659-.944,1.34-1.388,2.02-2.257,3.446-4.574,6.928-6.814,10.3l-.073.109q-1.326,1.994-2.651,3.988a3.571,3.571,0,0,1-.248.318,1.231,1.231,0,0,0-.38.679c.12,4.987-1.632,9.534-3.327,13.931a52.031,52.031,0,0,0-2.964,9.438c-.02.114-.04.238-.061.365-.117.731-.261,1.628-.673,1.835-2.915,1.449-2.685,3.928-2.2,6.344.494,2.473-.218,3.711-2.457,4.272a4.28,4.28,0,0,0-2.006,1.813.642.642,0,0,0-.106.466c1.922,5.178-1.359,7.53-4.831,10.021l-.541.389c1.907,4.582.507,8.851-.847,12.98a39.1,39.1,0,0,0-1.6,5.894c-.275,1.72-.719,3.439-1.149,5.1-1.052,4.073-2.14,8.284-.858,12.913,1.518,5.479.264,9.362-3.726,11.539a2.692,2.692,0,0,0-.658,4.73c3.52,3.575,4.888,7.875,4.436,13.942a53.991,53.991,0,0,0,.2,7.9c.273,3.659.554,7.44-.268,10.9-1.087,4.582-.105,8.633.844,12.551a53.425,53.425,0,0,1,1.11,5.389,6.017,6.017,0,0,0,.493,1.933c1,1.941,2.036,3.9,3.039,5.8l.013.025.007.014c1.031,1.952,2.1,3.971,3.123,5.967,1.9,3.688,7.38,6.469,12.747,6.469a11.471,11.471,0,0,0,5.878-1.461c6.562-3.924,13.329-8.467,20.114-13.5,8.228-6.1,17.078-13.008,27.058-21.106,6.377-5.17,12.751-10.566,18.914-15.785l.011-.009.013-.011c2.761-2.337,5.615-4.754,8.432-7.119,1.06-.889,2.108-1.847,3.123-2.775a41.459,41.459,0,0,1,7.5-5.877c5-2.778,5.088-6.887,5.19-11.646v-.017c.291-13.3.819-25.468,1.613-37.187.737-10.835,1.8-21.25,3.168-30.955a95.537,95.537,0,0,1,2.727-11.871c.508-1.847,1.032-3.754,1.492-5.638.786-3.219,1.559-6.482,2.307-9.638,1.634-6.892,3.323-14.018,5.2-20.971,1.162-4.3,2.764-8.551,4.314-12.666l.008-.022c.464-1.233.945-2.509,1.406-3.765.47-1.284.942-2.594,1.4-3.861l.008-.023c1.691-4.695,3.439-9.549,5.5-14.166l.186-.418c2.458-5.515,5-11.218,8.533-16.052a20.115,20.115,0,0,1,15.378-7.631,15.1,15.1,0,0,1,4.425.644,9.2,9.2,0,0,0,2.419.279,12.54,12.54,0,0,1,1.869.144c1.829.332,3.819.8,6.082,1.419a5.764,5.764,0,0,1,1.2.55,3.454,3.454,0,0,0,1.508.571,1.1,1.1,0,0,0,.2-.018,8.849,8.849,0,0,1,1.6-.147c2.566,0,4.795,1.156,6.95,2.274.877.455,1.781.924,2.7,1.311a8.532,8.532,0,0,0,3.253.66c.194,0,.385-.007.57-.022,1.2-.094,2.279-.139,3.294-.139,5.083,0,9.041,1.224,12.457,3.852a9.11,9.11,0,0,0,3.975,1.357,15.852,15.852,0,0,1,2.839.707,51.479,51.479,0,0,1,4.977,2.358c.692.358,1.4.726,2.091,1.065a12.576,12.576,0,0,0,1.348.241,4.235,4.235,0,0,1,2.516.865,10.607,10.607,0,0,0,3.343,2.214c1.924.952,3.913,1.936,4.578,4.544.084.324,1.128.4,2.336.484.631.045,1.282.091,1.889.176-.6,5.634,2.392,9.784,5.286,13.8.649.9,1.32,1.831,1.943,2.766a3.134,3.134,0,0,1,.385,1.714.2.2,0,0,1-.068.132c-2.439,1.562-1.8,3.178-1.13,4.889a8.619,8.619,0,0,1,.622,2.07,73.469,73.469,0,0,1,.339,8.918c0,1.842-.01,3.743.074,5.609.085,1.889.349,3.8.6,5.648.129.932.262,1.892.371,2.844.193,1.666.326,3.047.421,4.345.06.8.095,1.616.128,2.406a37.125,37.125,0,0,0,.411,4.788c.387,2.21-.1,3.66-1.281,5.891-1.715,3.263-2.3,7.208-2.868,11.024l-.01.065q-.088.593-.177,1.18a15.682,15.682,0,0,0,.047,3.739,11.729,11.729,0,0,1-.15,4.493,131.868,131.868,0,0,1-5.258,13.239l-.007.015q-.589,1.339-1.172,2.678a2.878,2.878,0,0,1-1.238,1.1,5.932,5.932,0,0,0-.908.637q-.322.3-.645.584l-.028.025c-2.138,1.926-4.158,3.745-4.484,7.184-.2,2.162-1.647,4.293-3.237,6.468-1.916,2.628-4.053,5.16-6.12,7.609-.615.728-1.311,1.554-1.973,2.349a6.441,6.441,0,0,1-1.346,1.11l-.13.089c-.774.534-1.592,1.043-2.383,1.534a26.82,26.82,0,0,0-4.886,3.571,13.654,13.654,0,0,0-1.988,2.833c-1.181,2.025-2.4,4.119-5.381,4.471-.756.087-1.656,1.571-1.893,2.529-.634,2.576-2.4,3.874-4.274,5.249-.493.362-1,.733-1.48,1.128-2.688,2.195-5.213,4.691-7.654,7.1l-.012.012c-1.065,1.053-2.166,2.142-3.267,3.191-.186.177-.391.395-.609.625-.539.572-1.1,1.163-1.39,1.163a.17.17,0,0,1-.071-.014,5.591,5.591,0,0,0-2.236-.554c-2.03,0-3.011,1.712-3.959,3.367a9.218,9.218,0,0,1-1.677,2.357c-2.22,1.953-1.461,4.432-.726,6.829a14.377,14.377,0,0,1,.747,3.347c.338,6.678,3.51,12.257,6.578,17.652a83.011,83.011,0,0,1,4.166,7.986c.443,1.026.794,2.111,1.133,3.161.267.825.542,1.675.859,2.49,2.205,5.675,6.833,9.313,10.916,12.523a13.726,13.726,0,0,0,8.613,3.325,15.849,15.849,0,0,0,7.809-2.329c3.188-1.8,6.49-3.513,9.683-5.173l.016-.008c3.34-1.736,6.794-3.532,10.125-5.422,4.421-2.512,8.786-5.305,13.007-8.006l.018-.011q1.489-.953,2.98-1.9l2.734-1.736c6.1-3.873,12.414-7.877,18.527-11.953q3.417-2.278,6.838-4.551c10.887-7.239,22.14-14.721,32.988-22.4,4.9-3.468,9.635-7.352,14.213-11.108,2.636-2.162,5.361-4.4,8.091-6.532,2.463-1.924,5.011-3.815,7.475-5.642,4.051-3.005,8.238-6.111,12.136-9.435l10.528,16.644c-.366-.018-.771-.028-1.242-.028-.72,0-1.472.023-2.268.048-.572.018-1.16.036-1.8.048,4.472,7.178,4.853,12.82,1.237,18.293-5.585,8.452-11.385,16.965-16.994,25.2l-.7,1.027a5.73,5.73,0,0,1-1.107,1.107,5.744,5.744,0,0,0-1.107,1.107c-.1.15-.211.3-.32.458l-.019.028a6.655,6.655,0,0,0-1.542,3.242c0,.224-.008.448-.011.67-.039,2.857-.076,5.548-3.981,6.078-.486.064-1.1.761-1.334,1.341-1.134,2.828-2.419,6.033-6.306,6.625a1.54,1.54,0,0,0-.954.732c-1.691,3.091-4.409,5.134-7.037,7.11a32.253,32.253,0,0,0-5.226,4.55l-.31.361c-2.65,3.082-5.154,5.993-8.635,8.076-.331.2-.667.395-1.005.593a19.844,19.844,0,0,0-5.544,4.158,49.811,49.811,0,0,0-3.944,5.963c-.9,1.515-1.831,3.079-2.86,4.532a12.744,12.744,0,0,1-2.381,2.336,16.573,16.573,0,0,0-1.978,1.817,66.043,66.043,0,0,0-4.565,6.029c-1.848,2.686-4.069,5.172-7.773,5.173a9.25,9.25,0,0,1-1.521-.132c-.08,3.871-1.674,5.842-5.5,6.8-5.9,1.48-9.892,4.331-14.73,10.518a6.958,6.958,0,0,0-2.977-.84,4.065,4.065,0,0,0-3.486,2.3c-.428.689-1.935,1-3.154,1-.195,0-.381-.008-.555-.023q-.742-.064-1.479-.132l-.112-.01c-2.471-.225-4.8-.438-7.21-.438a28.713,28.713,0,0,0-7.8.979,11.749,11.749,0,0,1-3.141.389,36.827,36.827,0,0,1-7.879-1.22c-1.13-.258-2.3-.524-3.418-.732l-1.392-.257a113.256,113.256,0,0,1-15.9-3.734c-6.2-2.109-12.35-4.729-18.3-7.261-1.418-.6-3.021-1.287-4.57-1.938a42.424,42.424,0,0,1-3.95-2c-1.155-.635-2.348-1.291-3.568-1.831C467.831,307.178,458.258,296.2,449,285.575l-.057-.065q-1.226-1.407-2.454-2.809a68.279,68.279,0,0,1-7.158-10.689c-1.1-1.883-2.239-3.829-3.5-5.825l-18.559,21.234-.87,1c1.382,4.368-1.313,7.09-4.432,9.38-1.8,1.328-3.086,3.463-4.325,5.528-.4.669-.816,1.36-1.243,2.013-.282.43-.553.866-.815,1.287-1.423,2.287-2.766,4.445-5.76,5.764-2.52,1.11-4.472,3.706-6.359,6.217-.369.491-.749,1-1.122,1.474a6.417,6.417,0,0,1-5.459,2.724,18,18,0,0,1-3.164-.356,14.527,14.527,0,0,0-2.541-.223c-1.181,0-3.282.152-4.084,1.172-2.781,3.544-5.621,5.287-9.5,5.828-2.525.353-5.068.9-7.527,1.432-2.519.543-5.117,1.1-7.7,1.456-5.172.7-10.772,1.173-17.122,1.434q-.118.005-.237,0a12.821,12.821,0,0,1-3.5-.682,23.7,23.7,0,0,0-2.306-.584l-.362-.1-.071-.019q-3.109-.848-6.213-1.7c-.733-.2-1.485-.387-2.212-.567a39.861,39.861,0,0,1-4.918-1.444,107.267,107.267,0,0,1-11.3-4.982c-7.911-4.206-16.09-8.738-24.309-13.47-3.179-1.828-6.322-3.862-9.361-5.829-1.386-.9-2.818-1.824-4.244-2.725a32.1,32.1,0,0,0-1.986,2.86c-1.4,2.173-2.718,4.224-4.252,4.386-3.237.346-5.706,2.289-8.094,4.168-2.6,2.045-5.054,3.977-8.391,3.977-.225,0-.455-.009-.683-.027a54.594,54.594,0,0,1-8.646-1.644l-.016,0c-1.322-.326-2.69-.663-4.039-.945-.166-.035-.356-.081-.557-.131a6.893,6.893,0,0,0-1.341-.246c-.175,0-.284.034-.332.1-1.357,1.975-2.914,2.935-4.76,2.935a12.835,12.835,0,0,1-4.68-1.294,17.262,17.262,0,0,0-3.3-1.123,47.519,47.519,0,0,1-11.636-4.352,123.288,123.288,0,0,1-18.416-10.558,65.9,65.9,0,0,1-15.313-14.861,18.71,18.71,0,0,0-3.023-2.991c-.679-.585-1.449-1.248-2.3-2.042-.235.719-.442,1.36-.642,1.981l-.01.032c-.466,1.445-.834,2.585-1.243,3.738-.1.292-.2.627-.293.982-.267.97-.542,1.969-1.067,2.143-2.771.919-3.94,3.164-5.071,5.336a14.484,14.484,0,0,1-2.327,3.572,51.808,51.808,0,0,0-4.106,4.914c-2.714,3.535-5.521,7.19-10.071,9.057-1.22.5-2.035,1.892-2.9,3.366a16.79,16.79,0,0,1-1.589,2.4,18.427,18.427,0,0,1-1.59,1.587,13.057,13.057,0,0,0-1.774,1.852,24.452,24.452,0,0,0-1.234,2.255c-.873,1.733-1.775,3.524-3.114,4.016a10.71,10.71,0,0,0-2.287,1.354c-1.209.848-2.459,1.725-3.79,1.726-1.174,0-2.263-.69-3.329-2.11-.706,3.7-4.314,5.126-9.513,6.124A93.766,93.766,0,0,0,97.356,337.1c-2.042.664-4.145,1.347-6.232,1.937-.552.156-1.117.328-1.664.494A22.748,22.748,0,0,1,83.066,340.837Zm49.5-249.364c-3.38,0-5.823,1.767-7.688,5.562a10.708,10.708,0,0,1-3.459,4.092c-4.274,2.821-6.58,6.229-7.255,10.725-.92,6.144-3.342,11.881-5.684,17.428l-.009.022c-.384.909-.781,1.85-1.165,2.777-.251.607-.56,1.2-.858,1.777a17.908,17.908,0,0,0-1.047,2.271L93.792,166.141a50.563,50.563,0,0,1-9.357,23.007,2.759,2.759,0,0,0-.277,1.468c0,.062,0,.124,0,.184-.037,1.346-.06,2.712-.083,4.032-.031,1.807-.063,3.676-.13,5.513a33.256,33.256,0,0,1-2.11,9.187c-1.349,4.062-2.743,8.263-1.848,12.858a7.781,7.781,0,0,1-1.339,5.4c-2.1,2.908-2.665,5.86-1.9,9.869a90.026,90.026,0,0,1,1.1,8.941c.157,1.756.318,3.573.541,5.352a7.3,7.3,0,0,0,.775,2.142c.192.4.409.862.617,1.371,1.057-.906,2.08-1.728,3.07-2.522a43.5,43.5,0,0,0,5.41-4.843,281.557,281.557,0,0,0,27.91-37.066c.965-1.539,2.039-3.049,3.078-4.51a58.244,58.244,0,0,0,4.683-7.332c1.9-3.763,3.573-7.724,5.189-11.554,1.136-2.691,2.309-5.469,3.551-8.158.525-1.137,1.1-2.276,1.653-3.378l0-.009c2.159-4.288,4.391-8.722,4.223-13.928a2.646,2.646,0,0,1,.433-1.229l.008-.014c.043-.081.086-.16.126-.238.394-.771.834-1.541,1.26-2.286a25.143,25.143,0,0,0,2.4-5c.888-2.907,1.465-6.28-1-9.253-4.162-5.025-3.046-11.024-2.06-16.316a13.469,13.469,0,0,1,1.819-4.1c.354-.609.72-1.238,1.031-1.869s.755-1.351,1.188-2.052c.951-1.54,1.935-3.132,1.515-3.805a22,22,0,0,1-2.426-7.36c-.75-3.685-1.526-7.495-4.943-10.168a3.243,3.243,0,0,1-1.336-2.818c.111-1.356,1.16-2.644,2.954-3.625h-.293c-.519,0-.952.013-1.27.024l-.164.005c-.3.01-.555.018-.788.018a3.73,3.73,0,0,1-.984-.1A13.347,13.347,0,0,0,132.566,91.473Zm348.4,50.8v0l0,0a.633.633,0,0,0,.169.075,1.429,1.429,0,0,0,.439.078.789.789,0,0,0,.271-.044c5.651-2.1,12.156-4.916,17.549-9.831a31.865,31.865,0,0,0,10.33-17.437c1.27-6.116.075-11.375-3.552-15.633a37.306,37.306,0,0,0-3.59-3.512c-.456-.407-.926-.828-1.383-1.252a2.234,2.234,0,0,0-1.553-.672,4.28,4.28,0,0,0-2.329,1,6.765,6.765,0,0,0-2.419,2.717,26.733,26.733,0,0,1-2.807,5.009,22.573,22.573,0,0,0-3.156,6.047c-.34,1.174-.8,2.333-1.249,3.453-.3.763-.618,1.549-.891,2.335-.487,1.4-.937,2.831-1.372,4.219-.188.6-.375,1.2-.565,1.789-.034.107-.07.214-.105.321-.1.305-.206.621-.284.939-.21.874-.408,1.761-.6,2.618l-.007.031q-.106.472-.212.944c-.248,1.091-.507,2.2-.757,3.272l-.008.036c-.652,2.79-1.324,5.669-1.871,8.521a13.818,13.818,0,0,0-.091,3.175c.025.571.051,1.161.051,1.8Z" transform="translate(812.768 917.64)" fill="#e9f1f4"/>
        <path id="Fill_23" data-name="Fill 23" d="M270.276,576.8a11.159,11.159,0,0,1-3.434-.705,57.922,57.922,0,0,1-9.171-3.726c-1.672-.917-3.384-1.838-5.039-2.728l-.009-.005a182.494,182.494,0,0,1-18.67-11.016c-7.46-5.257-12.312-12.789-16.274-19.437a116.784,116.784,0,0,1-11.421-27.069c-1.44-4.9-3.041-9.836-4.59-14.613-1.58-4.873-3.213-9.912-4.676-14.906-.984-3.361-1.806-6.83-2.6-10.184-1.065-4.492-2.165-9.134-3.665-13.571-3.656-10.793-7.685-21.075-11.975-30.558a47.021,47.021,0,0,0-6.252-9.338c-.973-1.231-1.975-2.5-2.9-3.768a3.128,3.128,0,0,0-2.479-1.535,4.329,4.329,0,0,0-2.966,1.626c-4.273,4.478-8.6,9.12-12.871,13.8a6.786,6.786,0,0,0-.969,1.554,7.061,7.061,0,0,1-.928,1.508c-.921,1.048-1.951,2.049-2.947,3.016-.522.507-1.061,1.031-1.579,1.556-.282.284-.55.59-.81.885a13.5,13.5,0,0,1-1.23,1.282,21.982,21.982,0,0,1-3.2,2.447c-1.506.885-3.062,1.742-4.568,2.572-1.59.876-3.23,1.78-4.812,2.716-1.912,1.129-3.8,2.361-5.632,3.552C119,453.8,113.2,457.58,106.062,458.9c-.531.1-1.354.424-1.451.763-.223.766-.469,1.545-.707,2.3l0,.01a34.061,34.061,0,0,0-1.735,7.321,16.762,16.762,0,0,0,.113,2.979c.213,2.187.434,4.447-1.353,6.583a1.814,1.814,0,0,0-.2,1.247,4.023,4.023,0,0,1-.013.861c-.178,1.049-.4,2.113-.62,3.141q-.1.458-.192.917a5.734,5.734,0,0,1-.225.725c-.181.507-.369,1.031-.165,1.309,2.824,3.844,1.956,7.9,1.116,11.828a33.834,33.834,0,0,0-.793,4.835c-.162,2.5-.169,5.035-.177,7.492,0,1.284-.008,2.613-.034,3.926a8.487,8.487,0,0,1-.268,1.871c-.11.44-.228.878-.343,1.3-.734,2.719-1.428,5.287-.09,8.2.773,1.676-.034,4.192-.852,6.418a13.218,13.218,0,0,0-.6,3.261c-.219,2.213-.446,4.5-2.9,6.248-.713.505-.534,2.2-.39,3.566.017.163.034.32.048.468a13.456,13.456,0,0,0,.672,2.737c.139.437.283.887.413,1.359-.8.392-1.6.769-2.372,1.133a57.045,57.045,0,0,0-5.54,2.853,4.159,4.159,0,0,0-1.679,2.958l-.016.334c-.149,3.064-.266,5.484-4.457,7.12-2.709,1.058-4.839,4.308-6.206,6.661-.574.988-1.184,1.448-1.918,1.448a4.1,4.1,0,0,1-1.4-.35c-.2-.076-.414-.155-.626-.22l-1.123-.343c-4.517-1.381-9.188-2.808-13.7-4.4a50.415,50.415,0,0,1-6.21-2.847l-.086-.044q-.493-.254-.985-.505c-1.195-.609-2.382-1.269-3.529-1.907-1.674-.931-3.406-1.894-5.187-2.711-2.971-1.363-6.011-2.7-8.951-4-4.568-2.015-9.29-4.1-13.839-6.3a4.2,4.2,0,0,1-1.585-2.066,4.5,4.5,0,0,0-1.547-2.07,3.007,3.007,0,0,0-1.455-.275c-.428,0-.894.038-1.305.072l-.04,0c-.433.035-.843.068-1.219.068a1.838,1.838,0,0,1-1.314-.344,24.229,24.229,0,0,1-4.883-7.416,91.383,91.383,0,0,1-3.415-9.5Q.4,526.867.064,525.828a2.039,2.039,0,0,1,.469-1.909c3.918-2.091,4.279-5.467,4.628-8.732.061-.57.124-1.159.206-1.725.64-4.437,1.134-8.963,1.612-13.34.627-5.75,1.276-11.692,2.264-17.5,1.49-8.757,3.449-17.614,5.344-26.179.634-2.868,1.29-5.83,1.919-8.75,1.342-6.219,2.862-13.268.359-20.245-.695-1.932-.307-4.254.068-6.5.068-.405.137-.822.2-1.223.3-2.022.723-4.071,1.128-6.053a81.152,81.152,0,0,0,1.469-8.838c.525-5.795.864-11.69,1.192-17.392v-.015c.225-3.914.458-7.962.748-11.941.809-11.1,1.715-22.363,2.592-33.258q.289-3.589.577-7.177c.331-4.132.654-8.288.967-12.307.831-10.682,1.69-21.719,2.7-32.567.84-8.985,1.974-27.042,3.071-44.5,1.136-18.088,2.311-36.787,3.191-46.026.606-6.382,1.119-16.754,1.531-25.089l0-.037c.142-2.865.276-5.572.4-7.777.209-3.814.412-19.926.2-23.969-.007-.136-.017-.389-.031-.732-.115-2.89-.466-11.684-1.342-12.286a.282.282,0,0,0,.044.005.137.137,0,0,0,.1-.049c.688-.72.385-9.024.223-12.561-.285-6.245-.8-12.609-1.012-12.609-.025,0-.046.09-.062.268.122-1.962.755-9.224,1.353-10.261,1.933-3.352.819-6.724-.36-10.294a25.383,25.383,0,0,1-1.452-5.968c-.065-.885.047-6.89.177-13.844.164-8.756.35-18.68.195-19.8a2.879,2.879,0,0,0-1.092-1.464,7.2,7.2,0,0,1-.58-.564c.995-1.367,1.431-8.342,1.893-15.727.492-7.863,1-15.993,2.239-17.328.463-.5,1-1.174,1.56-1.889,1.4-1.772,2.983-3.781,4.536-4.524.386-.185.777-.377,1.172-.571l.017-.008C46.93,1.357,49.465.111,51.958.01c.164-.006.331-.01.5-.01C60.335,0,68.66,7.431,74.739,12.857a27.163,27.163,0,0,1,2.075,4.481c1.417,3.4,3.024,7.26,3.71,7.26l.114,0c3.383,0,4.06,6.487,4.465,10.363.073.7.137,1.309.205,1.749.139.9.309,2.744.506,4.877.413,4.479.928,10.054,1.566,11.816.295.81.7,6.635,1.1,12.269.372,5.326.723,10.353.969,11.112a61.289,61.289,0,0,1,2.4,9.429c.4,2.568,1.268,6.716,2.181,11.108.939,4.511,1.909,9.176,2.323,11.907.114.757.286,3.324.485,6.3.334,5.006.75,11.234,1.13,12.47a75.5,75.5,0,0,1,1.212,9.347,77.185,77.185,0,0,0,1.073,8.532c.8,2.9,1.6,9.918,2.3,16.113.515,4.531,1,8.811,1.425,10.947.692,3.486,1.135,9.909,1.525,15.576.213,3.094.414,6.015.628,7.986.866,7.966,1.664,46.714,1.275,54.374a72.13,72.13,0,0,0,.434,9.029c.486,5.635.989,11.462-.212,15.671a7.036,7.036,0,0,0,.114,3.017c.108.646.23,1.378.309,2.214.832-.641,1.586-1.185,2.316-1.712a26.111,26.111,0,0,0,3.574-2.889c2.651-2.754,5.294-5.6,7.851-8.343,4.515-4.852,9.178-9.864,14.037-14.567a65.8,65.8,0,0,1,10.386-7.624c.887-.567,1.8-1.153,2.7-1.738a125.165,125.165,0,0,1,11.581-6.794,24,24,0,0,1,11.056-2.594,31.413,31.413,0,0,1,4.97.414c2.328.375,4.716.658,7.026.932,5.818.689,11.834,1.4,17.374,3.65a51.88,51.88,0,0,0,6.789,2.047c1.195.3,2.429.613,3.621.962a6.319,6.319,0,0,1,2.131,1c2.393,1.9,4.81,3.844,7.147,5.727l.013.01c2.477,1.995,5.038,4.058,7.579,6.069.286.226.586.445.876.656,1.568,1.142,3.049,2.221,2.715,4.576-.088.621,1.361,1.779,2.284,1.979,3.971.854,5.862,3.629,7.691,6.312.513.752,1.041,1.527,1.6,2.231a41.2,41.2,0,0,1,4.786,8.543c.577,1.254,1.174,2.55,1.81,3.79a3.014,3.014,0,0,1,.3.9c.133.807.235,1.637.333,2.439a28.839,28.839,0,0,0,.934,5.07c.729,2.344-.356,4.255-1.406,6.1a12.389,12.389,0,0,0-1.523,3.447,40.306,40.306,0,0,1-2.389,6.97A20.312,20.312,0,0,1,245,310.686a11.98,11.98,0,0,0-1.61,3.65c-.533,2.946-2.67,4.7-4.737,6.389a27.206,27.206,0,0,0-2.516,2.241,8.637,8.637,0,0,0-2.024,4.929c-.289,2.833-1.623,4.368-4.2,4.832a5.2,5.2,0,0,0-4.548,3.885l-.056.179c-.468,1.488-.951,3.026-3.374,3.026-.179,0-.366-.009-.559-.025l-.062,0c-.981,0-2.706,2.026-3.313,3.348-.179.391-.349.786-.513,1.169-.973,2.268-1.891,4.41-4.642,5.676-.764.353-1.238,1.7-1.37,2.514-.355,2.227-1.1,3.876-3.6,4.684-.576.186-1.007,1.039-1.322,1.661l-.036.071c-.522,1.029-1.018,2.09-1.5,3.116a59.606,59.606,0,0,1-2.824,5.53c-2.6,4.325-2.115,6.926,1.791,9.594,1.968,1.344,4.112,2.541,6.186,3.7,1.554.868,3.156,1.763,4.676,2.713q1.2.75,2.4,1.5l.046.029c4.476,2.785,9.105,5.665,13.391,8.794a108.821,108.821,0,0,1,14.015,11.634,125.067,125.067,0,0,1,8.849,10.595c1.315,1.7,2.674,3.454,4.058,5.152,1.073,1.317,2.211,2.628,3.312,3.9a80.924,80.924,0,0,1,6.384,8.013,85.637,85.637,0,0,1,5.267,9.6l0,.01c.64,1.3,1.3,2.635,1.979,3.938q.262.5.526,1.007l.014.027c.922,1.759,1.874,3.578,2.651,5.424,2.522,6.007,4.989,12.146,7.375,18.083l.215.536a5.168,5.168,0,0,1,.261,1.654q.005.106.011.211c.042.822.077,1.651.111,2.452.212,4.97.431,10.11,2.183,15.065a59.08,59.08,0,0,1,2.422,11.98l0,.02c.11.837.224,1.7.343,2.55a16.069,16.069,0,0,1-.026,3.451,16.126,16.126,0,0,0-.027,3.438c.413,3,1.016,5.974,1.654,9.127.276,1.366.561,2.774.841,4.231a24.333,24.333,0,0,1,4.863-1.15c2.555-.464,5.194-.944,5.887-1.548,2.88-2.519,10.974-3.047,17.258-3.047,9.855,0,19.708,1.24,19.713,1.5.029,2.3-1.372,4.179-2.728,6-1.56,2.094-3.173,4.26-2.749,7.132.113.769-.674.966-1.671,1.215a5.693,5.693,0,0,0-2.855,1.346c-.18.186-1.419,1.215-2.853,2.408-2.08,1.729-4.663,3.876-4.874,4.166-1.75,2.4-8.745,7.837-11.816,9.433-1.336.694-7.247,6.229-8.063,7.915-.842,1.74-1.849,3.452-2.822,5.107-.3.516-.607,1.032-.906,1.55-.494.851-2.559,1.047-4.556,1.237-1.85.176-3.761.357-4.352,1.066a10.145,10.145,0,0,1-3.527,2.453,3.919,3.919,0,0,1-1.606.288,7.456,7.456,0,0,1-1.361-.132,10.205,10.205,0,0,0-1.9-.181c-2.853,0-5.322,1.249-7.709,2.456-.946.479-1.923.972-2.915,1.386A3.38,3.38,0,0,1,270.276,576.8Zm-98.491-293.84c-.941.332-1.793.58-2.545.8a10.4,10.4,0,0,0-3.366,1.366,26.864,26.864,0,0,1-5.361,2.9c-2.9,1.3-5.9,2.635-7.944,5.483a33.251,33.251,0,0,1-5.787,5.714,44.713,44.713,0,0,0-4.71,4.356c-6.572,7.4-11.705,13.838-15.4,21.209a11.812,11.812,0,0,1-1.72,2.326,8.389,8.389,0,0,0-1.936,2.937c-1.458,5.2-4.171,9.664-7.042,14.392-2.49,4.1-4.055,8.723-5.568,13.195-.62,1.833-1.262,3.729-1.958,5.563a1.994,1.994,0,0,0-.022,1.852,1.923,1.923,0,0,0,1.68.626c.169,0,.351-.009.54-.027.613-.057,1.24-.1,1.848-.14a27.545,27.545,0,0,0,4.747-.594c1.019-.253,2.081-.433,3.107-.608,3.393-.577,6.9-1.173,9.369-4.488,2.518-3.383,5.413-6.624,8.212-9.759,1.5-1.68,3.046-3.412,4.518-5.145,8.905-10.492,14.893-19.912,18.845-29.646,4.12-10.153,7.334-18.377,10.112-25.882a10.773,10.773,0,0,0,.372-3.979C171.762,284.634,171.745,283.835,171.785,282.962Z" transform="translate(288.402 0)" fill="#e9f1f4"/>
      </g>
    </g>
  </g>
</svg>
