<svg xmlns="http://www.w3.org/2000/svg" viewBox="0 0 121.86 121.88"><defs><style>.cls-1{font-size:19px;font-family:Dotum;}.cls-1,.cls-2{fill:#4c67fe;}</style></defs><g id="Calque_2" data-name="Calque 2"><g id="Calque_1-2" data-name="Calque 1"><text class="cls-1" transform="translate(15.27 59.46) rotate(-76.2)">홈</text><text class="cls-1" transform="matrix(0.58, -0.81, 0.81, 0.58, 19.06, 42.66)">페</text><text class="cls-1" transform="translate(28.8 28.48) rotate(-32.75)">이</text><text class="cls-1" transform="translate(43.07 18.88) rotate(-10.94)">지</text><text class="cls-1" transform="translate(60.2 16.16) rotate(3.08)"> </text><text class="cls-1" transform="translate(65.13 15.45) rotate(17.28)">준</text><text class="cls-1" transform="matrix(0.78, 0.63, -0.63, 0.78, 81.64, 20.23)">비</text><text class="cls-1" transform="translate(95.23 30.8) rotate(60.66)">중</text><text class="cls-1" transform="translate(103.23 46.21) rotate(74.9)"> </text><text class="cls-1" transform="matrix(0.15, 0.99, -0.99, 0.15, 104.63, 51.13)"> </text><text class="cls-1" transform="matrix(0.03, 1, -1, 0.03, 105.46, 56.22)"> </text><text class="cls-1" transform="matrix(-0.21, 0.98, -0.98, -0.21, 106.59, 61.06)">홈</text><text class="cls-1" transform="matrix(-0.56, 0.83, -0.83, -0.56, 103.32, 77.94)">페</text><text class="cls-1" transform="matrix(-0.82, 0.57, -0.57, -0.82, 94.01, 92.41)">이</text><text class="cls-1" transform="translate(80.01 102.44) rotate(167.36)">지</text><text class="cls-1" transform="translate(62.95 105.67) rotate(-178.57)"> </text><text class="cls-1" transform="translate(58.06 106.52) rotate(-164.43)">준</text><text class="cls-1" transform="translate(41.4 102.23) rotate(-142.65)">비</text><text class="cls-1" transform="translate(27.52 92.07) rotate(-121.03)">중</text><circle class="cls-2" cx="60.88" cy="60.93" r="34.93"/></g></g></svg>