<?xml version="1.0" encoding="utf-8"?>
<!-- Generator: Adobe Illustrator 22.0.1, SVG Export Plug-In . SVG Version: 6.00 Build 0)  -->
<svg version="1.1" id="Calque_1" xmlns="http://www.w3.org/2000/svg" xmlns:xlink="http://www.w3.org/1999/xlink" x="0px" y="0px"
	 viewBox="0 0 47.3 54.7" style="enable-background:new 0 0 47.3 54.7;" xml:space="preserve">
<style type="text/css">
	.st0{fill:#FC0000;}
</style>
<path class="st0" d="M39.5,29.3v25H14.1v-3.5h-3.5v-25H-0.2v-3.9h3.6v-3.5H7v-3.6h3.6v-3.5h3.5V7.5h3.6V4h3.5V0.4h3.9V4h3.6v3.5h3.5
	v3.6h3.6v3.5h3.5v3.6h3.6v3.5h3.5v7.5H39.5z M39.2,18.6h-3.6V15H32v-3.6h-3.6V7.9h-3.5V4.3h-3.3v3.6H18v3.5h-3.5V15h-3.6v3.5H7.3
	v3.3h7.1v25H32v-25h7.1V18.6z"/>
</svg>
