<?xml version="1.0" encoding="utf-8"?>
<!-- Generator: Adobe Illustrator 22.0.1, SVG Export Plug-In . SVG Version: 6.00 Build 0)  -->
<svg version="1.1" id="Calque_1" xmlns="http://www.w3.org/2000/svg" xmlns:xlink="http://www.w3.org/1999/xlink" x="0px" y="0px"
	 viewBox="0 0 49.7 51.3" style="enable-background:new 0 0 49.7 51.3;" xml:space="preserve">
<style type="text/css">
	.st0{fill:#FFFFFF;}
</style>
<path class="st0" d="M46.4,32.6v3.5H43v3.6h-3.6v3.5h-3.5v3.6h-3.6v3.5h-3.9v-3.5H25v-7H3.6v-3.6H0V11h24.8V0.4h3.9V4h3.5v3.6h3.6
	V11h3.5v3.6h3.6v3.5h3.5v3.6H50v10.9L46.4,32.6L46.4,32.6z M46.1,22h-3.6v-3.5h-3.5v-3.7h-3.6v-3.5H32V7.8h-3.3v7H4v17.5h24.8v7H32
	v-3.5h3.5v-3.6h3.6v-3.6h3.5v-3.6h3.6V22z"/>
</svg>
