<?xml version="1.0" encoding="utf-8"?>
<!-- Generator: Adobe Illustrator 22.0.1, SVG Export Plug-In . SVG Version: 6.00 Build 0)  -->
<svg version="1.1" id="Calque_1" xmlns="http://www.w3.org/2000/svg" xmlns:xlink="http://www.w3.org/1999/xlink" x="0px" y="0px"
	 viewBox="0 0 33.1 26.8" style="enable-background:new 0 0 33.1 26.8;" xml:space="preserve">
<style type="text/css">
	.st0{fill:#FC0000;}
</style>
<g>
	<path class="st0" d="M31.1,12.4v2.1h-8.3v2.1h-2.1v4.1h-2.1v4.1h-2.1v2.1H6.1v-2.1H2v-2h-2.1V8.1h6.2V6h2.1V3.9h6.2V1.8h2.1v-2h2.3
		v2.1h2.1v4.3h-2.1v1.9h12.4v2.1h2.1v2.3h-2.2V12.4z M30.9,10.3H14.4V8h2.1V5.9h2.1V2h-1.9v2.1h-2.1v2.1H8.3v2.1H6.2v2.1H2.1v10.2v2
		h4.1v2.1h10.2v-1.9h-4.1v-2.3h6.2v-1.9h-4.1v-2.3h6.2v-1.9h-4.1v-2.3H31v-1.8H30.9z"/>
</g>
</svg>
