<?xml version="1.0" encoding="utf-8"?>
<!-- Generator: Adobe Illustrator 22.0.1, SVG Export Plug-In . SVG Version: 6.00 Build 0)  -->
<svg version="1.1" id="Calque_1" xmlns="http://www.w3.org/2000/svg" xmlns:xlink="http://www.w3.org/1999/xlink" x="0px" y="0px"
	 viewBox="0 0 70 55" style="enable-background:new 0 0 70 55;" xml:space="preserve">
<style type="text/css">
	.st0{fill:#FC0000;}
</style>
<g>
	<path class="st0" d="M51.8,28.6v2.1h-8.3v2.1h-2.1v4.1h-2.1V41h-2.1v2.1H26.8V41h-4.1V39h-2.1V24.3h6.2v-2.1h2.1v-2.1h6.2v-2.1h2.1
		V16h2.3v2.1h2.1v4.3h-2.1v1.9h12.4v2.1h2.1v2.3H51.8z M51.6,26.5H35.1v-2.3h2.1v-2.1h2.1v-3.9h-1.9v2.1h-2.1v2.1H29v2.1h-2.1v2.1
		h-4.1v10.2v2h4.1v2.1h10.2V39H33v-2.3h6.2v-1.9h-4.1v-2.3h6.2v-1.9h-4.1v-2.3h14.5V26.5z"/>
</g>
</svg>
