<?xml version="1.0" encoding="utf-8"?>
<!-- Generator: Adobe Illustrator 22.0.1, SVG Export Plug-In . SVG Version: 6.00 Build 0)  -->
<svg version="1.1" id="Calque_1" xmlns="http://www.w3.org/2000/svg" xmlns:xlink="http://www.w3.org/1999/xlink" x="0px" y="0px"
	 viewBox="0 0 55.4 51.3" style="enable-background:new 0 0 55.4 51.3;" xml:space="preserve">
<style type="text/css">
	.st0{fill:#FC0000;}
</style>
<path class="st0" d="M113.8-6.4v3.5h-3.5v3.6h-3.6v3.5h-3.5v3.6h-3.6v3.5h-3.9V7.7h-3.5V0.7H70.6v-3.6H67v-25.3h25V-39h3.9v3.6h3.5
	v3.6h3.6v3.5h3.5v3.6h3.6v3.5h3.5v3.6h3.8v11L113.8-6.4L113.8-6.4z M113.5-17.1h-3.6v-3.5h-3.5v-3.7h-3.6v-3.5h-3.5v-3.6H96v7.1H71
	v17.6h25v7.1h3.3v-3.5h3.5v-3.6h3.6v-3.6h3.5v-3.6h3.6V-17.1z"/>
<rect x="-75.1" y="-34.2" style="fill:none;" width="65" height="56.3"/>
<text transform="matrix(1 0 0 1 -75.0877 -27.3829)" style="font-family:'VTFMisterPixel-Tools'; font-size:12px;">‡</text>
<g>
	<path class="st0" d="M23.2,51.3v-4.7h-4.7V42h-4.6v-4.7H9.3v-4.6H4.7v-4.7H0v-5h4.7v-4.6h4.6v-4.7h4.7V9.3h4.6V4.6h4.7V0h9.6v5
		h-4.6v4.6h-4.7v4.7H19v4.6h-4.7v4.7H9.7v4.2h4.6v4.6H19V37h4.6v4.6h4.7v4.7h4.6v5H23.2z M46.3,51.3v-4.7h-4.6V42H37v-4.7h-4.6v-4.6
		h-4.7v-4.7h-4.6v-5h4.6v-4.6h4.7v-4.7H37V9.3h4.7V4.6h4.6V0H56v5h-4.7v4.6h-4.6v4.7H42v4.6h-4.6v4.7h-4.7v4.2h4.7v4.6H42V37h4.7
		v4.6h4.6v4.7H56v5H46.3z"/>
</g>
</svg>
