<?xml version="1.0" encoding="utf-8"?>
<!-- Generator: Adobe Illustrator 22.0.1, SVG Export Plug-In . SVG Version: 6.00 Build 0)  -->
<svg version="1.1" id="Calque_1" xmlns="http://www.w3.org/2000/svg" xmlns:xlink="http://www.w3.org/1999/xlink" x="0px" y="0px"
	 viewBox="0 0 50.6 51.3" style="enable-background:new 0 0 50.6 51.3;" xml:space="preserve">
<style type="text/css">
	.st0{fill:#FC0000;}
</style>
<path class="st0" d="M109.1-6.4v3.5h-3.5v3.6H102v3.5h-3.5v3.6h-3.6v3.5H91V7.7h-3.5V0.7H65.9v-3.6h-3.6v-25.3h25V-39h3.9v3.6h3.5
	v3.6h3.6v3.5h3.5v3.6h3.6v3.5h3.5v3.6h3.8v11L109.1-6.4L109.1-6.4z M108.8-17.1h-3.6v-3.5h-3.5v-3.7h-3.6v-3.5h-3.5v-3.6h-3.3v7.1
	h-25v17.6h25v7.1h3.3v-3.5h3.5v-3.6h3.6v-3.6h3.5v-3.6h3.6V-17.1z"/>
<g>
	<path class="st0" d="M46.9,31.9v19.3H4.1V31.9H0.2v-8h3.9v-3.9h3.8v-3.8h3.9v-3.9h3.8V8.4h3.9V4.5h3.8V0.7h4.2v3.8h3.9v3.9h3.8v3.8
		h3.9v3.9H43v3.8h3.9v3.9h3.8v8H46.9z M38.8,24.1H35v-3.8h-3.9v-3.9h-3.8v-3.8h-3.9V8.7h-3.5v3.9H16v3.8h-3.9v3.9H8.3v3.8H4.4v3.5
		h3.9v4V47h7.4V31.6h15.8V47h7.4V31.7V24.1z"/>
</g>
<g>
	<path class="st0" d="M14.9-15.6v-4.7h-4.7v-4.6H5.7v-4.7H1v-4.6h-4.6v-4.7h-4.7v-5h4.7v-4.6H1V-53h4.7v-4.6h4.6v-4.7h4.7v-4.6h9.6
		v5H20v4.6h-4.7v4.7h-4.6v4.6H6v4.7H1.4v4.2H6v4.6h4.7v4.7h4.6v4.6H20v4.7h4.6v5H14.9z M38-15.6v-4.7h-4.6v-4.6h-4.7v-4.7h-4.6v-4.6
		h-4.7v-4.7h-4.6v-5h4.6v-4.6h4.7V-53h4.6v-4.6h4.7v-4.7H38v-4.6h9.7v5H43v4.6h-4.6v4.7h-4.7v4.6h-4.6v4.7h-4.7v4.2h4.7v4.6h4.6v4.7
		h4.7v4.6H43v4.7h4.7v5H38z"/>
</g>
</svg>
