<svg xmlns="http://www.w3.org/2000/svg" viewBox="0 0 116.68 116.68"><defs><style>.cls-1{font-size:16px;font-family:Arial-Black, Arial;font-weight:800;}.cls-1,.cls-2{fill:#4c67fe;}</style></defs><g id="Calque_2" data-name="Calque 2"><g id="Calque_1-2" data-name="Calque 1"><text class="cls-1" transform="translate(13.33 56.66) rotate(-80.59)">S</text><text class="cls-1" transform="translate(15.18 46.45) rotate(-71.22)">i</text><text class="cls-1" transform="translate(16.46 42.36) rotate(-64.56)">t</text><text class="cls-1" transform="translate(18.78 36.88) rotate(-54.69)">e</text><text class="cls-1" transform="translate(24.38 29.17) rotate(-45.94)"> </text><text class="cls-1" transform="translate(26.84 25.76) rotate(-34.52)">w</text><text class="cls-1" transform="translate(38.19 18.08) rotate(-19.8)">e</text><text class="cls-1" transform="translate(47 14.77) rotate(-7.72)">b</text><text class="cls-1" transform="translate(56.43 13.61) rotate(0.95)"> </text><text class="cls-1" transform="translate(60.68 13.39) rotate(9.72)">à</text><text class="cls-1" transform="matrix(0.95, 0.32, -0.32, 0.95, 70.04, 15.11)"> </text><text class="cls-1" transform="translate(74.14 16.23) rotate(26.86)">v</text><text class="cls-1" transform="matrix(0.78, 0.62, -0.62, 0.78, 81.84, 19.95)">e</text><text class="cls-1" transform="translate(89.29 25.67) rotate(50.26)">n</text><text class="cls-1" transform="translate(95.28 33.05) rotate(58.98)">i</text><text class="cls-1" transform="translate(97.59 36.67) rotate(65.63)">r</text><text class="cls-1" transform="translate(100.09 42.17) rotate(72.28)"> </text><text class="cls-1" transform="translate(101.45 46.27) rotate(77.85)"> </text><text class="cls-1" transform="translate(102.41 50.5) rotate(83.43)"> </text><text class="cls-1" transform="translate(102.96 54.82) rotate(88.96)"> </text><text class="cls-1" transform="matrix(-0.14, 0.99, -0.99, -0.14, 103.38, 58.99)">S</text><text class="cls-1" transform="translate(101.75 69.23) rotate(107.5)">i</text><text class="cls-1" transform="matrix(-0.41, 0.91, -0.91, -0.41, 100.57, 73.34)">t</text><text class="cls-1" transform="translate(98.37 78.87) rotate(124.04)">e</text><text class="cls-1" transform="translate(92.96 86.68) rotate(132.76)"> </text><text class="cls-1" transform="matrix(-0.81, 0.59, -0.59, -0.81, 90.59, 90.13)">w</text><text class="cls-1" transform="translate(79.44 98.06) rotate(158.83)">e</text><text class="cls-1" transform="translate(70.73 101.58) rotate(170.91)">b</text><text class="cls-1" transform="translate(61.26 102.94) rotate(179.07)"> </text><text class="cls-1" transform="translate(57.11 103.29) rotate(-171.68)">à</text><text class="cls-1" transform="translate(47.71 101.8) rotate(-162.87)"> </text><text class="cls-1" transform="matrix(-0.9, -0.43, 0.43, -0.9, 43.61, 100.78)">v</text><text class="cls-1" transform="translate(35.84 97.28) rotate(-143.14)">e</text><text class="cls-1" transform="matrix(-0.66, -0.75, 0.75, -0.66, 28.23, 91.74)">n</text><text class="cls-1" transform="matrix(-0.54, -0.84, 0.84, -0.54, 22.04, 84.49)">i</text><text class="cls-1" transform="matrix(-0.44, -0.9, 0.9, -0.44, 19.66, 80.96)">r</text><circle class="cls-2" cx="105.4" cy="49.94" r="2.39"/><circle class="cls-2" cx="10.7" cy="65.24" r="2.39"/><circle class="cls-2" cx="58.05" cy="58.32" r="34.93"/></g></g></svg>