<svg xmlns="http://www.w3.org/2000/svg" viewBox="0 0 121.86 121.89"><defs><style>.cls-1{font-size:19px;font-family:Suntech-Silgothic, Suntech;}.cls-1,.cls-2{fill:#ff4343;}</style></defs><g id="Calque_2" data-name="Calque 2"><g id="Calque_1-2" data-name="Calque 1"><text class="cls-1" transform="translate(15.27 59.46) rotate(-76.2)">홈</text><text class="cls-1" transform="matrix(0.58, -0.81, 0.81, 0.58, 19.06, 42.66)">페</text><text class="cls-1" transform="translate(28.8 28.48) rotate(-32.75)">이</text><text class="cls-1" transform="translate(43.07 18.88) rotate(-10.94)">지</text><text class="cls-1" transform="translate(60.2 16.16) rotate(3.08)"> </text><text class="cls-1" transform="translate(65.1 15.45) rotate(17.23)">준</text><text class="cls-1" transform="matrix(0.78, 0.63, -0.63, 0.78, 81.64, 20.23)">비</text><text class="cls-1" transform="translate(95.23 30.8) rotate(60.66)">중</text><text class="cls-1" transform="translate(103.22 46.18) rotate(74.86)"> </text><text class="cls-1" transform="translate(104.62 51.11) rotate(81.45)"> </text><text class="cls-1" transform="translate(105.45 56.15) rotate(87.96)"> </text><text class="cls-1" transform="translate(106.59 60.99) rotate(102.02)">홈</text><text class="cls-1" transform="matrix(-0.56, 0.83, -0.83, -0.56, 103.34, 77.88)">페</text><text class="cls-1" transform="translate(94.06 92.36) rotate(145.44)">이</text><text class="cls-1" transform="translate(80.07 102.41) rotate(167.27)">지</text><text class="cls-1" transform="translate(63.04 105.66) rotate(-178.68)"> </text><text class="cls-1" transform="translate(58.15 106.52) rotate(-164.55)">준</text><text class="cls-1" transform="translate(41.48 102.27) rotate(-142.76)">비</text><text class="cls-1" transform="translate(27.58 92.14) rotate(-121.15)">중</text><circle class="cls-2" cx="60.88" cy="60.93" r="34.93"/><circle class="cls-2" cx="112.98" cy="54.79" r="2.39"/><circle class="cls-2" cx="11.28" cy="67.85" r="2.39"/></g></g></svg>