<svg xmlns="http://www.w3.org/2000/svg" viewBox="0 0 113.3 113.32"><defs><style>.cls-1{font-size:14px;font-family:Arial-Black, Arial;font-weight:800;}.cls-1,.cls-2{fill:#7892ff;}</style></defs><g id="Calque_2" data-name="Calque 2"><g id="Calque_1-2" data-name="Calque 1"><text class="cls-1" transform="translate(11.5 54.95) rotate(-79.51)">w</text><text class="cls-1" transform="matrix(0.4, -0.92, 0.92, 0.4, 13.78, 43.12)">e</text><text class="cls-1" transform="translate(17.01 35.47) rotate(-55.87)">b</text><text class="cls-1" transform="matrix(0.7, -0.72, 0.72, 0.7, 21.62, 28.57)">s</text><text class="cls-1" transform="translate(26.99 23.13) rotate(-38.55)">i</text><text class="cls-1" transform="translate(29.91 20.7) rotate(-32.71)">t</text><text class="cls-1" transform="matrix(0.91, -0.41, 0.41, 0.91, 34.21, 17.71)">e</text><text class="cls-1" transform="translate(41.91 14.38) rotate(-16.19)"> </text><text class="cls-1" transform="matrix(0.98, -0.2, 0.2, 0.98, 45.58, 13.28)">i</text><text class="cls-1" transform="translate(49.21 12.37) rotate(-3.99)">s</text><text class="cls-1" transform="translate(56.85 11.91) rotate(3.22)"> </text><text class="cls-1" transform="matrix(0.98, 0.19, -0.19, 0.98, 60.57, 11.89)">c</text><text class="cls-1" transform="translate(68.73 13.37) rotate(21.61)">o</text><text class="cls-1" transform="matrix(0.82, 0.57, -0.57, 0.82, 76.54, 16.03)">m</text><text class="cls-1" transform="translate(86.94 23.74) rotate(45.64)">i</text><text class="cls-1" transform="matrix(0.6, 0.8, -0.8, 0.6, 89.69, 26.24)">n</text><text class="cls-1" transform="translate(94.72 32.83) rotate(63.92)">g</text><text class="cls-1" transform="matrix(0.31, 0.95, -0.95, 0.31, 98.33, 40.42)">!</text><text class="cls-1" transform="translate(99.56 44.04) rotate(76.69)"> </text><text class="cls-1" transform="translate(100.48 47.77) rotate(81.63)"> </text><text class="cls-1" transform="translate(101.07 51.54) rotate(86.51)"> </text><text class="cls-1" transform="matrix(-0.02, 1, -1, -0.02, 101.34, 55.38)"> </text><text class="cls-1" transform="translate(101.72 59.08) rotate(101.45)">w</text><text class="cls-1" transform="translate(99.23 70.89) rotate(114.51)">e</text><text class="cls-1" transform="matrix(-0.58, 0.82, -0.82, -0.58, 95.88, 78.49)">b</text><text class="cls-1" transform="translate(91.15 85.3) rotate(135.17)">s</text><text class="cls-1" transform="translate(85.68 90.65) rotate(142.44)">i</text><text class="cls-1" transform="matrix(-0.85, 0.53, -0.53, -0.85, 82.75, 93.01)">t</text><text class="cls-1" transform="translate(78.38 95.94) rotate(156.99)">e</text><text class="cls-1" transform="translate(70.61 99.14) rotate(164.81)"> </text><text class="cls-1" transform="translate(66.93 100.17) rotate(169.74)">i</text><text class="cls-1" transform="translate(63.27 101.02) rotate(177.01)">s</text><text class="cls-1" transform="matrix(-1, -0.07, 0.07, -1, 55.65, 101.36)"> </text><text class="cls-1" transform="translate(51.93 101.31) rotate(-168.09)">c</text><text class="cls-1" transform="translate(43.78 99.69) rotate(-157.39)">o</text><text class="cls-1" transform="translate(36.01 96.89) rotate(-143.93)">m</text><text class="cls-1" transform="translate(25.77 89.02) rotate(-133.4)">i</text><text class="cls-1" transform="matrix(-0.58, -0.81, 0.81, -0.58, 23.05, 86.46)">n</text><text class="cls-1" transform="translate(18.13 79.77) rotate(-115.07)">g</text><text class="cls-1" transform="matrix(-0.3, -0.96, 0.96, -0.3, 14.65, 72.12)">!</text><circle class="cls-2" cx="104.69" cy="51.26" r="2.39"/><circle class="cls-2" cx="8.98" cy="61.56" r="2.39"/><circle class="cls-2" cx="56.58" cy="56.64" r="34.93"/></g></g></svg>