<svg xmlns="http://www.w3.org/2000/svg" viewBox="0 0 106.78 106.98"><defs><style>.cls-1{fill:#4c67fe;}</style></defs><g id="Calque_2" data-name="Calque 2"><g id="Calque_1-2" data-name="Calque 1"><path class="cls-1" d="M6.3,44.57l.77-2.85a4,4,0,0,1,1.44,1,3.68,3.68,0,0,1,.82,1.55,5.54,5.54,0,0,1,0,2.21,8,8,0,0,1-.56,2.07,3.82,3.82,0,0,1-1,1.34,4.2,4.2,0,0,1-1.39.76,4.49,4.49,0,0,1-1.93,0,4.46,4.46,0,0,1-2-.73,3.6,3.6,0,0,1-.94-1,3.54,3.54,0,0,1-.54-1.2,6,6,0,0,1,0-2.34A5.34,5.34,0,0,1,2.18,42.6a3.73,3.73,0,0,1,2.25-1.12l0,2.92a1.32,1.32,0,0,0-.84.38,1.58,1.58,0,0,0-.41.91A1.54,1.54,0,0,0,3.49,47a2.48,2.48,0,0,0,1.56.71,2.15,2.15,0,0,0,1.56-.23,1.54,1.54,0,0,0,.69-1.11,1.66,1.66,0,0,0-.15-1A1.92,1.92,0,0,0,6.3,44.57Z"/><path class="cls-1" d="M6.07,40.91a4,4,0,0,1-2.41-2.22,4.68,4.68,0,0,1,.06-3.56A4.61,4.61,0,0,1,6.3,32.2a4.12,4.12,0,0,1,3,0,4,4,0,0,1,2.42,2.22,4.69,4.69,0,0,1-.08,3.6,4.78,4.78,0,0,1-2,2.59A4,4,0,0,1,6.07,40.91ZM7.14,38a2.44,2.44,0,0,0,1.64.15,1.41,1.41,0,0,0,.77-2,2.44,2.44,0,0,0-1.37-1A2.34,2.34,0,0,0,6.57,35a1.33,1.33,0,0,0-.85.82,1.35,1.35,0,0,0,.1,1.22A2.33,2.33,0,0,0,7.14,38Z"/><path class="cls-1" d="M6.41,29.12l1.53-2.43,1.1.7a4.32,4.32,0,0,1-.27-1.71,3.33,3.33,0,0,1,.56-1.54A2.62,2.62,0,0,1,11,22.85a3.25,3.25,0,0,1,2.37.64l4.33,2.72-1.65,2.62-3.74-2.36a1.64,1.64,0,0,0-1.06-.33,1,1,0,0,0-.68.5,1.13,1.13,0,0,0-.13,1,2.47,2.47,0,0,0,1.1,1.11l3.27,2.06-1.64,2.6Z"/><path class="cls-1" d="M12.46,15.58l2.28,2,1.13-1.27,1.69,1.5-1.13,1.27L18.55,21a1.47,1.47,0,0,0,.58.38.55.55,0,0,0,.54-.22,3.64,3.64,0,0,0,.49-.84l1.74,1.24a10.29,10.29,0,0,1-1.24,1.76,3.79,3.79,0,0,1-1.34,1.07,1.86,1.86,0,0,1-1.21,0,5.53,5.53,0,0,1-1.63-1.1l-2.11-1.89-.75.85-1.69-1.5.76-.85-1.1-1Z"/><path class="cls-1" d="M20.86,15.36,18.37,17A3.32,3.32,0,0,1,18,15.71a2.65,2.65,0,0,1,.22-1.16,3.64,3.64,0,0,1,.68-1,9.73,9.73,0,0,1,1.18-1.11,12.64,12.64,0,0,1,1.83-1.27,2.88,2.88,0,0,1,1.5-.37,2.22,2.22,0,0,1,1.08.37,3.63,3.63,0,0,1,.93.78l2.22,2.77a4,4,0,0,0,.61.65,3.69,3.69,0,0,0,.76.45l-2.26,1.8a2.67,2.67,0,0,1-.47-.22,2.9,2.9,0,0,1-.4-.34,3.91,3.91,0,0,1-.42,1.41,5.28,5.28,0,0,1-1.27,1.45,3.21,3.21,0,0,1-2.12.84,2.1,2.1,0,0,1-1.61-.81,2.14,2.14,0,0,1-.53-1.51,3.68,3.68,0,0,1,1-1.93c.76-.9,1.24-1.5,1.45-1.79a9.38,9.38,0,0,0,.62-1,1.08,1.08,0,0,0-.68-.48,1.17,1.17,0,0,0-.79.34,2.23,2.23,0,0,0-.73.9A1.37,1.37,0,0,0,20.86,15.36ZM24,15q-.36.57-.78,1.14a3,3,0,0,0-.62,1.12.8.8,0,0,0,.15.61.76.76,0,0,0,.57.3,1.07,1.07,0,0,0,.73-.28,2,2,0,0,0,.59-.8,1.51,1.51,0,0,0,.11-.87,2,2,0,0,0-.44-.84Z"/><path class="cls-1" d="M33.12,10.18l2.76-1a4.12,4.12,0,0,1,0,1.78,3.73,3.73,0,0,1-.79,1.56,5.49,5.49,0,0,1-1.77,1.33,8.12,8.12,0,0,1-2,.76,3.81,3.81,0,0,1-1.65,0,3.94,3.94,0,0,1-1.43-.68,4.41,4.41,0,0,1-1.18-1.54,4.59,4.59,0,0,1-.56-2A3.8,3.8,0,0,1,26.77,9a4.17,4.17,0,0,1,.66-1.14,6.16,6.16,0,0,1,1.89-1.38,5.25,5.25,0,0,1,3-.74,3.67,3.67,0,0,1,2.23,1.17L32.13,8.53a1.32,1.32,0,0,0-.79-.47,1.77,1.77,0,0,0-1.83,1.26A2.43,2.43,0,0,0,29.84,11a2.14,2.14,0,0,0,1.1,1.12,1.52,1.52,0,0,0,1.3-.08,1.68,1.68,0,0,0,.77-.74A1.82,1.82,0,0,0,33.12,10.18Z"/><path class="cls-1" d="M37.75,0l.91,2.92,1.62-.51L41,4.56l-1.62.51.85,2.72a1.52,1.52,0,0,0,.3.62.55.55,0,0,0,.58.08A3.26,3.26,0,0,0,41.92,8l.85,2a9.82,9.82,0,0,1-2,.88,3.65,3.65,0,0,1-1.7.22,1.77,1.77,0,0,1-1-.61,5.19,5.19,0,0,1-.83-1.78L36.39,6l-1.08.34-.68-2.15,1.09-.34-.44-1.41Z"/><path class="cls-1" d="M62,6.53l2.84.75a3.9,3.9,0,0,1-1,1.45,3.69,3.69,0,0,1-1.55.83,5.51,5.51,0,0,1-2.21,0A8.27,8.27,0,0,1,58,9.06a3.67,3.67,0,0,1-1.33-1,3.77,3.77,0,0,1-.77-1.38,4.34,4.34,0,0,1-.07-1.94,4.55,4.55,0,0,1,.72-2,3.74,3.74,0,0,1,1-.95,4.09,4.09,0,0,1,1.2-.54,6.19,6.19,0,0,1,2.34,0A5.38,5.38,0,0,1,64,2.4a3.68,3.68,0,0,1,1.13,2.24l-2.92,0a1.32,1.32,0,0,0-.38-.83,1.6,1.6,0,0,0-.92-.4,1.51,1.51,0,0,0-1.3.36,2.46,2.46,0,0,0-.71,1.57,2.15,2.15,0,0,0,.25,1.56,1.54,1.54,0,0,0,1.1.68,1.7,1.7,0,0,0,1.06-.16A1.92,1.92,0,0,0,62,6.53Z"/><path class="cls-1" d="M65.7,6.28a4,4,0,0,1,2.2-2.42,4.67,4.67,0,0,1,3.56,0,4.66,4.66,0,0,1,3,2.57,4.06,4.06,0,0,1,0,3,4,4,0,0,1-2.2,2.43,4.73,4.73,0,0,1-3.6-.05,4.8,4.8,0,0,1-2.6-2A3.91,3.91,0,0,1,65.7,6.28Zm2.9,1A2.4,2.4,0,0,0,68.46,9a1.42,1.42,0,0,0,2.05.76,2.55,2.55,0,0,0,1-1.38,2.39,2.39,0,0,0,.13-1.61,1.36,1.36,0,0,0-.82-.85,1.44,1.44,0,0,0-1.23.1A2.43,2.43,0,0,0,68.6,7.33Z"/><path class="cls-1" d="M77.47,6.54l2.44,1.51-.69,1.12a4.2,4.2,0,0,1,1.71-.29,3.47,3.47,0,0,1,1.54.55,2.61,2.61,0,0,1,1.3,1.71,3.25,3.25,0,0,1-.62,2.37l-2.7,4.34-2.63-1.63,2.33-3.75a1.6,1.6,0,0,0,.33-1.06,1,1,0,0,0-.5-.68,1.11,1.11,0,0,0-1-.12,2.38,2.38,0,0,0-1.09,1.11l-2,3.27-2.62-1.62Z"/><path class="cls-1" d="M91.08,12.54l-2,2.3L90.33,16l-1.5,1.69-1.27-1.12-1.88,2.14a1.5,1.5,0,0,0-.38.57.57.57,0,0,0,.23.54,3.53,3.53,0,0,0,.85.49L85.14,22a10.76,10.76,0,0,1-1.77-1.22,3.73,3.73,0,0,1-1.07-1.35,1.76,1.76,0,0,1,0-1.2,5,5,0,0,1,1.09-1.63l1.87-2.12-.85-.75L85.89,12l.85.75,1-1.1Z"/><path class="cls-1" d="M91.32,20.92,89.7,18.43A3.61,3.61,0,0,1,91,18a2.71,2.71,0,0,1,1.17.22,3.79,3.79,0,0,1,1,.68,9.5,9.5,0,0,1,1.11,1.16,13,13,0,0,1,1.29,1.83,3,3,0,0,1,.38,1.49,2.46,2.46,0,0,1-.36,1.09,3.47,3.47,0,0,1-.79.93L92,27.68a4,4,0,0,0-.65.61,4.67,4.67,0,0,0-.44.76L89.1,26.81a2.72,2.72,0,0,1,.23-.48,3.31,3.31,0,0,1,.33-.4,4.12,4.12,0,0,1-1.41-.41,5,5,0,0,1-1.46-1.27,3.12,3.12,0,0,1-.85-2.11,2.11,2.11,0,0,1,.8-1.61A2.15,2.15,0,0,1,88.25,20a3.64,3.64,0,0,1,1.93,1q1.36,1.13,1.8,1.44A8.57,8.57,0,0,0,93,23a1.1,1.1,0,0,0,.47-.68,1.15,1.15,0,0,0-.35-.78,2,2,0,0,0-.9-.73A1.25,1.25,0,0,0,91.32,20.92ZM91.74,24c-.38-.23-.76-.49-1.14-.77a3.06,3.06,0,0,0-1.13-.62.79.79,0,0,0-.91.73,1.14,1.14,0,0,0,.29.73,1.92,1.92,0,0,0,.8.58,1.51,1.51,0,0,0,.87.11,2.17,2.17,0,0,0,.84-.45Z"/><path class="cls-1" d="M96.59,33.17l1,2.76a4.07,4.07,0,0,1-1.77,0,3.67,3.67,0,0,1-1.57-.77A5.62,5.62,0,0,1,93,33.41a8.14,8.14,0,0,1-.77-2,3.71,3.71,0,0,1,0-1.66,4,4,0,0,1,.66-1.43,5.36,5.36,0,0,1,3.56-1.75,3.6,3.6,0,0,1,1.36.25,3.91,3.91,0,0,1,1.14.65,6.08,6.08,0,0,1,1.39,1.88,5.37,5.37,0,0,1,.76,3,3.71,3.71,0,0,1-1.16,2.23l-1.68-2.39a1.35,1.35,0,0,0,.46-.8,1.7,1.7,0,0,0-.21-1,1.57,1.57,0,0,0-1.06-.84,2.44,2.44,0,0,0-1.69.34A2.15,2.15,0,0,0,94.62,31a1.51,1.51,0,0,0,.1,1.29,1.63,1.63,0,0,0,.74.77A1.89,1.89,0,0,0,96.59,33.17Z"/><path class="cls-1" d="M106.78,37.7l-2.91.93.52,1.62-2.15.69-.52-1.62L99,40.19a1.74,1.74,0,0,0-.62.3.57.57,0,0,0-.08.59,3.51,3.51,0,0,0,.48.84l-2,.87a10.15,10.15,0,0,1-.89-2,3.69,3.69,0,0,1-.23-1.7,1.74,1.74,0,0,1,.6-1,5.33,5.33,0,0,1,1.78-.85l2.69-.86-.35-1.08,2.15-.69.35,1.08,1.4-.45Z"/><path class="cls-1" d="M100.4,62l-.74,2.85a4.13,4.13,0,0,1-1.46-1,3.74,3.74,0,0,1-.83-1.55,5.49,5.49,0,0,1-.06-2.21,8,8,0,0,1,.53-2.08,3.79,3.79,0,0,1,1-1.34,4.06,4.06,0,0,1,1.37-.78,4.47,4.47,0,0,1,1.94-.08,4.58,4.58,0,0,1,2,.71,4,4,0,0,1,1.51,2.19,6.11,6.11,0,0,1,0,2.33A5.42,5.42,0,0,1,104.54,64a3.76,3.76,0,0,1-2.24,1.15l0-2.93a1.34,1.34,0,0,0,.84-.38,1.56,1.56,0,0,0,.39-.92,1.54,1.54,0,0,0-.37-1.3,2.41,2.41,0,0,0-1.57-.7,2.2,2.2,0,0,0-1.56.25,1.57,1.57,0,0,0-.67,1.12,1.66,1.66,0,0,0,.16,1A1.87,1.87,0,0,0,100.4,62Z"/><path class="cls-1" d="M100.67,65.69a4,4,0,0,1,2.43,2.19,5.38,5.38,0,0,1-2.56,6.52,4.38,4.38,0,0,1-5.39-2.19,4.67,4.67,0,0,1,0-3.6,4.78,4.78,0,0,1,2-2.62A3.92,3.92,0,0,1,100.67,65.69Zm-1,2.91A2.36,2.36,0,0,0,98,68.47a1.38,1.38,0,0,0-.85.85,1.36,1.36,0,0,0,.11,1.21,2.49,2.49,0,0,0,1.38,1,2.44,2.44,0,0,0,1.61.12,1.33,1.33,0,0,0,.84-.83,1.37,1.37,0,0,0-.11-1.23A2.38,2.38,0,0,0,99.63,68.6Z"/><path class="cls-1" d="M100.48,77.47,99,79.92l-1.12-.69a4.23,4.23,0,0,1,.3,1.71,3.36,3.36,0,0,1-.54,1.55,2.61,2.61,0,0,1-1.7,1.31,3.3,3.3,0,0,1-2.38-.61l-4.36-2.67,1.62-2.64,3.77,2.31a1.62,1.62,0,0,0,1.06.32,1,1,0,0,0,.68-.51,1.12,1.12,0,0,0,.11-1,2.44,2.44,0,0,0-1.11-1.09L92,75.9l1.61-2.63Z"/><path class="cls-1" d="M94.56,91.11l-2.31-2-1.11,1.28-1.7-1.48,1.11-1.28-2.14-1.87a1.53,1.53,0,0,0-.58-.37.55.55,0,0,0-.54.23,3.25,3.25,0,0,0-.48.85l-1.75-1.23a10.15,10.15,0,0,1,1.21-1.77,3.57,3.57,0,0,1,1.34-1.08,1.71,1.71,0,0,1,1.2,0,5.21,5.21,0,0,1,1.64,1.08l2.13,1.85.75-.85L95,85.92l-.75.86,1.11,1Z"/><path class="cls-1" d="M86.19,91.4l2.47-1.63a3.26,3.26,0,0,1,.4,1.25,2.55,2.55,0,0,1-.21,1.17,3.75,3.75,0,0,1-.67,1A8.83,8.83,0,0,1,87,94.32a12.65,12.65,0,0,1-1.82,1.3,2.83,2.83,0,0,1-1.49.38,2.11,2.11,0,0,1-1.09-.35,3.42,3.42,0,0,1-.93-.77l-2.26-2.75a4.26,4.26,0,0,0-.62-.64,3.78,3.78,0,0,0-.76-.43l2.23-1.84a4,4,0,0,1,.48.22,3.23,3.23,0,0,1,.41.33,4,4,0,0,1,.4-1.41,5.21,5.21,0,0,1,1.25-1.46A3.17,3.17,0,0,1,84.93,86a2.27,2.27,0,0,1,2.16,2.3,3.6,3.6,0,0,1-1,1.94c-.75.91-1.22,1.51-1.43,1.8s-.41.62-.61,1a1.09,1.09,0,0,0,.69.46,1.17,1.17,0,0,0,.78-.35,2.11,2.11,0,0,0,.72-.9A1.34,1.34,0,0,0,86.19,91.4Zm-3.09.45a11.53,11.53,0,0,1,.77-1.15,3.09,3.09,0,0,0,.6-1.14.78.78,0,0,0-.16-.6.74.74,0,0,0-.57-.3A1.11,1.11,0,0,0,83,89a2,2,0,0,0-.58.8,1.58,1.58,0,0,0-.1.87,2.08,2.08,0,0,0,.46.84Z"/><path class="cls-1" d="M74,96.75l-2.74,1.07a4.13,4.13,0,0,1,0-1.78A3.72,3.72,0,0,1,72,94.47a5.47,5.47,0,0,1,1.76-1.35,7.69,7.69,0,0,1,2-.78,3.83,3.83,0,0,1,1.65,0,4,4,0,0,1,1.43.66A4.48,4.48,0,0,1,80,94.53a4.43,4.43,0,0,1,.58,2,3.62,3.62,0,0,1-.24,1.36,3.7,3.7,0,0,1-.65,1.14,6.08,6.08,0,0,1-1.87,1.41,5.34,5.34,0,0,1-3,.77,3.72,3.72,0,0,1-2.24-1.15L75,98.39a1.41,1.41,0,0,0,.8.46,1.62,1.62,0,0,0,1-.22,1.57,1.57,0,0,0,.84-1.06,2.51,2.51,0,0,0-.35-1.69,2.14,2.14,0,0,0-1.12-1.11,1.53,1.53,0,0,0-1.3.1,1.65,1.65,0,0,0-.75.75A1.89,1.89,0,0,0,74,96.75Z"/><path class="cls-1" d="M69.46,107l-.94-2.91-1.62.52-.7-2.14,1.62-.53-.89-2.7a1.58,1.58,0,0,0-.3-.62.57.57,0,0,0-.59-.08,3.51,3.51,0,0,0-.84.48l-.88-2a10.87,10.87,0,0,1,2-.9,3.69,3.69,0,0,1,1.7-.24,1.77,1.77,0,0,1,1,.6,5.17,5.17,0,0,1,.85,1.77l.88,2.69,1.08-.36.7,2.15-1.08.35.46,1.4Z"/><path class="cls-1" d="M45.11,100.73,42.25,100a4.26,4.26,0,0,1,1-1.47,3.72,3.72,0,0,1,1.54-.84A5.48,5.48,0,0,1,47,97.63a7.58,7.58,0,0,1,2.08.52,3.74,3.74,0,0,1,2.13,2.33,4.39,4.39,0,0,1,.1,1.93,4.67,4.67,0,0,1-.7,2,3.78,3.78,0,0,1-1,1,3.67,3.67,0,0,1-1.19.56,5.88,5.88,0,0,1-2.33.06,5.26,5.26,0,0,1-2.88-1.1,3.66,3.66,0,0,1-1.16-2.23H45a1.33,1.33,0,0,0,.39.84,1.66,1.66,0,0,0,.92.39,1.59,1.59,0,0,0,1.3-.38,2.51,2.51,0,0,0,.69-1.58,2.1,2.1,0,0,0-.27-1.55,1.49,1.49,0,0,0-1.11-.67,1.59,1.59,0,0,0-1,.17A1.82,1.82,0,0,0,45.11,100.73Z"/><path class="cls-1" d="M41.46,101a4.06,4.06,0,0,1-2.18,2.45,4.66,4.66,0,0,1-3.56,0,4.57,4.57,0,0,1-3-2.53,4.37,4.37,0,0,1,2.16-5.4,4.66,4.66,0,0,1,3.6,0,4.81,4.81,0,0,1,2.63,2A4,4,0,0,1,41.46,101Zm-2.92-1a2.4,2.4,0,0,0,.12-1.64,1.35,1.35,0,0,0-.86-.85,1.37,1.37,0,0,0-1.2.11A2.55,2.55,0,0,0,35.66,99a2.37,2.37,0,0,0-.11,1.61,1.31,1.31,0,0,0,.83.84,1.38,1.38,0,0,0,1.22-.12A2.32,2.32,0,0,0,38.54,100Z"/><path class="cls-1" d="M29.67,100.89l-2.46-1.48.68-1.12a4.18,4.18,0,0,1-1.71.3,3.5,3.5,0,0,1-1.55-.53,2.64,2.64,0,0,1-1.32-1.69,3.29,3.29,0,0,1,.6-2.38l2.65-4.37,2.64,1.6L26.92,95a1.58,1.58,0,0,0-.32,1.06,1,1,0,0,0,.51.68,1.14,1.14,0,0,0,1,.11,2.55,2.55,0,0,0,1.08-1.13l2-3.3L33.83,94Z"/><path class="cls-1" d="M16,95.06l2-2.32-1.28-1.11,1.47-1.7L19.47,91l1.86-2.15a1.47,1.47,0,0,0,.37-.58.57.57,0,0,0-.23-.55,4.09,4.09,0,0,0-.85-.47l1.21-1.76a9.39,9.39,0,0,1,1.78,1.21,3.6,3.6,0,0,1,1.09,1.33,1.76,1.76,0,0,1,0,1.2,5.34,5.34,0,0,1-1.07,1.65l-1.85,2.14.86.74L21.2,95.5l-.86-.74-1,1.12Z"/><path class="cls-1" d="M15.66,86.68l1.64,2.46a3.26,3.26,0,0,1-1.24.41,2.68,2.68,0,0,1-1.17-.2,3.75,3.75,0,0,1-1-.67,9.5,9.5,0,0,1-1.13-1.15,12.65,12.65,0,0,1-1.3-1.81,2.88,2.88,0,0,1-.4-1.49,2.32,2.32,0,0,1,.35-1.09,3.32,3.32,0,0,1,.77-.94l2.73-2.27a4.82,4.82,0,0,0,.64-.62,4.22,4.22,0,0,0,.43-.77l1.85,2.22a3.34,3.34,0,0,1-.22.48,3.23,3.23,0,0,1-.33.41,3.92,3.92,0,0,1,1.41.39,5.11,5.11,0,0,1,1.47,1.25A3.23,3.23,0,0,1,21,85.4a2.28,2.28,0,0,1-2.29,2.17,3.73,3.73,0,0,1-1.95-1c-.91-.74-1.52-1.21-1.81-1.41a8.74,8.74,0,0,0-1-.61,1.12,1.12,0,0,0-.46.69,1.17,1.17,0,0,0,.36.78,2.08,2.08,0,0,0,.91.72A1.33,1.33,0,0,0,15.66,86.68Zm-.46-3.09c.38.23.77.49,1.15.76a2.93,2.93,0,0,0,1.14.6.77.77,0,0,0,.6-.16.78.78,0,0,0,.3-.58,1.1,1.1,0,0,0-.3-.72,1.93,1.93,0,0,0-.81-.57,1.5,1.5,0,0,0-.87-.1,2,2,0,0,0-.83.46Z"/><path class="cls-1" d="M10.25,74.49,9.17,71.75a4.08,4.08,0,0,1,1.77,0,3.72,3.72,0,0,1,1.58.75,5.62,5.62,0,0,1,1.36,1.76,8.09,8.09,0,0,1,.79,2,3.83,3.83,0,0,1,0,1.65A3.94,3.94,0,0,1,14,79.3a4.39,4.39,0,0,1-1.51,1.2,4.52,4.52,0,0,1-2,.6,3.57,3.57,0,0,1-1.35-.24A3.54,3.54,0,0,1,8,80.22a6,6,0,0,1-1.41-1.86,5.32,5.32,0,0,1-.8-3,3.71,3.71,0,0,1,1.14-2.24l1.7,2.37a1.34,1.34,0,0,0-.45.8,1.64,1.64,0,0,0,.23,1,1.53,1.53,0,0,0,1.06.83,2.47,2.47,0,0,0,1.69-.36,2.12,2.12,0,0,0,1.1-1.12,1.53,1.53,0,0,0-.11-1.3,1.7,1.7,0,0,0-.75-.75A1.82,1.82,0,0,0,10.25,74.49Z"/><path class="cls-1" d="M0,70.07l2.9-1-.53-1.61,2.13-.71L5,68.39l2.7-.9a1.56,1.56,0,0,0,.62-.31.56.56,0,0,0,.07-.58,3.16,3.16,0,0,0-.49-.85l2-.88a9.89,9.89,0,0,1,.91,1.94,3.79,3.79,0,0,1,.26,1.7,1.76,1.76,0,0,1-.6,1,5.17,5.17,0,0,1-1.76.86L6,71.32l.36,1.07-2.14.72L3.88,72l-1.4.47Z"/><circle class="cls-1" cx="102.17" cy="48.77" r="2.39"/><circle class="cls-1" cx="48.86" cy="4.93" r="2.39"/><circle class="cls-1" cx="58.65" cy="101.03" r="2.39"/><circle class="cls-1" cx="5.65" cy="58.03" r="2.39"/><circle class="cls-1" cx="53.91" cy="52.98" r="34.93"/></g></g></svg>