<?xml version="1.0" encoding="utf-8"?>
<!-- Generator: Adobe Illustrator 22.0.1, SVG Export Plug-In . SVG Version: 6.00 Build 0)  -->
<svg version="1.1" id="Calque_1" xmlns="http://www.w3.org/2000/svg" xmlns:xlink="http://www.w3.org/1999/xlink" x="0px" y="0px"
	 viewBox="0 0 55 49" style="enable-background:new 0 0 55 49;" xml:space="preserve">
<style type="text/css">
	.st0{fill:#FFFFFF;}
</style>
<path class="st0" d="M28.9,40.7v7.1h-7.5v-3.6h-3.5v-3.5h-3.6v-3.6h-3.5v-3.5H7.1V30H3.6v-3.5H0v-3.9h3.6V19h3.5v-3.5h3.6v-3.6h3.5
	V8.3h3.6V4.7h3.5V1.1h3.9v10.7h25v3.6h3.5v25.3C53.7,40.7,28.9,40.7,28.9,40.7z M46.5,15.7h-25V8.5h-3.3v3.6h-3.5v3.5H11v3.6H7.5
	v3.5H3.8V26h3.6v3.6H11v3.5h3.6v3.6h3.5v3.5h3.3v-7.1h25L46.5,15.7L46.5,15.7z"/>
</svg>
