<?xml version="1.0" encoding="utf-8"?>
<!-- Generator: Adobe Illustrator 22.0.1, SVG Export Plug-In . SVG Version: 6.00 Build 0)  -->
<svg version="1.1" id="Calque_1" xmlns="http://www.w3.org/2000/svg" xmlns:xlink="http://www.w3.org/1999/xlink" x="0px" y="0px"
	 viewBox="0 0 50.7 55.7" style="enable-background:new 0 0 50.7 55.7;" xml:space="preserve">
<style type="text/css">
	.st0{fill:#FC0000;}
</style>
<g>
	<path class="st0" d="M47.5,34.5v3.7h-3.6v3.6h-3.7v3.7h-3.6V49h-3.7v3.7h-3.6v3.6h-4v-3.6h-3.7V49h-3.6v-3.6h-3.7v-3.7h-3.6v-3.6
		H7.1v-3.7H3.5v-3.6h-3.7v-4h11V1.3h25.8V5h3.6v21.9h11v7.6H47.5z M39.9,30.8h-7.3V5.3H14.7v25.6H7.4v3.3h3.6v3.6h3.7v3.7h3.6v3.6
		H22v3.7h3.3v-3.7H29v-3.6h3.7v-3.7h3.6v-3.6h3.7V30.8z"/>
</g>
</svg>
