<?xml version="1.0" encoding="utf-8"?>
<!-- Generator: Adobe Illustrator 22.0.1, SVG Export Plug-In . SVG Version: 6.00 Build 0)  -->
<svg version="1.1" id="Calque_1" xmlns="http://www.w3.org/2000/svg" xmlns:xlink="http://www.w3.org/1999/xlink" x="0px" y="0px"
	 viewBox="0 0 49.7 51.3" style="enable-background:new 0 0 49.7 51.3;" xml:space="preserve">
<style type="text/css">
	.st0{fill:#FC0000;}
</style>
<path class="st0" d="M46.4,32.9v3.5h-3.5v3.6h-3.6v3.5h-3.5v3.6h-3.6v3.5h-3.9v-3.5h-3.5v-7.1H3.2v-3.6h-3.6V11.1h25V0.4h3.9V4h3.5
	v3.6h3.6v3.5h3.5v3.6h3.6v3.5h3.5v3.6H50v11H46.4z M46.1,22.2h-3.6v-3.5H39V15h-3.6v-3.5h-3.5V7.9h-3.3V15h-25v17.6h25v7.1h3.3v-3.5
	h3.5v-3.6H39V29h3.5v-3.6h3.6V22.2z"/>
</svg>
